<?xml version="1.0" encoding="utf-8"?>
<COLLADA xmlns="http://www.collada.org/2005/11/COLLADASchema" version="1.4.1">
  <asset>
    <contributor>
      <authoring_tool>Fusion URDF/XACRO Exporter</authoring_tool>
    </contributor>
    <created>2026-08-08T07:58:25Z</created>
    <modified>2026-08-08T07:58:25Z</modified>
    <unit name="meter" meter="1.0"/>
    <up_axis>Z_UP</up_axis>
  </asset>
  <library_effects>
    <effect id="Opaque_246_246_243_-effect">
      <profile_COMMON>
        <technique sid="common">
          <lambert>
            <emission><color>0 0 0 1</color></emission>
            <ambient><color>0.0000 0.0000 0.0000 1</color></ambient>
            <diffuse><color>0.9647 0.9647 0.9529 1</color></diffuse>
            <reflective><color>0 0 0 1</color></reflective>
            <transparent opaque="A_ONE"><color>1 1 1 1</color></transparent>
            <transparency><float>1</float></transparency>
          </lambert>
        </technique>
      </profile_COMMON>
    </effect>
  </library_effects>
  <library_materials>
    <material id="Opaque_246_246_243_" name="Opaque(246,246,243)">
      <instance_effect url="#Opaque_246_246_243_-effect"/>
    </material>
  </library_materials>
  <library_geometries>
    <geometry id="gripper_left_addition-mesh" name="gripper_left_addition">
      <mesh>
        <source id="gripper_left_addition-mesh-positions">
          <float_array id="gripper_left_addition-mesh-positions-array" count="1848">0.187014 0.137690 0.172095 0.187036 0.137478 0.172095 0.187099 0.137276 0.172095 0.187202 0.137090 0.172095 0.187341 0.136929 0.172095 0.187509 0.136799 0.172095 0.187700 0.136705 0.172095 0.187905 0.136652 0.172095 0.188117 0.136641 0.172095 0.188327 0.136673 0.172095 0.188527 0.136747 0.172095 0.188707 0.136859 0.172095 0.188861 0.137006 0.172095 0.188982 0.137180 0.172095 0.189066 0.137375 0.172095 0.189109 0.137583 0.172095 0.189109 0.137796 0.172095 0.189066 0.138004 0.172095 0.188982 0.138199 0.172095 0.188861 0.138374 0.172095 0.188707 0.138520 0.172095 0.188527 0.138632 0.172095 0.188327 0.138706 0.172095 0.188117 0.138738 0.172095 0.187905 0.138728 0.172095 0.187700 0.138674 0.172095 0.187509 0.138581 0.172095 0.187341 0.138451 0.172095 0.187202 0.138289 0.172095 0.187099 0.138104 0.172095 0.187036 0.137901 0.172095 0.187014 0.137690 0.169095 0.187036 0.137901 0.169095 0.187099 0.138104 0.169095 0.187202 0.138289 0.169095 0.187341 0.138451 0.169095 0.187509 0.138581 0.169095 0.187700 0.138674 0.169095 0.187905 0.138728 0.169095 0.188117 0.138738 0.169095 0.188327 0.138706 0.169095 0.188527 0.138632 0.169095 0.188707 0.138520 0.169095 0.188861 0.138374 0.169095 0.188982 0.138199 0.169095 0.189066 0.138004 0.169095 0.189109 0.137796 0.169095 0.189109 0.137583 0.169095 0.189066 0.137375 0.169095 0.188982 0.137180 0.169095 0.188861 0.137006 0.169095 0.188707 0.136859 0.169095 0.188527 0.136747 0.169095 0.188327 0.136673 0.169095 0.188117 0.136641 0.169095 0.187905 0.136652 0.169095 0.187700 0.136705 0.169095 0.187509 0.136799 0.169095 0.187341 0.136929 0.169095 0.187202 0.137090 0.169095 0.187099 0.137276 0.169095 0.187036 0.137478 0.169095 0.217014 0.137690 0.172095 0.217036 0.137478 0.172095 0.217099 0.137276 0.172095 0.217202 0.137090 0.172095 0.217341 0.136929 0.172095 0.217509 0.136799 0.172095 0.217700 0.136705 0.172095 0.217905 0.136652 0.172095 0.218117 0.136641 0.172095 0.218327 0.136673 0.172095 0.218527 0.136747 0.172095 0.218707 0.136859 0.172095 0.218861 0.137006 0.172095 0.218982 0.137180 0.172095 0.219066 0.137375 0.172095 0.219109 0.137583 0.172095 0.219109 0.137796 0.172095 0.219066 0.138004 0.172095 0.218982 0.138199 0.172095 0.218861 0.138374 0.172095 0.218707 0.138520 0.172095 0.218527 0.138632 0.172095 0.218327 0.138706 0.172095 0.218117 0.138738 0.172095 0.217905 0.138728 0.172095 0.217700 0.138674 0.172095 0.217509 0.138581 0.172095 0.217341 0.138451 0.172095 0.217202 0.138289 0.172095 0.217099 0.138104 0.172095 0.217036 0.137901 0.172095 0.217014 0.137690 0.169095 0.217036 0.137901 0.169095 0.217099 0.138104 0.169095 0.217202 0.138289 0.169095 0.217341 0.138451 0.169095 0.217509 0.138581 0.169095 0.217700 0.138674 0.169095 0.217905 0.138728 0.169095 0.218117 0.138738 0.169095 0.218327 0.138706 0.169095 0.218527 0.138632 0.169095 0.218707 0.138520 0.169095 0.218861 0.138374 0.169095 0.218982 0.138199 0.169095 0.219066 0.138004 0.169095 0.219109 0.137796 0.169095 0.219109 0.137583 0.169095 0.219066 0.137375 0.169095 0.218982 0.137180 0.169095 0.218861 0.137006 0.169095 0.218707 0.136859 0.169095 0.218527 0.136747 0.169095 0.218327 0.136673 0.169095 0.218117 0.136641 0.169095 0.217905 0.136652 0.169095 0.217700 0.136705 0.169095 0.217509 0.136799 0.169095 0.217341 0.136929 0.169095 0.217202 0.137090 0.169095 0.217099 0.137276 0.169095 0.217036 0.137478 0.169095 0.218064 0.140190 0.172095 0.218391 0.140168 0.172095 0.218711 0.140104 0.172095 0.219021 0.139999 0.172095 0.219314 0.139855 0.172095 0.219586 0.139673 0.172095 0.219832 0.139457 0.172095 0.220048 0.139212 0.172095 0.220229 0.138940 0.172095 0.220374 0.138646 0.172095 0.220479 0.138337 0.172095 0.220543 0.138016 0.172095 0.220564 0.137690 0.172095 0.220543 0.137363 0.172095 0.220479 0.137043 0.172095 0.220374 0.136733 0.172095 0.220229 0.136440 0.172095 0.220048 0.136168 0.172095 0.219832 0.135922 0.172095 0.219586 0.135706 0.172095 0.219314 0.135525 0.172095 0.219021 0.135380 0.172095 0.218711 0.135275 0.172095 0.218391 0.135211 0.172095 0.218064 0.135190 0.172095 0.218064 0.135190 0.169095 0.218391 0.135211 0.169095 0.218711 0.135275 0.169095 0.219021 0.135380 0.169095 0.219314 0.135525 0.169095 0.219586 0.135706 0.169095 0.219832 0.135922 0.169095 0.220048 0.136168 0.169095 0.220229 0.136440 0.169095 0.220374 0.136733 0.169095 0.220479 0.137043 0.169095 0.220543 0.137363 0.169095 0.220564 0.137690 0.169095 0.220543 0.138016 0.169095 0.220479 0.138337 0.169095 0.220374 0.138646 0.169095 0.220229 0.138940 0.169095 0.220048 0.139212 0.169095 0.219832 0.139457 0.169095 0.219586 0.139673 0.169095 0.219314 0.139855 0.169095 0.219021 0.139999 0.169095 0.218711 0.140104 0.169095 0.218391 0.140168 0.169095 0.218064 0.140190 0.169095 0.217453 0.140114 0.172095 0.217657 0.140139 0.172095 0.217860 0.140164 0.172095 0.217860 0.140164 0.169095 0.217657 0.140139 0.169095 0.217453 0.140114 0.169095 0.188676 0.140114 0.172095 0.190474 0.139906 0.172095 0.192273 0.139723 0.172095 0.194071 0.139565 0.172095 0.195870 0.139433 0.172095 0.197668 0.139328 0.172095 0.199467 0.139252 0.172095 0.201266 0.139205 0.172095 0.203064 0.139190 0.172095 0.204863 0.139205 0.172095 0.206661 0.139252 0.172095 0.208460 0.139328 0.172095 0.210259 0.139433 0.172095 0.212057 0.139565 0.172095 0.213856 0.139723 0.172095 0.215654 0.139906 0.172095 0.215654 0.139906 0.169095 0.213856 0.139723 0.169095 0.212057 0.139565 0.169095 0.210259 0.139433 0.169095 0.208460 0.139328 0.169095 0.206661 0.139252 0.169095 0.204863 0.139205 0.169095 0.203064 0.139190 0.169095 0.201266 0.139205 0.169095 0.199467 0.139252 0.169095 0.197668 0.139328 0.169095 0.195870 0.139433 0.169095 0.194071 0.139565 0.169095 0.192273 0.139723 0.169095 0.190474 0.139906 0.169095 0.188676 0.140114 0.169095 0.188064 0.140190 0.172095 0.188268 0.140164 0.172095 0.188472 0.140139 0.172095 0.188472 0.140139 0.169095 0.188268 0.140164 0.169095 0.188064 0.140190 0.169095 0.188064 0.135190 0.172095 0.187738 0.135211 0.172095 0.187417 0.135275 0.172095 0.187107 0.135380 0.172095 0.186814 0.135525 0.172095 0.186542 0.135706 0.172095 0.186296 0.135922 0.172095 0.186081 0.136168 0.172095 0.185899 0.136440 0.172095 0.185755 0.136733 0.172095 0.185649 0.137043 0.172095 0.185586 0.137363 0.172095 0.185564 0.137690 0.172095 0.185586 0.138016 0.172095 0.185649 0.138337 0.172095 0.185755 0.138646 0.172095 0.185899 0.138940 0.172095 0.186081 0.139212 0.172095 0.186296 0.139457 0.172095 0.186542 0.139673 0.172095 0.186814 0.139855 0.172095 0.187107 0.139999 0.172095 0.187417 0.140104 0.172095 0.187738 0.140168 0.172095 0.187738 0.140168 0.169095 0.187417 0.140104 0.169095 0.187107 0.139999 0.169095 0.186814 0.139855 0.169095 0.186542 0.139673 0.169095 0.186296 0.139457 0.169095 0.186081 0.139212 0.169095 0.185899 0.138940 0.169095 0.185755 0.138646 0.169095 0.185649 0.138337 0.169095 0.185586 0.138016 0.169095 0.185564 0.137690 0.169095 0.185586 0.137363 0.169095 0.185649 0.137043 0.169095 0.185755 0.136733 0.169095 0.185899 0.136440 0.169095 0.186081 0.136168 0.169095 0.186296 0.135922 0.169095 0.186542 0.135706 0.169095 0.186814 0.135525 0.169095 0.187107 0.135380 0.169095 0.187417 0.135275 0.169095 0.187738 0.135211 0.169095 0.188064 0.135190 0.169095 0.188676 0.135266 0.172095 0.188472 0.135241 0.172095 0.188268 0.135215 0.172095 0.188268 0.135215 0.169095 0.188472 0.135241 0.169095 0.188676 0.135266 0.169095 0.217453 0.135266 0.172095 0.215654 0.135473 0.172095 0.213856 0.135656 0.172095 0.212057 0.135814 0.172095 0.210259 0.135946 0.172095 0.208460 0.136051 0.172095 0.206661 0.136128 0.172095 0.204863 0.136174 0.172095 0.203064 0.136190 0.172095 0.201266 0.136174 0.172095 0.199467 0.136128 0.172095 0.197668 0.136051 0.172095 0.195870 0.135946 0.172095 0.194071 0.135814 0.172095 0.192273 0.135656 0.172095 0.190474 0.135473 0.172095 0.190474 0.135473 0.169095 0.192273 0.135656 0.169095 0.194071 0.135814 0.169095 0.195870 0.135946 0.169095 0.197668 0.136051 0.169095 0.199467 0.136128 0.169095 0.201266 0.136174 0.169095 0.203064 0.136190 0.169095 0.204863 0.136174 0.169095 0.206661 0.136128 0.169095 0.208460 0.136051 0.169095 0.210259 0.135946 0.169095 0.212057 0.135814 0.169095 0.213856 0.135656 0.169095 0.215654 0.135473 0.169095 0.217453 0.135266 0.169095 0.217860 0.135215 0.172095 0.217657 0.135241 0.172095 0.217657 0.135241 0.169095 0.217860 0.135215 0.169095 0.187014 0.137690 0.165095 0.187036 0.137478 0.165095 0.187099 0.137276 0.165095 0.187202 0.137090 0.165095 0.187341 0.136929 0.165095 0.187509 0.136799 0.165095 0.187700 0.136705 0.165095 0.187905 0.136652 0.165095 0.188117 0.136641 0.165095 0.188327 0.136673 0.165095 0.188527 0.136747 0.165095 0.188707 0.136859 0.165095 0.188861 0.137006 0.165095 0.188982 0.137180 0.165095 0.189066 0.137375 0.165095 0.189109 0.137583 0.165095 0.189109 0.137796 0.165095 0.189066 0.138004 0.165095 0.188982 0.138199 0.165095 0.188861 0.138374 0.165095 0.188707 0.138520 0.165095 0.188527 0.138632 0.165095 0.188327 0.138706 0.165095 0.188117 0.138738 0.165095 0.187905 0.138728 0.165095 0.187700 0.138674 0.165095 0.187509 0.138581 0.165095 0.187341 0.138451 0.165095 0.187202 0.138289 0.165095 0.187099 0.138104 0.165095 0.187036 0.137901 0.165095 0.187014 0.137690 0.162095 0.187036 0.137901 0.162095 0.187099 0.138104 0.162095 0.187202 0.138289 0.162095 0.187341 0.138451 0.162095 0.187509 0.138581 0.162095 0.187700 0.138674 0.162095 0.187905 0.138728 0.162095 0.188117 0.138738 0.162095 0.188327 0.138706 0.162095 0.188527 0.138632 0.162095 0.188707 0.138520 0.162095 0.188861 0.138374 0.162095 0.188982 0.138199 0.162095 0.189066 0.138004 0.162095 0.189109 0.137796 0.162095 0.189109 0.137583 0.162095 0.189066 0.137375 0.162095 0.188982 0.137180 0.162095 0.188861 0.137006 0.162095 0.188707 0.136859 0.162095 0.188527 0.136747 0.162095 0.188327 0.136673 0.162095 0.188117 0.136641 0.162095 0.187905 0.136652 0.162095 0.187700 0.136705 0.162095 0.187509 0.136799 0.162095 0.187341 0.136929 0.162095 0.187202 0.137090 0.162095 0.187099 0.137276 0.162095 0.187036 0.137478 0.162095 0.217014 0.137690 0.165095 0.217036 0.137478 0.165095 0.217099 0.137276 0.165095 0.217202 0.137090 0.165095 0.217341 0.136929 0.165095 0.217509 0.136799 0.165095 0.217700 0.136705 0.165095 0.217905 0.136652 0.165095 0.218117 0.136641 0.165095 0.218327 0.136673 0.165095 0.218527 0.136747 0.165095 0.218707 0.136859 0.165095 0.218861 0.137006 0.165095 0.218982 0.137180 0.165095 0.219066 0.137375 0.165095 0.219109 0.137583 0.165095 0.219109 0.137796 0.165095 0.219066 0.138004 0.165095 0.218982 0.138199 0.165095 0.218861 0.138374 0.165095 0.218707 0.138520 0.165095 0.218527 0.138632 0.165095 0.218327 0.138706 0.165095 0.218117 0.138738 0.165095 0.217905 0.138728 0.165095 0.217700 0.138674 0.165095 0.217509 0.138581 0.165095 0.217341 0.138451 0.165095 0.217202 0.138289 0.165095 0.217099 0.138104 0.165095 0.217036 0.137901 0.165095 0.217014 0.137690 0.162095 0.217036 0.137901 0.162095 0.217099 0.138104 0.162095 0.217202 0.138289 0.162095 0.217341 0.138451 0.162095 0.217509 0.138581 0.162095 0.217700 0.138674 0.162095 0.217905 0.138728 0.162095 0.218117 0.138738 0.162095 0.218327 0.138706 0.162095 0.218527 0.138632 0.162095 0.218707 0.138520 0.162095 0.218861 0.138374 0.162095 0.218982 0.138199 0.162095 0.219066 0.138004 0.162095 0.219109 0.137796 0.162095 0.219109 0.137583 0.162095 0.219066 0.137375 0.162095 0.218982 0.137180 0.162095 0.218861 0.137006 0.162095 0.218707 0.136859 0.162095 0.218527 0.136747 0.162095 0.218327 0.136673 0.162095 0.218117 0.136641 0.162095 0.217905 0.136652 0.162095 0.217700 0.136705 0.162095 0.217509 0.136799 0.162095 0.217341 0.136929 0.162095 0.217202 0.137090 0.162095 0.217099 0.137276 0.162095 0.217036 0.137478 0.162095 0.218064 0.140190 0.165095 0.218391 0.140168 0.165095 0.218711 0.140104 0.165095 0.219021 0.139999 0.165095 0.219314 0.139855 0.165095 0.219586 0.139673 0.165095 0.219832 0.139457 0.165095 0.220048 0.139212 0.165095 0.220229 0.138940 0.165095 0.220374 0.138646 0.165095 0.220479 0.138337 0.165095 0.220543 0.138016 0.165095 0.220564 0.137690 0.165095 0.220543 0.137363 0.165095 0.220479 0.137043 0.165095 0.220374 0.136733 0.165095 0.220229 0.136440 0.165095 0.220048 0.136168 0.165095 0.219832 0.135922 0.165095 0.219586 0.135706 0.165095 0.219314 0.135525 0.165095 0.219021 0.135380 0.165095 0.218711 0.135275 0.165095 0.218391 0.135211 0.165095 0.218064 0.135190 0.165095 0.218064 0.135190 0.162095 0.218391 0.135211 0.162095 0.218711 0.135275 0.162095 0.219021 0.135380 0.162095 0.219314 0.135525 0.162095 0.219586 0.135706 0.162095 0.219832 0.135922 0.162095 0.220048 0.136168 0.162095 0.220229 0.136440 0.162095 0.220374 0.136733 0.162095 0.220479 0.137043 0.162095 0.220543 0.137363 0.162095 0.220564 0.137690 0.162095 0.220543 0.138016 0.162095 0.220479 0.138337 0.162095 0.220374 0.138646 0.162095 0.220229 0.138940 0.162095 0.220048 0.139212 0.162095 0.219832 0.139457 0.162095 0.219586 0.139673 0.162095 0.219314 0.139855 0.162095 0.219021 0.139999 0.162095 0.218711 0.140104 0.162095 0.218391 0.140168 0.162095 0.218064 0.140190 0.162095 0.217453 0.140114 0.165095 0.217657 0.140139 0.165095 0.217860 0.140164 0.165095 0.217860 0.140164 0.162095 0.217657 0.140139 0.162095 0.217453 0.140114 0.162095 0.188676 0.140114 0.165095 0.190474 0.139906 0.165095 0.192273 0.139723 0.165095 0.194071 0.139565 0.165095 0.195870 0.139433 0.165095 0.197668 0.139328 0.165095 0.199467 0.139252 0.165095 0.201266 0.139205 0.165095 0.203064 0.139190 0.165095 0.204863 0.139205 0.165095 0.206661 0.139252 0.165095 0.208460 0.139328 0.165095 0.210259 0.139433 0.165095 0.212057 0.139565 0.165095 0.213856 0.139723 0.165095 0.215654 0.139906 0.165095 0.215654 0.139906 0.162095 0.213856 0.139723 0.162095 0.212057 0.139565 0.162095 0.210259 0.139433 0.162095 0.208460 0.139328 0.162095 0.206661 0.139252 0.162095 0.204863 0.139205 0.162095 0.203064 0.139190 0.162095 0.201266 0.139205 0.162095 0.199467 0.139252 0.162095 0.197668 0.139328 0.162095 0.195870 0.139433 0.162095 0.194071 0.139565 0.162095 0.192273 0.139723 0.162095 0.190474 0.139906 0.162095 0.188676 0.140114 0.162095 0.188064 0.140190 0.165095 0.188268 0.140164 0.165095 0.188472 0.140139 0.165095 0.188472 0.140139 0.162095 0.188268 0.140164 0.162095 0.188064 0.140190 0.162095 0.188064 0.135190 0.165095 0.187738 0.135211 0.165095 0.187417 0.135275 0.165095 0.187107 0.135380 0.165095 0.186814 0.135525 0.165095 0.186542 0.135706 0.165095 0.186296 0.135922 0.165095 0.186081 0.136168 0.165095 0.185899 0.136440 0.165095 0.185755 0.136733 0.165095 0.185649 0.137043 0.165095 0.185586 0.137363 0.165095 0.185564 0.137690 0.165095 0.185586 0.138016 0.165095 0.185649 0.138337 0.165095 0.185755 0.138646 0.165095 0.185899 0.138940 0.165095 0.186081 0.139212 0.165095 0.186296 0.139457 0.165095 0.186542 0.139673 0.165095 0.186814 0.139855 0.165095 0.187107 0.139999 0.165095 0.187417 0.140104 0.165095 0.187738 0.140168 0.165095 0.187738 0.140168 0.162095 0.187417 0.140104 0.162095 0.187107 0.139999 0.162095 0.186814 0.139855 0.162095 0.186542 0.139673 0.162095 0.186296 0.139457 0.162095 0.186081 0.139212 0.162095 0.185899 0.138940 0.162095 0.185755 0.138646 0.162095 0.185649 0.138337 0.162095 0.185586 0.138016 0.162095 0.185564 0.137690 0.162095 0.185586 0.137363 0.162095 0.185649 0.137043 0.162095 0.185755 0.136733 0.162095 0.185899 0.136440 0.162095 0.186081 0.136168 0.162095 0.186296 0.135922 0.162095 0.186542 0.135706 0.162095 0.186814 0.135525 0.162095 0.187107 0.135380 0.162095 0.187417 0.135275 0.162095 0.187738 0.135211 0.162095 0.188064 0.135190 0.162095 0.188676 0.135266 0.165095 0.188472 0.135241 0.165095 0.188268 0.135215 0.165095 0.188268 0.135215 0.162095 0.188472 0.135241 0.162095 0.188676 0.135266 0.162095 0.217453 0.135266 0.165095 0.215654 0.135473 0.165095 0.213856 0.135656 0.165095 0.212057 0.135814 0.165095 0.210259 0.135946 0.165095 0.208460 0.136051 0.165095 0.206661 0.136128 0.165095 0.204863 0.136174 0.165095 0.203064 0.136190 0.165095 0.201266 0.136174 0.165095 0.199467 0.136128 0.165095 0.197668 0.136051 0.165095 0.195870 0.135946 0.165095 0.194071 0.135814 0.165095 0.192273 0.135656 0.165095 0.190474 0.135473 0.165095 0.190474 0.135473 0.162095 0.192273 0.135656 0.162095 0.194071 0.135814 0.162095 0.195870 0.135946 0.162095 0.197668 0.136051 0.162095 0.199467 0.136128 0.162095 0.201266 0.136174 0.162095 0.203064 0.136190 0.162095 0.204863 0.136174 0.162095 0.206661 0.136128 0.162095 0.208460 0.136051 0.162095 0.210259 0.135946 0.162095 0.212057 0.135814 0.162095 0.213856 0.135656 0.162095 0.215654 0.135473 0.162095 0.217453 0.135266 0.162095 0.217860 0.135215 0.165095 0.217657 0.135241 0.165095 0.217657 0.135241 0.162095 0.217860 0.135215 0.162095</float_array>
          <technique_common>
            <accessor source="#gripper_left_addition-mesh-positions-array" count="616" stride="3">
              <param name="X" type="float"/>
              <param name="Y" type="float"/>
              <param name="Z" type="float"/>
            </accessor>
          </technique_common>
        </source>
        <source id="gripper_left_addition-mesh-normals">
          <float_array id="gripper_left_addition-mesh-normals-array" count="3786">0.979530 0.201299 0.000000 0.979530 0.201299 0.000000 1.000000 0.000000 0.000000 1.000000 0.000000 0.000000 0.979530 -0.201299 0.000000 0.979530 -0.201299 0.000000 0.918958 -0.394356 0.000000 0.918958 -0.394356 0.000000 0.820763 -0.571268 0.000000 0.820763 -0.571268 0.000000 0.688967 -0.724793 0.000000 0.688967 -0.724793 0.000000 0.528964 -0.848644 0.000000 0.528964 -0.848644 0.000000 0.347305 -0.937752 0.000000 0.347305 -0.937752 0.000000 0.151428 -0.988468 0.000000 0.151428 -0.988468 0.000000 -0.050649 -0.998717 -0.000000 -0.050649 -0.998717 -0.000000 -0.250653 -0.968077 -0.000000 -0.250653 -0.968077 -0.000000 -0.440394 -0.897805 -0.000000 -0.440394 -0.897805 -0.000000 -0.612106 -0.790776 -0.000000 -0.612106 -0.790776 -0.000000 -0.758758 -0.651372 -0.000000 -0.758758 -0.651372 -0.000000 -0.874347 -0.485302 -0.000000 -0.874347 -0.485302 -0.000000 -0.954139 -0.299363 -0.000000 -0.954139 -0.299363 -0.000000 -0.994869 -0.101168 -0.000000 -0.994869 -0.101168 -0.000000 -0.994869 0.101168 -0.000000 -0.994869 0.101168 -0.000000 -0.954139 0.299363 -0.000000 -0.954139 0.299363 -0.000000 -0.874347 0.485302 -0.000000 -0.874347 0.485302 -0.000000 -0.758758 0.651372 -0.000000 -0.758758 0.651372 -0.000000 -0.612106 0.790776 -0.000000 -0.612106 0.790776 -0.000000 -0.440394 0.897805 -0.000000 -0.440394 0.897805 -0.000000 -0.250653 0.968077 -0.000000 -0.250653 0.968077 -0.000000 -0.050649 0.998717 -0.000000 -0.050649 0.998717 -0.000000 0.151428 0.988468 0.000000 0.151428 0.988468 0.000000 0.347305 0.937752 0.000000 0.347305 0.937752 0.000000 0.528964 0.848644 0.000000 0.528964 0.848644 0.000000 0.688967 0.724793 0.000000 0.688967 0.724793 0.000000 0.820763 0.571268 0.000000 0.820763 0.571268 0.000000 0.918958 0.394356 0.000000 0.918958 0.394356 0.000000 0.979530 0.201299 0.000000 0.979530 0.201299 0.000000 1.000000 0.000000 0.000000 1.000000 0.000000 0.000000 0.979530 -0.201299 0.000000 0.979530 -0.201299 0.000000 0.918958 -0.394356 0.000000 0.918958 -0.394356 0.000000 0.820763 -0.571268 0.000000 0.820763 -0.571268 0.000000 0.688967 -0.724793 0.000000 0.688967 -0.724793 0.000000 0.528964 -0.848644 0.000000 0.528964 -0.848644 0.000000 0.347305 -0.937752 0.000000 0.347305 -0.937752 0.000000 0.151428 -0.988468 0.000000 0.151428 -0.988468 0.000000 -0.050649 -0.998717 -0.000000 -0.050649 -0.998717 -0.000000 -0.250653 -0.968077 -0.000000 -0.250653 -0.968077 -0.000000 -0.440394 -0.897805 -0.000000 -0.440394 -0.897805 -0.000000 -0.612106 -0.790776 -0.000000 -0.612106 -0.790776 -0.000000 -0.758758 -0.651372 -0.000000 -0.758758 -0.651372 -0.000000 -0.874347 -0.485302 -0.000000 -0.874347 -0.485302 -0.000000 -0.954139 -0.299363 -0.000000 -0.954139 -0.299363 -0.000000 -0.994869 -0.101168 -0.000000 -0.994869 -0.101168 -0.000000 -0.994869 0.101168 -0.000000 -0.994869 0.101168 -0.000000 -0.954139 0.299363 -0.000000 -0.954139 0.299363 -0.000000 -0.874347 0.485302 -0.000000 -0.874347 0.485302 -0.000000 -0.758758 0.651372 -0.000000 -0.758758 0.651372 -0.000000 -0.612106 0.790776 -0.000000 -0.612106 0.790776 -0.000000 -0.440394 0.897805 -0.000000 -0.440394 0.897805 -0.000000 -0.250653 0.968077 -0.000000 -0.250653 0.968077 -0.000000 -0.050649 0.998717 -0.000000 -0.050649 0.998717 -0.000000 0.151428 0.988468 0.000000 0.151428 0.988468 0.000000 0.347305 0.937752 0.000000 0.347305 0.937752 0.000000 0.528964 0.848644 0.000000 0.528964 0.848644 0.000000 0.688967 0.724793 0.000000 0.688967 0.724793 0.000000 0.820763 0.571268 0.000000 0.820763 0.571268 0.000000 0.918958 0.394356 0.000000 0.918958 0.394356 0.000000 -0.000000 1.000000 -0.000000 0.000000 1.000000 0.000000 0.130526 0.991445 0.000000 0.130526 0.991445 0.000000 0.258819 0.965926 0.000000 0.258819 0.965926 0.000000 0.382683 0.923880 0.000000 0.382683 0.923880 0.000000 0.500000 0.866025 0.000000 0.500000 0.866025 0.000000 0.608761 0.793353 0.000000 0.608761 0.793353 0.000000 0.707107 0.707107 0.000000 0.707107 0.707107 0.000000 0.793353 0.608761 0.000000 0.793353 0.608761 0.000000 0.866025 0.500000 0.000000 0.866025 0.500000 0.000000 0.923880 0.382683 0.000000 0.923880 0.382683 0.000000 0.965926 0.258819 0.000000 0.965926 0.258819 0.000000 0.991445 0.130526 0.000000 0.991445 0.130526 0.000000 1.000000 -0.000000 0.000000 1.000000 -0.000000 0.000000 0.991445 -0.130526 0.000000 0.991445 -0.130526 0.000000 0.965926 -0.258819 0.000000 0.965926 -0.258819 0.000000 0.923880 -0.382683 0.000000 0.923880 -0.382683 0.000000 0.866025 -0.500000 0.000000 0.866025 -0.500000 0.000000 0.793353 -0.608761 0.000000 0.793353 -0.608761 0.000000 0.707107 -0.707107 0.000000 0.707107 -0.707107 0.000000 0.608761 -0.793353 0.000000 0.608761 -0.793353 0.000000 0.500000 -0.866025 0.000000 0.500000 -0.866025 0.000000 0.382683 -0.923880 0.000000 0.382683 -0.923880 0.000000 0.258819 -0.965926 0.000000 0.258819 -0.965926 0.000000 0.130526 -0.991445 0.000000 0.130526 -0.991445 0.000000 -0.000000 -1.000000 -0.000000 -0.000000 -1.000000 -0.000000 -0.121016 0.992651 0.000000 -0.122484 0.992471 0.000000 -0.121016 0.992651 0.000000 -0.122484 0.992471 0.000000 -0.123950 0.992288 0.000000 -0.123950 0.992288 0.000000 -0.125415 0.992104 0.000000 -0.125415 0.992104 0.000000 0.121016 0.992651 0.000000 0.107949 0.994156 0.000000 0.121016 0.992651 0.000000 0.107949 0.994156 0.000000 0.094530 0.995522 0.000000 0.094530 0.995522 0.000000 0.080564 0.996749 0.000000 0.080564 0.996749 0.000000 0.065901 0.997826 0.000000 0.065901 0.997826 0.000000 0.050453 0.998726 0.000000 0.050453 0.998726 0.000000 0.034220 0.999414 0.000000 0.034220 0.999414 0.000000 0.017317 0.999850 0.000000 0.017317 0.999850 0.000000 0.000000 1.000000 0.000000 0.000000 1.000000 0.000000 -0.017317 0.999850 0.000000 -0.017317 0.999850 0.000000 -0.034220 0.999414 0.000000 -0.034220 0.999414 0.000000 -0.050453 0.998726 0.000000 -0.050453 0.998726 0.000000 -0.065901 0.997826 0.000000 -0.065901 0.997826 0.000000 -0.080564 0.996749 0.000000 -0.080564 0.996749 0.000000 -0.094530 0.995522 0.000000 -0.094530 0.995522 0.000000 -0.107949 0.994156 0.000000 -0.107949 0.994156 0.000000 0.125415 0.992104 0.000000 0.123950 0.992288 0.000000 0.125415 0.992104 0.000000 0.123950 0.992288 0.000000 0.122484 0.992471 0.000000 0.122484 0.992471 0.000000 0.121016 0.992651 0.000000 0.121016 0.992651 0.000000 -0.000000 -1.000000 -0.000000 -0.000000 -1.000000 -0.000000 -0.130526 -0.991445 -0.000000 -0.130526 -0.991445 -0.000000 -0.258819 -0.965926 -0.000000 -0.258819 -0.965926 -0.000000 -0.382683 -0.923880 -0.000000 -0.382683 -0.923880 -0.000000 -0.500000 -0.866025 -0.000000 -0.500000 -0.866025 -0.000000 -0.608761 -0.793353 -0.000000 -0.608761 -0.793353 -0.000000 -0.707107 -0.707107 -0.000000 -0.707107 -0.707107 -0.000000 -0.793353 -0.608761 -0.000000 -0.793353 -0.608761 -0.000000 -0.866025 -0.500000 -0.000000 -0.866025 -0.500000 -0.000000 -0.923880 -0.382683 -0.000000 -0.923880 -0.382683 -0.000000 -0.965926 -0.258819 -0.000000 -0.965926 -0.258819 -0.000000 -0.991445 -0.130526 -0.000000 -0.991445 -0.130526 -0.000000 -1.000000 -0.000000 -0.000000 -1.000000 0.000000 -0.000000 -0.991445 0.130526 -0.000000 -0.991445 0.130526 -0.000000 -0.965926 0.258819 -0.000000 -0.965926 0.258819 -0.000000 -0.923880 0.382683 -0.000000 -0.923880 0.382683 -0.000000 -0.866025 0.500000 -0.000000 -0.866025 0.500000 -0.000000 -0.793353 0.608761 -0.000000 -0.793353 0.608761 -0.000000 -0.707107 0.707107 -0.000000 -0.707107 0.707107 -0.000000 -0.608761 0.793353 -0.000000 -0.608761 0.793353 -0.000000 -0.500000 0.866025 -0.000000 -0.500000 0.866025 -0.000000 -0.382683 0.923880 -0.000000 -0.382683 0.923880 -0.000000 -0.258819 0.965926 -0.000000 -0.258819 0.965926 -0.000000 -0.130526 0.991445 -0.000000 -0.130526 0.991445 -0.000000 -0.000000 1.000000 -0.000000 -0.000000 1.000000 0.000000 0.121016 -0.992651 0.000000 0.122484 -0.992471 0.000000 0.121016 -0.992651 0.000000 0.122484 -0.992471 0.000000 0.123950 -0.992288 0.000000 0.123950 -0.992288 0.000000 0.125415 -0.992104 0.000000 0.125415 -0.992104 0.000000 -0.121016 -0.992651 -0.000000 -0.107949 -0.994156 -0.000000 -0.121016 -0.992651 -0.000000 -0.107949 -0.994156 -0.000000 -0.094530 -0.995522 -0.000000 -0.094530 -0.995522 -0.000000 -0.080564 -0.996749 -0.000000 -0.080564 -0.996749 -0.000000 -0.065901 -0.997826 -0.000000 -0.065901 -0.997826 -0.000000 -0.050453 -0.998726 -0.000000 -0.050453 -0.998726 -0.000000 -0.034220 -0.999414 -0.000000 -0.034220 -0.999414 -0.000000 -0.017317 -0.999850 -0.000000 -0.017317 -0.999850 -0.000000 0.000000 -1.000000 0.000000 0.000000 -1.000000 0.000000 0.017317 -0.999850 0.000000 0.017317 -0.999850 0.000000 0.034220 -0.999414 0.000000 0.034220 -0.999414 0.000000 0.050453 -0.998726 0.000000 0.050453 -0.998726 0.000000 0.065901 -0.997826 0.000000 0.065901 -0.997826 0.000000 0.080564 -0.996749 0.000000 0.080564 -0.996749 0.000000 0.094530 -0.995522 0.000000 0.094530 -0.995522 0.000000 0.107949 -0.994156 0.000000 0.107949 -0.994156 0.000000 0.121016 -0.992651 0.000000 0.121016 -0.992651 0.000000 -0.125415 -0.992104 -0.000000 -0.123950 -0.992288 -0.000000 -0.125415 -0.992104 -0.000000 -0.123950 -0.992288 -0.000000 -0.122484 -0.992471 -0.000000 -0.122484 -0.992471 -0.000000 -0.121016 -0.992651 -0.000000 -0.121016 -0.992651 -0.000000 0.000000 0.000000 -1.000000 0.000000 0.000000 -1.000000 0.000000 0.000000 -1.000000 0.000000 0.000000 -1.000000 0.000000 0.000000 -1.000000 0.000000 0.000000 -1.000000 0.000000 0.000000 -1.000000 0.000000 0.000000 -1.000000 0.000000 0.000000 -1.000000 0.000000 0.000000 -1.000000 0.000000 0.000000 -1.000000 0.000000 0.000000 -1.000000 0.000000 0.000000 -1.000000 0.000000 0.000000 -1.000000 0.000000 0.000000 -1.000000 0.000000 0.000000 -1.000000 0.000000 0.000000 -1.000000 0.000000 0.000000 -1.000000 0.000000 0.000000 -1.000000 0.000000 0.000000 -1.000000 0.000000 0.000000 -1.000000 0.000000 0.000000 -1.000000 0.000000 0.000000 -1.000000 0.000000 0.000000 -1.000000 0.000000 0.000000 -1.000000 0.000000 0.000000 -1.000000 0.000000 0.000000 -1.000000 0.000000 0.000000 -1.000000 0.000000 0.000000 -1.000000 0.000000 0.000000 -1.000000 0.000000 0.000000 -1.000000 0.000000 0.000000 -1.000000 0.000000 0.000000 -1.000000 0.000000 0.000000 -1.000000 0.000000 0.000000 -1.000000 0.000000 0.000000 -1.000000 0.000000 0.000000 -1.000000 0.000000 0.000000 -1.000000 0.000000 0.000000 -1.000000 0.000000 0.000000 -1.000000 0.000000 0.000000 -1.000000 0.000000 0.000000 -1.000000 0.000000 0.000000 -1.000000 0.000000 0.000000 -1.000000 0.000000 0.000000 -1.000000 0.000000 0.000000 -1.000000 0.000000 0.000000 -1.000000 0.000000 0.000000 -1.000000 0.000000 0.000000 -1.000000 0.000000 0.000000 -1.000000 0.000000 0.000000 -1.000000 0.000000 0.000000 -1.000000 0.000000 0.000000 -1.000000 0.000000 0.000000 -1.000000 0.000000 0.000000 -1.000000 0.000000 0.000000 -1.000000 0.000000 0.000000 -1.000000 0.000000 0.000000 -1.000000 0.000000 0.000000 -1.000000 0.000000 0.000000 -1.000000 0.000000 0.000000 -1.000000 0.000000 0.000000 -1.000000 0.000000 0.000000 -1.000000 0.000000 0.000000 -1.000000 0.000000 0.000000 -1.000000 0.000000 0.000000 -1.000000 0.000000 0.000000 -1.000000 0.000000 0.000000 -1.000000 0.000000 0.000000 -1.000000 0.000000 0.000000 -1.000000 0.000000 0.000000 -1.000000 0.000000 0.000000 -1.000000 0.000000 0.000000 -1.000000 0.000000 0.000000 -1.000000 0.000000 0.000000 -1.000000 0.000000 0.000000 -1.000000 0.000000 0.000000 -1.000000 0.000000 0.000000 -1.000000 0.000000 0.000000 -1.000000 0.000000 0.000000 -1.000000 0.000000 0.000000 -1.000000 0.000000 0.000000 -1.000000 0.000000 0.000000 -1.000000 0.000000 0.000000 -1.000000 0.000000 0.000000 -1.000000 0.000000 0.000000 -1.000000 0.000000 0.000000 -1.000000 0.000000 0.000000 -1.000000 0.000000 0.000000 -1.000000 0.000000 0.000000 -1.000000 0.000000 0.000000 -1.000000 0.000000 0.000000 -1.000000 0.000000 0.000000 -1.000000 0.000000 0.000000 -1.000000 0.000000 0.000000 -1.000000 0.000000 0.000000 -1.000000 0.000000 0.000000 -1.000000 0.000000 0.000000 -1.000000 0.000000 0.000000 -1.000000 0.000000 0.000000 -1.000000 0.000000 0.000000 -1.000000 0.000000 0.000000 -1.000000 0.000000 0.000000 -1.000000 0.000000 0.000000 -1.000000 0.000000 0.000000 -1.000000 0.000000 0.000000 -1.000000 0.000000 0.000000 -1.000000 0.000000 0.000000 -1.000000 0.000000 0.000000 -1.000000 0.000000 0.000000 -1.000000 0.000000 0.000000 -1.000000 0.000000 0.000000 -1.000000 0.000000 0.000000 -1.000000 0.000000 0.000000 -1.000000 0.000000 0.000000 -1.000000 0.000000 0.000000 -1.000000 0.000000 0.000000 -1.000000 0.000000 0.000000 -1.000000 0.000000 0.000000 -1.000000 0.000000 0.000000 -1.000000 0.000000 0.000000 -1.000000 0.000000 0.000000 -1.000000 0.000000 0.000000 -1.000000 0.000000 0.000000 -1.000000 0.000000 0.000000 -1.000000 0.000000 0.000000 -1.000000 0.000000 0.000000 -1.000000 0.000000 0.000000 -1.000000 0.000000 0.000000 -1.000000 0.000000 0.000000 -1.000000 0.000000 0.000000 -1.000000 0.000000 0.000000 -1.000000 0.000000 0.000000 -1.000000 0.000000 0.000000 -1.000000 0.000000 0.000000 -1.000000 0.000000 0.000000 -1.000000 0.000000 0.000000 -1.000000 0.000000 0.000000 -1.000000 0.000000 0.000000 -1.000000 0.000000 0.000000 -1.000000 0.000000 0.000000 -1.000000 0.000000 0.000000 -1.000000 0.000000 0.000000 -1.000000 0.000000 0.000000 -1.000000 0.000000 0.000000 -1.000000 0.000000 0.000000 -1.000000 0.000000 0.000000 -1.000000 0.000000 0.000000 -1.000000 0.000000 0.000000 -1.000000 0.000000 0.000000 -1.000000 0.000000 0.000000 -1.000000 0.000000 0.000000 -1.000000 0.000000 0.000000 -1.000000 0.000000 0.000000 -1.000000 -0.000000 -0.000000 1.000000 -0.000000 -0.000000 1.000000 -0.000000 -0.000000 1.000000 -0.000000 -0.000000 1.000000 -0.000000 -0.000000 1.000000 -0.000000 -0.000000 1.000000 -0.000000 -0.000000 1.000000 -0.000000 -0.000000 1.000000 -0.000000 -0.000000 1.000000 -0.000000 -0.000000 1.000000 -0.000000 -0.000000 1.000000 -0.000000 -0.000000 1.000000 -0.000000 -0.000000 1.000000 -0.000000 -0.000000 1.000000 -0.000000 -0.000000 1.000000 -0.000000 -0.000000 1.000000 -0.000000 -0.000000 1.000000 -0.000000 -0.000000 1.000000 -0.000000 -0.000000 1.000000 -0.000000 -0.000000 1.000000 -0.000000 -0.000000 1.000000 -0.000000 -0.000000 1.000000 -0.000000 -0.000000 1.000000 -0.000000 -0.000000 1.000000 -0.000000 -0.000000 1.000000 -0.000000 -0.000000 1.000000 -0.000000 -0.000000 1.000000 -0.000000 -0.000000 1.000000 -0.000000 -0.000000 1.000000 -0.000000 -0.000000 1.000000 -0.000000 -0.000000 1.000000 -0.000000 -0.000000 1.000000 -0.000000 -0.000000 1.000000 -0.000000 -0.000000 1.000000 -0.000000 -0.000000 1.000000 -0.000000 -0.000000 1.000000 -0.000000 -0.000000 1.000000 -0.000000 -0.000000 1.000000 -0.000000 -0.000000 1.000000 -0.000000 -0.000000 1.000000 -0.000000 -0.000000 1.000000 -0.000000 -0.000000 1.000000 -0.000000 -0.000000 1.000000 -0.000000 -0.000000 1.000000 -0.000000 -0.000000 1.000000 -0.000000 -0.000000 1.000000 -0.000000 -0.000000 1.000000 -0.000000 -0.000000 1.000000 -0.000000 -0.000000 1.000000 -0.000000 -0.000000 1.000000 -0.000000 -0.000000 1.000000 -0.000000 -0.000000 1.000000 -0.000000 -0.000000 1.000000 -0.000000 -0.000000 1.000000 -0.000000 -0.000000 1.000000 -0.000000 -0.000000 1.000000 -0.000000 -0.000000 1.000000 -0.000000 -0.000000 1.000000 -0.000000 -0.000000 1.000000 -0.000000 -0.000000 1.000000 -0.000000 -0.000000 1.000000 -0.000000 -0.000000 1.000000 -0.000000 -0.000000 1.000000 -0.000000 -0.000000 1.000000 -0.000000 -0.000000 1.000000 -0.000000 -0.000000 1.000000 -0.000000 -0.000000 1.000000 -0.000000 -0.000000 1.000000 -0.000000 -0.000000 1.000000 -0.000000 -0.000000 1.000000 -0.000000 -0.000000 1.000000 -0.000000 -0.000000 1.000000 -0.000000 -0.000000 1.000000 -0.000000 -0.000000 1.000000 -0.000000 -0.000000 1.000000 -0.000000 -0.000000 1.000000 -0.000000 -0.000000 1.000000 -0.000000 -0.000000 1.000000 -0.000000 -0.000000 1.000000 -0.000000 -0.000000 1.000000 -0.000000 -0.000000 1.000000 -0.000000 -0.000000 1.000000 -0.000000 -0.000000 1.000000 -0.000000 -0.000000 1.000000 -0.000000 -0.000000 1.000000 -0.000000 -0.000000 1.000000 -0.000000 -0.000000 1.000000 -0.000000 -0.000000 1.000000 -0.000000 -0.000000 1.000000 -0.000000 -0.000000 1.000000 -0.000000 -0.000000 1.000000 -0.000000 -0.000000 1.000000 -0.000000 -0.000000 1.000000 -0.000000 -0.000000 1.000000 -0.000000 -0.000000 1.000000 -0.000000 -0.000000 1.000000 -0.000000 -0.000000 1.000000 -0.000000 -0.000000 1.000000 -0.000000 -0.000000 1.000000 -0.000000 -0.000000 1.000000 -0.000000 -0.000000 1.000000 -0.000000 -0.000000 1.000000 -0.000000 -0.000000 1.000000 -0.000000 -0.000000 1.000000 -0.000000 -0.000000 1.000000 -0.000000 -0.000000 1.000000 -0.000000 -0.000000 1.000000 -0.000000 -0.000000 1.000000 -0.000000 -0.000000 1.000000 -0.000000 -0.000000 1.000000 -0.000000 -0.000000 1.000000 -0.000000 -0.000000 1.000000 -0.000000 -0.000000 1.000000 -0.000000 -0.000000 1.000000 -0.000000 -0.000000 1.000000 -0.000000 -0.000000 1.000000 -0.000000 -0.000000 1.000000 -0.000000 -0.000000 1.000000 -0.000000 -0.000000 1.000000 -0.000000 -0.000000 1.000000 -0.000000 -0.000000 1.000000 -0.000000 -0.000000 1.000000 -0.000000 -0.000000 1.000000 -0.000000 -0.000000 1.000000 -0.000000 -0.000000 1.000000 -0.000000 -0.000000 1.000000 -0.000000 -0.000000 1.000000 -0.000000 -0.000000 1.000000 -0.000000 -0.000000 1.000000 -0.000000 -0.000000 1.000000 -0.000000 -0.000000 1.000000 -0.000000 -0.000000 1.000000 -0.000000 -0.000000 1.000000 -0.000000 -0.000000 1.000000 -0.000000 -0.000000 1.000000 -0.000000 -0.000000 1.000000 -0.000000 -0.000000 1.000000 -0.000000 -0.000000 1.000000 -0.000000 -0.000000 1.000000 -0.000000 -0.000000 1.000000 -0.000000 -0.000000 1.000000 -0.000000 -0.000000 1.000000 -0.000000 -0.000000 1.000000 -0.000000 -0.000000 1.000000 -0.000000 -0.000000 1.000000 -0.000000 -0.000000 1.000000 -0.000000 -0.000000 1.000000 -0.000000 -0.000000 1.000000 -0.000000 -0.000000 1.000000 -0.000000 -0.000000 1.000000 -0.000000 -0.000000 1.000000 -0.000000 -0.000000 1.000000 -0.000000 -0.000000 1.000000 -0.000000 -0.000000 1.000000 0.979530 0.201299 0.000000 0.979530 0.201299 0.000000 1.000000 0.000000 0.000000 1.000000 0.000000 0.000000 0.979530 -0.201299 0.000000 0.979530 -0.201299 0.000000 0.918958 -0.394356 0.000000 0.918958 -0.394356 0.000000 0.820763 -0.571268 0.000000 0.820763 -0.571268 0.000000 0.688967 -0.724793 0.000000 0.688967 -0.724793 0.000000 0.528964 -0.848644 0.000000 0.528964 -0.848644 0.000000 0.347305 -0.937752 0.000000 0.347305 -0.937752 0.000000 0.151428 -0.988468 0.000000 0.151428 -0.988468 0.000000 -0.050649 -0.998717 -0.000000 -0.050649 -0.998717 -0.000000 -0.250653 -0.968077 -0.000000 -0.250653 -0.968077 -0.000000 -0.440394 -0.897805 -0.000000 -0.440394 -0.897805 -0.000000 -0.612106 -0.790776 -0.000000 -0.612106 -0.790776 -0.000000 -0.758758 -0.651372 -0.000000 -0.758758 -0.651372 -0.000000 -0.874347 -0.485302 -0.000000 -0.874347 -0.485302 -0.000000 -0.954139 -0.299363 -0.000000 -0.954139 -0.299363 -0.000000 -0.994869 -0.101168 -0.000000 -0.994869 -0.101168 -0.000000 -0.994869 0.101168 -0.000000 -0.994869 0.101168 -0.000000 -0.954139 0.299363 -0.000000 -0.954139 0.299363 -0.000000 -0.874347 0.485302 -0.000000 -0.874347 0.485302 -0.000000 -0.758758 0.651372 -0.000000 -0.758758 0.651372 -0.000000 -0.612106 0.790776 -0.000000 -0.612106 0.790776 -0.000000 -0.440394 0.897805 -0.000000 -0.440394 0.897805 -0.000000 -0.250653 0.968077 -0.000000 -0.250653 0.968077 -0.000000 -0.050649 0.998717 -0.000000 -0.050649 0.998717 -0.000000 0.151428 0.988468 0.000000 0.151428 0.988468 0.000000 0.347305 0.937752 0.000000 0.347305 0.937752 0.000000 0.528964 0.848644 0.000000 0.528964 0.848644 0.000000 0.688967 0.724793 0.000000 0.688967 0.724793 0.000000 0.820763 0.571268 0.000000 0.820763 0.571268 0.000000 0.918958 0.394356 0.000000 0.918958 0.394356 0.000000 0.979530 0.201299 0.000000 0.979530 0.201299 0.000000 1.000000 0.000000 0.000000 1.000000 0.000000 0.000000 0.979530 -0.201299 0.000000 0.979530 -0.201299 0.000000 0.918958 -0.394356 0.000000 0.918958 -0.394356 0.000000 0.820763 -0.571268 0.000000 0.820763 -0.571268 0.000000 0.688967 -0.724793 0.000000 0.688967 -0.724793 0.000000 0.528964 -0.848644 0.000000 0.528964 -0.848644 0.000000 0.347305 -0.937752 0.000000 0.347305 -0.937752 0.000000 0.151428 -0.988468 0.000000 0.151428 -0.988468 0.000000 -0.050649 -0.998717 -0.000000 -0.050649 -0.998717 -0.000000 -0.250653 -0.968077 -0.000000 -0.250653 -0.968077 -0.000000 -0.440394 -0.897805 -0.000000 -0.440394 -0.897805 -0.000000 -0.612106 -0.790776 -0.000000 -0.612106 -0.790776 -0.000000 -0.758758 -0.651372 -0.000000 -0.758758 -0.651372 -0.000000 -0.874347 -0.485302 -0.000000 -0.874347 -0.485302 -0.000000 -0.954139 -0.299363 -0.000000 -0.954139 -0.299363 -0.000000 -0.994869 -0.101168 -0.000000 -0.994869 -0.101168 -0.000000 -0.994869 0.101168 -0.000000 -0.994869 0.101168 -0.000000 -0.954139 0.299363 -0.000000 -0.954139 0.299363 -0.000000 -0.874347 0.485302 -0.000000 -0.874347 0.485302 -0.000000 -0.758758 0.651372 -0.000000 -0.758758 0.651372 -0.000000 -0.612106 0.790776 -0.000000 -0.612106 0.790776 -0.000000 -0.440394 0.897805 -0.000000 -0.440394 0.897805 -0.000000 -0.250653 0.968077 -0.000000 -0.250653 0.968077 -0.000000 -0.050649 0.998717 -0.000000 -0.050649 0.998717 -0.000000 0.151428 0.988468 0.000000 0.151428 0.988468 0.000000 0.347305 0.937752 0.000000 0.347305 0.937752 0.000000 0.528964 0.848644 0.000000 0.528964 0.848644 0.000000 0.688967 0.724793 0.000000 0.688967 0.724793 0.000000 0.820763 0.571268 0.000000 0.820763 0.571268 0.000000 0.918958 0.394356 0.000000 0.918958 0.394356 0.000000 -0.000000 1.000000 -0.000000 0.000000 1.000000 0.000000 0.130526 0.991445 0.000000 0.130526 0.991445 0.000000 0.258819 0.965926 0.000000 0.258819 0.965926 0.000000 0.382683 0.923880 0.000000 0.382683 0.923880 0.000000 0.500000 0.866025 0.000000 0.500000 0.866025 0.000000 0.608761 0.793353 0.000000 0.608761 0.793353 0.000000 0.707107 0.707107 0.000000 0.707107 0.707107 0.000000 0.793353 0.608761 0.000000 0.793353 0.608761 0.000000 0.866025 0.500000 0.000000 0.866025 0.500000 0.000000 0.923880 0.382683 0.000000 0.923880 0.382683 0.000000 0.965926 0.258819 0.000000 0.965926 0.258819 0.000000 0.991445 0.130526 0.000000 0.991445 0.130526 0.000000 1.000000 -0.000000 0.000000 1.000000 -0.000000 0.000000 0.991445 -0.130526 0.000000 0.991445 -0.130526 0.000000 0.965926 -0.258819 0.000000 0.965926 -0.258819 0.000000 0.923880 -0.382683 0.000000 0.923880 -0.382683 0.000000 0.866025 -0.500000 0.000000 0.866025 -0.500000 0.000000 0.793353 -0.608761 0.000000 0.793353 -0.608761 0.000000 0.707107 -0.707107 0.000000 0.707107 -0.707107 0.000000 0.608761 -0.793353 0.000000 0.608761 -0.793353 0.000000 0.500000 -0.866025 0.000000 0.500000 -0.866025 0.000000 0.382683 -0.923880 0.000000 0.382683 -0.923880 0.000000 0.258819 -0.965926 0.000000 0.258819 -0.965926 0.000000 0.130526 -0.991445 0.000000 0.130526 -0.991445 0.000000 -0.000000 -1.000000 -0.000000 -0.000000 -1.000000 -0.000000 -0.121016 0.992651 0.000000 -0.122484 0.992471 0.000000 -0.121016 0.992651 0.000000 -0.122484 0.992471 0.000000 -0.123950 0.992288 0.000000 -0.123950 0.992288 0.000000 -0.125415 0.992104 0.000000 -0.125415 0.992104 0.000000 0.121016 0.992651 0.000000 0.107949 0.994156 0.000000 0.121016 0.992651 0.000000 0.107949 0.994156 0.000000 0.094530 0.995522 0.000000 0.094530 0.995522 0.000000 0.080564 0.996749 0.000000 0.080564 0.996749 0.000000 0.065901 0.997826 0.000000 0.065901 0.997826 0.000000 0.050453 0.998726 0.000000 0.050453 0.998726 0.000000 0.034220 0.999414 0.000000 0.034220 0.999414 0.000000 0.017317 0.999850 0.000000 0.017317 0.999850 0.000000 0.000000 1.000000 0.000000 0.000000 1.000000 0.000000 -0.017317 0.999850 0.000000 -0.017317 0.999850 0.000000 -0.034220 0.999414 0.000000 -0.034220 0.999414 0.000000 -0.050453 0.998726 0.000000 -0.050453 0.998726 0.000000 -0.065901 0.997826 0.000000 -0.065901 0.997826 0.000000 -0.080564 0.996749 0.000000 -0.080564 0.996749 0.000000 -0.094530 0.995522 0.000000 -0.094530 0.995522 0.000000 -0.107949 0.994156 0.000000 -0.107949 0.994156 0.000000 -0.121016 0.992651 0.000000 -0.121016 0.992651 0.000000 0.125415 0.992104 0.000000 0.123950 0.992288 0.000000 0.125415 0.992104 0.000000 0.123950 0.992288 0.000000 0.122484 0.992471 0.000000 0.122484 0.992471 0.000000 0.121016 0.992651 0.000000 0.121016 0.992651 0.000000 -0.000000 -1.000000 -0.000000 -0.000000 -1.000000 -0.000000 -0.130526 -0.991445 -0.000000 -0.130526 -0.991445 -0.000000 -0.258819 -0.965926 -0.000000 -0.258819 -0.965926 -0.000000 -0.382683 -0.923880 -0.000000 -0.382683 -0.923880 -0.000000 -0.500000 -0.866025 -0.000000 -0.500000 -0.866025 -0.000000 -0.608761 -0.793353 -0.000000 -0.608761 -0.793353 -0.000000 -0.707107 -0.707107 -0.000000 -0.707107 -0.707107 -0.000000 -0.793353 -0.608761 -0.000000 -0.793353 -0.608761 -0.000000 -0.866025 -0.500000 -0.000000 -0.866025 -0.500000 -0.000000 -0.923880 -0.382683 -0.000000 -0.923880 -0.382683 -0.000000 -0.965926 -0.258819 -0.000000 -0.965926 -0.258819 -0.000000 -0.991445 -0.130526 -0.000000 -0.991445 -0.130526 -0.000000 -1.000000 -0.000000 -0.000000 -1.000000 0.000000 -0.000000 -0.991445 0.130526 -0.000000 -0.991445 0.130526 -0.000000 -0.965926 0.258819 -0.000000 -0.965926 0.258819 -0.000000 -0.923880 0.382683 -0.000000 -0.923880 0.382683 -0.000000 -0.866025 0.500000 -0.000000 -0.866025 0.500000 -0.000000 -0.793353 0.608761 -0.000000 -0.793353 0.608761 -0.000000 -0.707107 0.707107 -0.000000 -0.707107 0.707107 -0.000000 -0.608761 0.793353 -0.000000 -0.608761 0.793353 -0.000000 -0.500000 0.866025 -0.000000 -0.500000 0.866025 -0.000000 -0.382683 0.923880 -0.000000 -0.382683 0.923880 -0.000000 -0.258819 0.965926 -0.000000 -0.258819 0.965926 -0.000000 -0.130526 0.991445 -0.000000 -0.130526 0.991445 -0.000000 -0.000000 1.000000 -0.000000 -0.000000 1.000000 0.000000 0.121016 -0.992651 0.000000 0.122484 -0.992471 0.000000 0.121016 -0.992651 0.000000 0.122484 -0.992471 0.000000 0.123950 -0.992288 0.000000 0.123950 -0.992288 0.000000 0.125415 -0.992104 0.000000 0.125415 -0.992104 0.000000 -0.121016 -0.992651 -0.000000 -0.107949 -0.994156 -0.000000 -0.121016 -0.992651 -0.000000 -0.107949 -0.994156 -0.000000 -0.094530 -0.995522 -0.000000 -0.094530 -0.995522 -0.000000 -0.080564 -0.996749 -0.000000 -0.080564 -0.996749 -0.000000 -0.065901 -0.997826 -0.000000 -0.065901 -0.997826 -0.000000 -0.050453 -0.998726 -0.000000 -0.050453 -0.998726 -0.000000 -0.034220 -0.999414 -0.000000 -0.034220 -0.999414 -0.000000 -0.017317 -0.999850 -0.000000 -0.017317 -0.999850 -0.000000 0.000000 -1.000000 0.000000 0.000000 -1.000000 0.000000 0.017317 -0.999850 0.000000 0.017317 -0.999850 0.000000 0.034220 -0.999414 0.000000 0.034220 -0.999414 0.000000 0.050453 -0.998726 0.000000 0.050453 -0.998726 0.000000 0.065901 -0.997826 0.000000 0.065901 -0.997826 0.000000 0.080564 -0.996749 0.000000 0.080564 -0.996749 0.000000 0.094530 -0.995522 0.000000 0.094530 -0.995522 0.000000 0.107949 -0.994156 0.000000 0.107949 -0.994156 0.000000 0.121016 -0.992651 0.000000 0.121016 -0.992651 0.000000 -0.125415 -0.992104 -0.000000 -0.123950 -0.992288 -0.000000 -0.125415 -0.992104 -0.000000 -0.123950 -0.992288 -0.000000 -0.122484 -0.992471 -0.000000 -0.122484 -0.992471 -0.000000 -0.121016 -0.992651 -0.000000 -0.121016 -0.992651 -0.000000 0.000000 0.000000 -1.000000 0.000000 0.000000 -1.000000 0.000000 0.000000 -1.000000 0.000000 0.000000 -1.000000 0.000000 0.000000 -1.000000 0.000000 0.000000 -1.000000 0.000000 0.000000 -1.000000 0.000000 0.000000 -1.000000 0.000000 0.000000 -1.000000 0.000000 0.000000 -1.000000 0.000000 0.000000 -1.000000 0.000000 0.000000 -1.000000 0.000000 0.000000 -1.000000 0.000000 0.000000 -1.000000 0.000000 0.000000 -1.000000 0.000000 0.000000 -1.000000 0.000000 0.000000 -1.000000 0.000000 0.000000 -1.000000 0.000000 0.000000 -1.000000 0.000000 0.000000 -1.000000 0.000000 0.000000 -1.000000 0.000000 0.000000 -1.000000 0.000000 0.000000 -1.000000 0.000000 0.000000 -1.000000 0.000000 0.000000 -1.000000 0.000000 0.000000 -1.000000 0.000000 0.000000 -1.000000 0.000000 0.000000 -1.000000 0.000000 0.000000 -1.000000 0.000000 0.000000 -1.000000 0.000000 0.000000 -1.000000 0.000000 0.000000 -1.000000 0.000000 0.000000 -1.000000 0.000000 0.000000 -1.000000 0.000000 0.000000 -1.000000 0.000000 0.000000 -1.000000 0.000000 0.000000 -1.000000 0.000000 0.000000 -1.000000 0.000000 0.000000 -1.000000 0.000000 0.000000 -1.000000 0.000000 0.000000 -1.000000 0.000000 0.000000 -1.000000 0.000000 0.000000 -1.000000 0.000000 0.000000 -1.000000 0.000000 0.000000 -1.000000 0.000000 0.000000 -1.000000 0.000000 0.000000 -1.000000 0.000000 0.000000 -1.000000 0.000000 0.000000 -1.000000 0.000000 0.000000 -1.000000 0.000000 0.000000 -1.000000 0.000000 0.000000 -1.000000 0.000000 0.000000 -1.000000 0.000000 0.000000 -1.000000 0.000000 0.000000 -1.000000 0.000000 0.000000 -1.000000 0.000000 0.000000 -1.000000 0.000000 0.000000 -1.000000 0.000000 0.000000 -1.000000 0.000000 0.000000 -1.000000 0.000000 0.000000 -1.000000 0.000000 0.000000 -1.000000 0.000000 0.000000 -1.000000 0.000000 0.000000 -1.000000 0.000000 0.000000 -1.000000 0.000000 0.000000 -1.000000 0.000000 0.000000 -1.000000 0.000000 0.000000 -1.000000 0.000000 0.000000 -1.000000 0.000000 0.000000 -1.000000 0.000000 0.000000 -1.000000 0.000000 0.000000 -1.000000 0.000000 0.000000 -1.000000 0.000000 0.000000 -1.000000 0.000000 0.000000 -1.000000 0.000000 0.000000 -1.000000 0.000000 0.000000 -1.000000 0.000000 0.000000 -1.000000 0.000000 0.000000 -1.000000 0.000000 0.000000 -1.000000 0.000000 0.000000 -1.000000 0.000000 0.000000 -1.000000 0.000000 0.000000 -1.000000 0.000000 0.000000 -1.000000 0.000000 0.000000 -1.000000 0.000000 0.000000 -1.000000 0.000000 0.000000 -1.000000 0.000000 0.000000 -1.000000 0.000000 0.000000 -1.000000 0.000000 0.000000 -1.000000 0.000000 0.000000 -1.000000 0.000000 0.000000 -1.000000 0.000000 0.000000 -1.000000 0.000000 0.000000 -1.000000 0.000000 0.000000 -1.000000 0.000000 0.000000 -1.000000 0.000000 0.000000 -1.000000 0.000000 0.000000 -1.000000 0.000000 0.000000 -1.000000 0.000000 0.000000 -1.000000 0.000000 0.000000 -1.000000 0.000000 0.000000 -1.000000 0.000000 0.000000 -1.000000 0.000000 0.000000 -1.000000 0.000000 0.000000 -1.000000 0.000000 0.000000 -1.000000 0.000000 0.000000 -1.000000 0.000000 0.000000 -1.000000 0.000000 0.000000 -1.000000 0.000000 0.000000 -1.000000 0.000000 0.000000 -1.000000 0.000000 0.000000 -1.000000 0.000000 0.000000 -1.000000 0.000000 0.000000 -1.000000 0.000000 0.000000 -1.000000 0.000000 0.000000 -1.000000 0.000000 0.000000 -1.000000 0.000000 0.000000 -1.000000 0.000000 0.000000 -1.000000 0.000000 0.000000 -1.000000 0.000000 0.000000 -1.000000 0.000000 0.000000 -1.000000 0.000000 0.000000 -1.000000 0.000000 0.000000 -1.000000 0.000000 0.000000 -1.000000 0.000000 0.000000 -1.000000 0.000000 0.000000 -1.000000 0.000000 0.000000 -1.000000 0.000000 0.000000 -1.000000 0.000000 0.000000 -1.000000 0.000000 0.000000 -1.000000 0.000000 0.000000 -1.000000 0.000000 0.000000 -1.000000 0.000000 0.000000 -1.000000 0.000000 0.000000 -1.000000 0.000000 0.000000 -1.000000 0.000000 0.000000 -1.000000 0.000000 0.000000 -1.000000 0.000000 0.000000 -1.000000 0.000000 0.000000 -1.000000 0.000000 0.000000 -1.000000 0.000000 0.000000 -1.000000 0.000000 0.000000 -1.000000 0.000000 0.000000 -1.000000 0.000000 0.000000 -1.000000 0.000000 0.000000 -1.000000 0.000000 0.000000 -1.000000 0.000000 0.000000 -1.000000 0.000000 0.000000 -1.000000 0.000000 0.000000 -1.000000 0.000000 0.000000 -1.000000 0.000000 0.000000 -1.000000 0.000000 0.000000 -1.000000 0.000000 0.000000 -1.000000 -0.000000 -0.000000 1.000000 -0.000000 -0.000000 1.000000 -0.000000 -0.000000 1.000000 -0.000000 -0.000000 1.000000 -0.000000 -0.000000 1.000000 -0.000000 -0.000000 1.000000 -0.000000 -0.000000 1.000000 -0.000000 -0.000000 1.000000 -0.000000 -0.000000 1.000000 -0.000000 -0.000000 1.000000 -0.000000 -0.000000 1.000000 -0.000000 -0.000000 1.000000 -0.000000 -0.000000 1.000000 -0.000000 -0.000000 1.000000 -0.000000 -0.000000 1.000000 -0.000000 -0.000000 1.000000 -0.000000 -0.000000 1.000000 -0.000000 -0.000000 1.000000 -0.000000 -0.000000 1.000000 -0.000000 -0.000000 1.000000 -0.000000 -0.000000 1.000000 -0.000000 -0.000000 1.000000 -0.000000 -0.000000 1.000000 -0.000000 -0.000000 1.000000 -0.000000 -0.000000 1.000000 -0.000000 -0.000000 1.000000 -0.000000 -0.000000 1.000000 -0.000000 -0.000000 1.000000 -0.000000 -0.000000 1.000000 -0.000000 -0.000000 1.000000 -0.000000 -0.000000 1.000000 -0.000000 -0.000000 1.000000 -0.000000 -0.000000 1.000000 -0.000000 -0.000000 1.000000 -0.000000 -0.000000 1.000000 -0.000000 -0.000000 1.000000 -0.000000 -0.000000 1.000000 -0.000000 -0.000000 1.000000 -0.000000 -0.000000 1.000000 -0.000000 -0.000000 1.000000 -0.000000 -0.000000 1.000000 -0.000000 -0.000000 1.000000 -0.000000 -0.000000 1.000000 -0.000000 -0.000000 1.000000 -0.000000 -0.000000 1.000000 -0.000000 -0.000000 1.000000 -0.000000 -0.000000 1.000000 -0.000000 -0.000000 1.000000 -0.000000 -0.000000 1.000000 -0.000000 -0.000000 1.000000 -0.000000 -0.000000 1.000000 -0.000000 -0.000000 1.000000 -0.000000 -0.000000 1.000000 -0.000000 -0.000000 1.000000 -0.000000 -0.000000 1.000000 -0.000000 -0.000000 1.000000 -0.000000 -0.000000 1.000000 -0.000000 -0.000000 1.000000 -0.000000 -0.000000 1.000000 -0.000000 -0.000000 1.000000 -0.000000 -0.000000 1.000000 -0.000000 -0.000000 1.000000 -0.000000 -0.000000 1.000000 -0.000000 -0.000000 1.000000 -0.000000 -0.000000 1.000000 -0.000000 -0.000000 1.000000 -0.000000 -0.000000 1.000000 -0.000000 -0.000000 1.000000 -0.000000 -0.000000 1.000000 -0.000000 -0.000000 1.000000 -0.000000 -0.000000 1.000000 -0.000000 -0.000000 1.000000 -0.000000 -0.000000 1.000000 -0.000000 -0.000000 1.000000 -0.000000 -0.000000 1.000000 -0.000000 -0.000000 1.000000 -0.000000 -0.000000 1.000000 -0.000000 -0.000000 1.000000 -0.000000 -0.000000 1.000000 -0.000000 -0.000000 1.000000 -0.000000 -0.000000 1.000000 -0.000000 -0.000000 1.000000 -0.000000 -0.000000 1.000000 -0.000000 -0.000000 1.000000 -0.000000 -0.000000 1.000000 -0.000000 -0.000000 1.000000 -0.000000 -0.000000 1.000000 -0.000000 -0.000000 1.000000 -0.000000 -0.000000 1.000000 -0.000000 -0.000000 1.000000 -0.000000 -0.000000 1.000000 -0.000000 -0.000000 1.000000 -0.000000 -0.000000 1.000000 -0.000000 -0.000000 1.000000 -0.000000 -0.000000 1.000000 -0.000000 -0.000000 1.000000 -0.000000 -0.000000 1.000000 -0.000000 -0.000000 1.000000 -0.000000 -0.000000 1.000000 -0.000000 -0.000000 1.000000 -0.000000 -0.000000 1.000000 -0.000000 -0.000000 1.000000 -0.000000 -0.000000 1.000000 -0.000000 -0.000000 1.000000 -0.000000 -0.000000 1.000000 -0.000000 -0.000000 1.000000 -0.000000 -0.000000 1.000000 -0.000000 -0.000000 1.000000 -0.000000 -0.000000 1.000000 -0.000000 -0.000000 1.000000 -0.000000 -0.000000 1.000000 -0.000000 -0.000000 1.000000 -0.000000 -0.000000 1.000000 -0.000000 -0.000000 1.000000 -0.000000 -0.000000 1.000000 -0.000000 -0.000000 1.000000 -0.000000 -0.000000 1.000000 -0.000000 -0.000000 1.000000 -0.000000 -0.000000 1.000000 -0.000000 -0.000000 1.000000 -0.000000 -0.000000 1.000000 -0.000000 -0.000000 1.000000 -0.000000 -0.000000 1.000000 -0.000000 -0.000000 1.000000 -0.000000 -0.000000 1.000000 -0.000000 -0.000000 1.000000 -0.000000 -0.000000 1.000000 -0.000000 -0.000000 1.000000 -0.000000 -0.000000 1.000000 -0.000000 -0.000000 1.000000 -0.000000 -0.000000 1.000000 -0.000000 -0.000000 1.000000 -0.000000 -0.000000 1.000000 -0.000000 -0.000000 1.000000 -0.000000 -0.000000 1.000000 -0.000000 -0.000000 1.000000 -0.000000 -0.000000 1.000000 -0.000000 -0.000000 1.000000 -0.000000 -0.000000 1.000000 -0.000000 -0.000000 1.000000 -0.000000 -0.000000 1.000000 -0.000000 -0.000000 1.000000 -0.000000 -0.000000 1.000000 -0.000000 -0.000000 1.000000 -0.000000 -0.000000 1.000000 -0.000000 -0.000000 1.000000 -0.000000 -0.000000 1.000000 -0.000000 -0.000000 1.000000 -0.000000 -0.000000 1.000000 -0.000000 -0.000000 1.000000 -0.000000 -0.000000 1.000000 -0.000000 -0.000000 1.000000 -0.000000 -0.000000 1.000000 -0.000000 -0.000000 1.000000</float_array>
          <technique_common>
            <accessor source="#gripper_left_addition-mesh-normals-array" count="1262" stride="3">
              <param name="X" type="float"/>
              <param name="Y" type="float"/>
              <param name="Z" type="float"/>
            </accessor>
          </technique_common>
        </source>
        <vertices id="gripper_left_addition-mesh-vertices">
          <input semantic="POSITION" source="#gripper_left_addition-mesh-positions"/>
        </vertices>
        <triangles material="Opaque_246_246_243_" count="1240">
          <input semantic="VERTEX" source="#gripper_left_addition-mesh-vertices" offset="0"/>
          <input semantic="NORMAL" source="#gripper_left_addition-mesh-normals" offset="1"/>
          <p>1 0 61 1 0 2 0 2 61 1 31 3 0 2 31 3 30 4 30 4 31 3 32 5 30 4 32 5 29 6 29 6 32 5 33 7 29 6 33 7 28 8 28 8 33 7 34 9 28 8 34 9 27 10 27 10 34 9 35 11 27 10 35 11 26 12 26 12 35 11 36 13 26 12 36 13 25 14 25 14 36 13 37 15 25 14 37 15 24 16 24 16 37 15 38 17 24 16 38 17 23 18 23 18 38 17 39 19 23 18 39 19 22 20 22 20 39 19 40 21 22 20 40 21 21 22 21 22 40 21 41 23 21 22 41 23 20 24 20 24 41 23 42 25 20 24 42 25 19 26 19 26 42 25 43 27 19 26 43 27 18 28 18 28 43 27 44 29 18 28 44 29 17 30 17 30 44 29 45 31 17 30 45 31 16 32 16 32 45 31 46 33 16 32 46 33 15 34 15 34 46 33 47 35 15 34 47 35 14 36 14 36 47 35 48 37 14 36 48 37 13 38 13 38 48 37 49 39 13 38 49 39 12 40 12 40 49 39 50 41 12 40 50 41 11 42 11 42 50 41 51 43 11 42 51 43 10 44 10 44 51 43 52 45 10 44 52 45 9 46 9 46 52 45 53 47 9 46 53 47 8 48 8 48 53 47 54 49 8 48 54 49 7 50 7 50 54 49 55 51 7 50 55 51 6 52 6 52 55 51 56 53 6 52 56 53 5 54 5 54 56 53 57 55 5 54 57 55 4 56 4 56 57 55 58 57 4 56 58 57 3 58 3 58 58 57 59 59 3 58 59 59 2 60 2 60 59 59 60 61 2 60 60 61 1 0 1 0 60 61 61 1 63 62 123 63 62 64 62 64 123 63 93 65 62 64 93 65 92 66 92 66 93 65 94 67 92 66 94 67 91 68 91 68 94 67 95 69 91 68 95 69 90 70 90 70 95 69 96 71 90 70 96 71 89 72 89 72 96 71 97 73 89 72 97 73 88 74 88 74 97 73 98 75 88 74 98 75 87 76 87 76 98 75 99 77 87 76 99 77 86 78 86 78 99 77 100 79 86 78 100 79 85 80 85 80 100 79 101 81 85 80 101 81 84 82 84 82 101 81 102 83 84 82 102 83 83 84 83 84 102 83 103 85 83 84 103 85 82 86 82 86 103 85 104 87 82 86 104 87 81 88 81 88 104 87 105 89 81 88 105 89 80 90 80 90 105 89 106 91 80 90 106 91 79 92 79 92 106 91 107 93 79 92 107 93 78 94 78 94 107 93 108 95 78 94 108 95 77 96 77 96 108 95 109 97 77 96 109 97 76 98 76 98 109 97 110 99 76 98 110 99 75 100 75 100 110 99 111 101 75 100 111 101 74 102 74 102 111 101 112 103 74 102 112 103 73 104 73 104 112 103 113 105 73 104 113 105 72 106 72 106 113 105 114 107 72 106 114 107 71 108 71 108 114 107 115 109 71 108 115 109 70 110 70 110 115 109 116 111 70 110 116 111 69 112 69 112 116 111 117 113 69 112 117 113 68 114 68 114 117 113 118 115 68 114 118 115 67 116 67 116 118 115 119 117 67 116 119 117 66 118 66 118 119 117 120 119 66 118 120 119 65 120 65 120 120 119 121 121 65 120 121 121 64 122 64 122 121 121 122 123 64 122 122 123 63 62 63 62 122 123 123 63 173 124 124 125 172 126 172 126 124 125 125 127 172 126 125 127 171 128 171 128 125 127 126 129 171 128 126 129 170 130 170 130 126 129 127 131 170 130 127 131 169 132 169 132 127 131 128 133 169 132 128 133 168 134 168 134 128 133 129 135 168 134 129 135 167 136 167 136 129 135 130 137 167 136 130 137 166 138 166 138 130 137 131 139 166 138 131 139 165 140 165 140 131 139 132 141 165 140 132 141 164 142 164 142 132 141 133 143 164 142 133 143 163 144 163 144 133 143 134 145 163 144 134 145 162 146 162 146 134 145 135 147 162 146 135 147 161 148 161 148 135 147 136 149 161 148 136 149 160 150 160 150 136 149 137 151 160 150 137 151 159 152 159 152 137 151 138 153 159 152 138 153 158 154 158 154 138 153 139 155 158 154 139 155 157 156 157 156 139 155 140 157 157 156 140 157 156 158 156 158 140 157 141 159 156 158 141 159 155 160 155 160 141 159 142 161 155 160 142 161 154 162 154 162 142 161 143 163 154 162 143 163 153 164 153 164 143 163 144 165 153 164 144 165 152 166 152 166 144 165 145 167 152 166 145 167 151 168 151 168 145 167 146 169 151 168 146 169 150 170 150 170 146 169 147 171 150 170 147 171 149 172 149 172 147 171 148 173 174 174 175 175 179 176 179 176 175 175 178 177 178 177 175 175 176 178 178 177 176 178 177 179 177 179 176 178 124 180 177 179 124 180 173 181 180 182 181 183 211 184 211 184 181 183 210 185 210 185 181 183 182 186 210 185 182 186 209 187 209 187 182 186 183 188 209 187 183 188 208 189 208 189 183 188 184 190 208 189 184 190 207 191 207 191 184 190 185 192 207 191 185 192 206 193 206 193 185 192 186 194 206 193 186 194 205 195 205 195 186 194 187 196 205 195 187 196 204 197 204 197 187 196 188 198 204 197 188 198 203 199 203 199 188 198 189 200 203 199 189 200 202 201 202 201 189 200 190 202 202 201 190 202 201 203 201 203 190 202 191 204 201 203 191 204 200 205 200 205 191 204 192 206 200 205 192 206 199 207 199 207 192 206 193 208 199 207 193 208 198 209 198 209 193 208 194 210 198 209 194 210 197 211 197 211 194 210 195 212 197 211 195 212 196 213 196 213 195 212 174 174 196 213 174 174 179 176 212 214 213 215 217 216 217 216 213 215 216 217 216 217 213 215 214 218 216 217 214 218 215 219 215 219 214 218 180 220 215 219 180 220 211 221 265 222 218 223 264 224 264 224 218 223 219 225 264 224 219 225 263 226 263 226 219 225 220 227 263 226 220 227 262 228 262 228 220 227 221 229 262 228 221 229 261 230 261 230 221 229 222 231 261 230 222 231 260 232 260 232 222 231 223 233 260 232 223 233 259 234 259 234 223 233 224 235 259 234 224 235 258 236 258 236 224 235 225 237 258 236 225 237 257 238 257 238 225 237 226 239 257 238 226 239 256 240 256 240 226 239 227 241 256 240 227 241 255 242 255 242 227 241 228 243 255 242 228 243 254 244 254 244 228 243 229 245 254 244 229 245 253 246 253 246 229 245 230 247 253 246 230 247 252 248 252 248 230 247 231 249 252 248 231 249 251 250 251 250 231 249 232 251 251 250 232 251 250 252 250 252 232 251 233 253 250 252 233 253 249 254 249 254 233 253 234 255 249 254 234 255 248 256 248 256 234 255 235 257 248 256 235 257 247 258 247 258 235 257 236 259 247 258 236 259 246 260 246 260 236 259 237 261 246 260 237 261 245 262 245 262 237 261 238 263 245 262 238 263 244 264 244 264 238 263 239 265 244 264 239 265 243 266 243 266 239 265 240 267 243 266 240 267 242 268 242 268 240 267 241 269 242 268 241 269 217 270 217 270 241 269 212 271 266 272 267 273 271 274 271 274 267 273 270 275 270 275 267 273 268 276 270 275 268 276 269 277 269 277 268 276 218 278 269 277 218 278 265 279 272 280 273 281 303 282 303 282 273 281 302 283 302 283 273 281 274 284 302 283 274 284 301 285 301 285 274 284 275 286 301 285 275 286 300 287 300 287 275 286 276 288 300 287 276 288 299 289 299 289 276 288 277 290 299 289 277 290 298 291 298 291 277 290 278 292 298 291 278 292 297 293 297 293 278 292 279 294 297 293 279 294 296 295 296 295 279 294 280 296 296 295 280 296 295 297 295 297 280 296 281 298 295 297 281 298 294 299 294 299 281 298 282 300 294 299 282 300 293 301 293 301 282 300 283 302 293 301 283 302 292 303 292 303 283 302 284 304 292 303 284 304 291 305 291 305 284 304 285 306 291 305 285 306 290 307 290 307 285 306 286 308 290 307 286 308 289 309 289 309 286 308 287 310 289 309 287 310 288 311 288 311 287 310 266 312 288 311 266 312 271 313 148 314 304 315 149 316 149 316 304 315 307 317 307 317 304 315 305 318 307 317 305 318 306 319 306 319 305 318 272 320 306 319 272 320 303 321 149 322 307 323 150 324 150 324 307 323 151 325 151 325 307 323 306 326 151 325 306 326 303 327 151 325 303 327 152 328 152 328 303 327 302 329 152 328 302 329 153 330 153 330 302 329 154 331 154 331 302 329 155 332 155 332 302 329 301 333 155 332 301 333 156 334 156 334 301 333 117 335 156 334 117 335 116 336 301 333 300 337 117 335 117 335 300 337 118 338 118 338 300 337 299 339 118 338 299 339 119 340 119 340 299 339 120 341 120 341 299 339 298 342 120 341 298 342 121 343 121 343 298 342 122 344 122 344 298 342 297 345 122 344 297 345 123 346 123 346 297 345 296 347 123 346 296 347 93 348 93 348 296 347 202 349 93 348 202 349 94 350 94 350 202 349 201 351 94 350 201 351 95 352 95 352 201 351 200 353 95 352 200 353 96 354 96 354 200 353 97 355 97 355 200 353 199 356 97 355 199 356 98 357 98 357 199 356 99 358 99 358 199 356 198 359 99 358 198 359 100 360 100 360 198 359 197 361 100 360 197 361 166 362 166 362 197 361 167 363 167 363 197 361 196 364 167 363 196 364 168 365 168 365 196 364 169 366 169 366 196 364 170 367 170 367 196 364 179 368 170 367 179 368 171 369 171 369 179 368 178 370 171 369 178 370 177 371 296 347 295 372 202 349 202 349 295 372 203 373 203 373 295 372 204 374 204 374 295 372 294 375 204 374 294 375 46 376 46 376 294 375 47 377 47 377 294 375 293 378 47 377 293 378 48 379 48 379 293 378 49 380 49 380 293 378 292 381 49 380 292 381 50 382 50 382 292 381 51 383 51 383 292 381 291 384 51 383 291 384 52 385 52 385 291 384 290 386 52 385 290 386 53 387 53 387 290 386 54 388 54 388 290 386 289 389 54 388 289 389 258 390 258 390 289 389 259 391 259 391 289 389 288 392 259 391 288 392 260 393 260 393 288 392 261 394 261 394 288 392 262 395 262 395 288 392 271 396 262 395 271 396 263 397 263 397 271 396 270 398 263 397 270 398 269 399 265 400 264 401 269 399 269 399 264 401 263 397 258 390 257 402 54 388 54 388 257 402 55 403 55 403 257 402 56 404 56 404 257 402 256 405 56 404 256 405 57 406 57 406 256 405 58 407 58 407 256 405 255 408 58 407 255 408 59 409 59 409 255 408 60 410 60 410 255 408 254 411 60 410 254 411 61 412 61 412 254 411 253 413 61 412 253 413 31 414 31 414 253 413 32 415 32 415 253 413 252 416 32 415 252 416 33 417 33 417 252 416 251 418 33 417 251 418 34 419 34 419 251 418 35 420 35 420 251 418 250 421 35 420 250 421 36 422 36 422 250 421 37 423 37 423 250 421 249 424 37 423 249 424 38 425 38 425 249 424 39 426 39 426 249 424 248 427 39 426 248 427 209 428 209 428 248 427 247 429 209 428 247 429 210 430 210 430 247 429 246 431 210 430 246 431 245 432 245 432 244 433 210 430 210 430 244 433 211 434 211 434 244 433 243 435 211 434 243 435 215 436 215 436 243 435 216 437 216 437 243 435 242 438 216 437 242 438 217 439 209 428 208 440 39 426 39 426 208 440 40 441 40 441 208 440 41 442 41 442 208 440 207 443 41 442 207 443 42 444 42 444 207 443 206 445 42 444 206 445 43 446 43 446 206 445 44 447 44 447 206 445 205 448 44 447 205 448 45 449 45 449 205 448 46 376 46 376 205 448 204 374 173 450 172 451 177 371 177 371 172 451 171 369 100 360 166 362 101 452 101 452 166 362 165 453 101 452 165 453 102 454 102 454 165 453 164 455 102 454 164 455 103 456 103 456 164 455 104 457 104 457 164 455 163 458 104 457 163 458 105 459 105 459 163 458 106 460 106 460 163 458 162 461 106 460 162 461 107 462 107 462 162 461 108 463 108 463 162 461 161 464 108 463 161 464 109 465 109 465 161 464 160 466 109 465 160 466 110 467 110 467 160 466 111 468 111 468 160 466 159 469 111 468 159 469 112 470 112 470 159 469 113 471 113 471 159 469 158 472 113 471 158 472 114 473 114 473 158 472 115 474 115 474 158 472 157 475 115 474 157 475 116 336 116 336 157 475 156 334 305 476 146 477 272 478 272 478 146 477 145 479 272 478 145 479 273 480 273 480 145 479 144 481 273 480 144 481 143 482 305 476 304 483 146 477 146 477 304 483 147 484 147 484 304 483 148 485 143 482 142 486 273 480 273 480 142 486 274 487 274 487 142 486 141 488 274 487 141 488 69 489 69 489 141 488 70 490 70 490 141 488 140 491 70 490 140 491 71 492 71 492 140 491 139 493 71 492 139 493 72 494 72 494 139 493 73 495 73 495 139 493 138 496 73 495 138 496 74 497 74 497 138 496 75 498 75 498 138 496 137 499 75 498 137 499 76 500 76 500 137 499 77 501 77 501 137 499 136 502 77 501 136 502 78 503 78 503 136 502 135 504 78 503 135 504 79 505 79 505 135 504 80 506 80 506 135 504 134 507 80 506 134 507 81 508 81 508 134 507 82 509 82 509 134 507 133 510 82 509 133 510 83 511 83 511 133 510 84 512 84 512 133 510 132 513 84 512 132 513 85 514 85 514 132 513 131 515 85 514 131 515 86 516 86 516 131 515 194 517 86 516 194 517 193 518 131 515 130 519 194 517 194 517 130 519 195 520 195 520 130 519 129 521 195 520 129 521 128 522 128 522 127 523 195 520 195 520 127 523 174 524 174 524 127 523 126 525 174 524 126 525 175 526 175 526 126 525 176 527 176 527 126 525 125 528 176 527 125 528 124 529 86 516 193 518 87 530 87 530 193 518 192 531 87 530 192 531 88 532 88 532 192 531 89 533 89 533 192 531 191 534 89 533 191 534 90 535 90 535 191 534 91 536 91 536 191 534 190 537 91 536 190 537 92 538 92 538 190 537 189 539 92 538 189 539 62 540 62 540 189 539 279 541 62 540 279 541 63 542 63 542 279 541 278 543 63 542 278 543 64 544 64 544 278 543 277 545 64 544 277 545 65 546 65 546 277 545 66 547 66 547 277 545 276 548 66 547 276 548 67 549 67 549 276 548 68 550 68 550 276 548 275 551 68 550 275 551 69 489 69 489 275 551 274 487 279 541 189 539 280 552 280 552 189 539 188 553 280 552 188 553 187 554 186 555 16 556 187 554 187 554 16 556 281 557 187 554 281 557 280 552 185 558 18 559 186 555 186 555 18 559 17 560 186 555 17 560 16 556 184 561 20 562 185 558 185 558 20 562 19 563 185 558 19 563 18 559 20 562 184 561 21 564 21 564 184 561 183 565 21 564 183 565 22 566 22 566 183 565 23 567 23 567 183 565 182 568 23 567 182 568 235 569 235 569 182 568 236 570 236 570 182 568 181 571 236 570 181 571 237 572 237 572 181 571 238 573 238 573 181 571 239 574 239 574 181 571 180 575 239 574 180 575 240 576 240 576 180 575 214 577 240 576 214 577 213 578 212 579 241 580 213 578 213 578 241 580 240 576 235 569 234 581 23 567 23 567 234 581 24 582 24 582 234 581 25 583 25 583 234 581 233 584 25 583 233 584 26 585 26 585 233 584 27 586 27 586 233 584 232 587 27 586 232 587 28 588 28 588 232 587 29 589 29 589 232 587 231 590 29 589 231 590 30 591 30 591 231 590 230 592 30 591 230 592 0 593 0 593 230 592 1 594 1 594 230 592 229 595 1 594 229 595 2 596 2 596 229 595 228 597 2 596 228 597 3 598 3 598 228 597 4 599 4 599 228 597 227 600 4 599 227 600 5 601 5 601 227 600 6 602 6 602 227 600 226 603 6 602 226 603 7 604 7 604 226 603 8 605 8 605 226 603 225 606 8 605 225 606 286 607 286 607 225 606 224 608 286 607 224 608 287 609 287 609 224 608 223 610 287 609 223 610 222 611 222 611 221 612 287 609 287 609 221 612 266 613 266 613 221 612 220 614 266 613 220 614 267 615 267 615 220 614 268 616 268 616 220 614 219 617 268 616 219 617 218 618 286 607 285 619 8 605 8 605 285 619 9 620 9 620 285 619 10 621 10 621 285 619 284 622 10 621 284 622 11 623 11 623 284 622 283 624 11 623 283 624 12 625 12 625 283 624 13 626 13 626 283 624 282 627 13 626 282 627 14 628 14 628 282 627 15 629 15 629 282 627 281 557 15 629 281 557 16 556 309 630 369 631 308 632 308 632 369 631 339 633 308 632 339 633 338 634 338 634 339 633 340 635 338 634 340 635 337 636 337 636 340 635 341 637 337 636 341 637 336 638 336 638 341 637 342 639 336 638 342 639 335 640 335 640 342 639 343 641 335 640 343 641 334 642 334 642 343 641 344 643 334 642 344 643 333 644 333 644 344 643 345 645 333 644 345 645 332 646 332 646 345 645 346 647 332 646 346 647 331 648 331 648 346 647 347 649 331 648 347 649 330 650 330 650 347 649 348 651 330 650 348 651 329 652 329 652 348 651 349 653 329 652 349 653 328 654 328 654 349 653 350 655 328 654 350 655 327 656 327 656 350 655 351 657 327 656 351 657 326 658 326 658 351 657 352 659 326 658 352 659 325 660 325 660 352 659 353 661 325 660 353 661 324 662 324 662 353 661 354 663 324 662 354 663 323 664 323 664 354 663 355 665 323 664 355 665 322 666 322 666 355 665 356 667 322 666 356 667 321 668 321 668 356 667 357 669 321 668 357 669 320 670 320 670 357 669 358 671 320 670 358 671 319 672 319 672 358 671 359 673 319 672 359 673 318 674 318 674 359 673 360 675 318 674 360 675 317 676 317 676 360 675 361 677 317 676 361 677 316 678 316 678 361 677 362 679 316 678 362 679 315 680 315 680 362 679 363 681 315 680 363 681 314 682 314 682 363 681 364 683 314 682 364 683 313 684 313 684 364 683 365 685 313 684 365 685 312 686 312 686 365 685 366 687 312 686 366 687 311 688 311 688 366 687 367 689 311 688 367 689 310 690 310 690 367 689 368 691 310 690 368 691 309 630 309 630 368 691 369 631 371 692 431 693 370 694 370 694 431 693 401 695 370 694 401 695 400 696 400 696 401 695 402 697 400 696 402 697 399 698 399 698 402 697 403 699 399 698 403 699 398 700 398 700 403 699 404 701 398 700 404 701 397 702 397 702 404 701 405 703 397 702 405 703 396 704 396 704 405 703 406 705 396 704 406 705 395 706 395 706 406 705 407 707 395 706 407 707 394 708 394 708 407 707 408 709 394 708 408 709 393 710 393 710 408 709 409 711 393 710 409 711 392 712 392 712 409 711 410 713 392 712 410 713 391 714 391 714 410 713 411 715 391 714 411 715 390 716 390 716 411 715 412 717 390 716 412 717 389 718 389 718 412 717 413 719 389 718 413 719 388 720 388 720 413 719 414 721 388 720 414 721 387 722 387 722 414 721 415 723 387 722 415 723 386 724 386 724 415 723 416 725 386 724 416 725 385 726 385 726 416 725 417 727 385 726 417 727 384 728 384 728 417 727 418 729 384 728 418 729 383 730 383 730 418 729 419 731 383 730 419 731 382 732 382 732 419 731 420 733 382 732 420 733 381 734 381 734 420 733 421 735 381 734 421 735 380 736 380 736 421 735 422 737 380 736 422 737 379 738 379 738 422 737 423 739 379 738 423 739 378 740 378 740 423 739 424 741 378 740 424 741 377 742 377 742 424 741 425 743 377 742 425 743 376 744 376 744 425 743 426 745 376 744 426 745 375 746 375 746 426 745 427 747 375 746 427 747 374 748 374 748 427 747 428 749 374 748 428 749 373 750 373 750 428 749 429 751 373 750 429 751 372 752 372 752 429 751 430 753 372 752 430 753 371 692 371 692 430 753 431 693 481 754 432 755 480 756 480 756 432 755 433 757 480 756 433 757 479 758 479 758 433 757 434 759 479 758 434 759 478 760 478 760 434 759 435 761 478 760 435 761 477 762 477 762 435 761 436 763 477 762 436 763 476 764 476 764 436 763 437 765 476 764 437 765 475 766 475 766 437 765 438 767 475 766 438 767 474 768 474 768 438 767 439 769 474 768 439 769 473 770 473 770 439 769 440 771 473 770 440 771 472 772 472 772 440 771 441 773 472 772 441 773 471 774 471 774 441 773 442 775 471 774 442 775 470 776 470 776 442 775 443 777 470 776 443 777 469 778 469 778 443 777 444 779 469 778 444 779 468 780 468 780 444 779 445 781 468 780 445 781 467 782 467 782 445 781 446 783 467 782 446 783 466 784 466 784 446 783 447 785 466 784 447 785 465 786 465 786 447 785 448 787 465 786 448 787 464 788 464 788 448 787 449 789 464 788 449 789 463 790 463 790 449 789 450 791 463 790 450 791 462 792 462 792 450 791 451 793 462 792 451 793 461 794 461 794 451 793 452 795 461 794 452 795 460 796 460 796 452 795 453 797 460 796 453 797 459 798 459 798 453 797 454 799 459 798 454 799 458 800 458 800 454 799 455 801 458 800 455 801 457 802 457 802 455 801 456 803 482 804 483 805 487 806 487 806 483 805 486 807 486 807 483 805 484 808 486 807 484 808 485 809 485 809 484 808 432 810 485 809 432 810 481 811 488 812 489 813 519 814 519 814 489 813 518 815 518 815 489 813 490 816 518 815 490 816 517 817 517 817 490 816 491 818 517 817 491 818 516 819 516 819 491 818 492 820 516 819 492 820 515 821 515 821 492 820 493 822 515 821 493 822 514 823 514 823 493 822 494 824 514 823 494 824 513 825 513 825 494 824 495 826 513 825 495 826 512 827 512 827 495 826 496 828 512 827 496 828 511 829 511 829 496 828 497 830 511 829 497 830 510 831 510 831 497 830 498 832 510 831 498 832 509 833 509 833 498 832 499 834 509 833 499 834 508 835 508 835 499 834 500 836 508 835 500 836 507 837 507 837 500 836 501 838 507 837 501 838 506 839 506 839 501 838 502 840 506 839 502 840 505 841 505 841 502 840 503 842 505 841 503 842 504 843 504 843 503 842 482 844 504 843 482 844 487 845 520 846 521 847 525 848 525 848 521 847 524 849 524 849 521 847 522 850 524 849 522 850 523 851 523 851 522 850 488 852 523 851 488 852 519 853 573 854 526 855 572 856 572 856 526 855 527 857 572 856 527 857 571 858 571 858 527 857 528 859 571 858 528 859 570 860 570 860 528 859 529 861 570 860 529 861 569 862 569 862 529 861 530 863 569 862 530 863 568 864 568 864 530 863 531 865 568 864 531 865 567 866 567 866 531 865 532 867 567 866 532 867 566 868 566 868 532 867 533 869 566 868 533 869 565 870 565 870 533 869 534 871 565 870 534 871 564 872 564 872 534 871 535 873 564 872 535 873 563 874 563 874 535 873 536 875 563 874 536 875 562 876 562 876 536 875 537 877 562 876 537 877 561 878 561 878 537 877 538 879 561 878 538 879 560 880 560 880 538 879 539 881 560 880 539 881 559 882 559 882 539 881 540 883 559 882 540 883 558 884 558 884 540 883 541 885 558 884 541 885 557 886 557 886 541 885 542 887 557 886 542 887 556 888 556 888 542 887 543 889 556 888 543 889 555 890 555 890 543 889 544 891 555 890 544 891 554 892 554 892 544 891 545 893 554 892 545 893 553 894 553 894 545 893 546 895 553 894 546 895 552 896 552 896 546 895 547 897 552 896 547 897 551 898 551 898 547 897 548 899 551 898 548 899 550 900 550 900 548 899 549 901 550 900 549 901 525 902 525 902 549 901 520 903 574 904 575 905 579 906 579 906 575 905 578 907 578 907 575 905 576 908 578 907 576 908 577 909 577 909 576 908 526 910 577 909 526 910 573 911 580 912 581 913 611 914 611 914 581 913 610 915 610 915 581 913 582 916 610 915 582 916 609 917 609 917 582 916 583 918 609 917 583 918 608 919 608 919 583 918 584 920 608 919 584 920 607 921 607 921 584 920 585 922 607 921 585 922 606 923 606 923 585 922 586 924 606 923 586 924 605 925 605 925 586 924 587 926 605 925 587 926 604 927 604 927 587 926 588 928 604 927 588 928 603 929 603 929 588 928 589 930 603 929 589 930 602 931 602 931 589 930 590 932 602 931 590 932 601 933 601 933 590 932 591 934 601 933 591 934 600 935 600 935 591 934 592 936 600 935 592 936 599 937 599 937 592 936 593 938 599 937 593 938 598 939 598 939 593 938 594 940 598 939 594 940 597 941 597 941 594 940 595 942 597 941 595 942 596 943 596 943 595 942 574 944 596 943 574 944 579 945 456 946 612 947 457 948 457 948 612 947 615 949 615 949 612 947 613 950 615 949 613 950 614 951 614 951 613 950 580 952 614 951 580 952 611 953 457 954 615 955 458 956 458 956 615 955 459 957 459 957 615 955 614 958 459 957 614 958 611 959 459 957 611 959 460 960 460 960 611 959 610 961 460 960 610 961 461 962 461 962 610 961 462 963 462 963 610 961 463 964 463 964 610 961 609 965 463 964 609 965 464 966 464 966 609 965 425 967 464 966 425 967 424 968 609 965 608 969 425 967 425 967 608 969 426 970 426 970 608 969 607 971 426 970 607 971 427 972 427 972 607 971 428 973 428 973 607 971 606 974 428 973 606 974 429 975 429 975 606 974 430 976 430 976 606 974 605 977 430 976 605 977 431 978 431 978 605 977 604 979 431 978 604 979 401 980 401 980 604 979 510 981 401 980 510 981 402 982 402 982 510 981 509 983 402 982 509 983 403 984 403 984 509 983 508 985 403 984 508 985 404 986 404 986 508 985 405 987 405 987 508 985 507 988 405 987 507 988 406 989 406 989 507 988 407 990 407 990 507 988 506 991 407 990 506 991 408 992 408 992 506 991 505 993 408 992 505 993 474 994 474 994 505 993 475 995 475 995 505 993 504 996 475 995 504 996 476 997 476 997 504 996 477 998 477 998 504 996 478 999 478 999 504 996 487 1000 478 999 487 1000 479 1001 479 1001 487 1000 486 1002 479 1001 486 1002 485 1003 604 979 603 1004 510 981 510 981 603 1004 511 1005 511 1005 603 1004 512 1006 512 1006 603 1004 602 1007 512 1006 602 1007 354 1008 354 1008 602 1007 355 1009 355 1009 602 1007 601 1010 355 1009 601 1010 356 1011 356 1011 601 1010 357 1012 357 1012 601 1010 600 1013 357 1012 600 1013 358 1014 358 1014 600 1013 359 1015 359 1015 600 1013 599 1016 359 1015 599 1016 360 1017 360 1017 599 1016 598 1018 360 1017 598 1018 361 1019 361 1019 598 1018 362 1020 362 1020 598 1018 597 1021 362 1020 597 1021 566 1022 566 1022 597 1021 567 1023 567 1023 597 1021 596 1024 567 1023 596 1024 568 1025 568 1025 596 1024 569 1026 569 1026 596 1024 570 1027 570 1027 596 1024 579 1028 570 1027 579 1028 571 1029 571 1029 579 1028 578 1030 571 1029 578 1030 577 1031 573 1032 572 1033 577 1031 577 1031 572 1033 571 1029 566 1022 565 1034 362 1020 362 1020 565 1034 363 1035 363 1035 565 1034 364 1036 364 1036 565 1034 564 1037 364 1036 564 1037 365 1038 365 1038 564 1037 366 1039 366 1039 564 1037 563 1040 366 1039 563 1040 367 1041 367 1041 563 1040 368 1042 368 1042 563 1040 562 1043 368 1042 562 1043 369 1044 369 1044 562 1043 561 1045 369 1044 561 1045 339 1046 339 1046 561 1045 340 1047 340 1047 561 1045 560 1048 340 1047 560 1048 341 1049 341 1049 560 1048 559 1050 341 1049 559 1050 342 1051 342 1051 559 1050 343 1052 343 1052 559 1050 558 1053 343 1052 558 1053 344 1054 344 1054 558 1053 345 1055 345 1055 558 1053 557 1056 345 1055 557 1056 346 1057 346 1057 557 1056 347 1058 347 1058 557 1056 556 1059 347 1058 556 1059 517 1060 517 1060 556 1059 555 1061 517 1060 555 1061 518 1062 518 1062 555 1061 554 1063 518 1062 554 1063 553 1064 553 1064 552 1065 518 1062 518 1062 552 1065 519 1066 519 1066 552 1065 551 1067 519 1066 551 1067 523 1068 523 1068 551 1067 524 1069 524 1069 551 1067 550 1070 524 1069 550 1070 525 1071 517 1060 516 1072 347 1058 347 1058 516 1072 348 1073 348 1073 516 1072 349 1074 349 1074 516 1072 515 1075 349 1074 515 1075 350 1076 350 1076 515 1075 514 1077 350 1076 514 1077 351 1078 351 1078 514 1077 352 1079 352 1079 514 1077 513 1080 352 1079 513 1080 353 1081 353 1081 513 1080 354 1008 354 1008 513 1080 512 1006 481 1082 480 1083 485 1003 485 1003 480 1083 479 1001 408 992 474 994 409 1084 409 1084 474 994 473 1085 409 1084 473 1085 410 1086 410 1086 473 1085 472 1087 410 1086 472 1087 411 1088 411 1088 472 1087 412 1089 412 1089 472 1087 471 1090 412 1089 471 1090 413 1091 413 1091 471 1090 414 1092 414 1092 471 1090 470 1093 414 1092 470 1093 415 1094 415 1094 470 1093 416 1095 416 1095 470 1093 469 1096 416 1095 469 1096 417 1097 417 1097 469 1096 468 1098 417 1097 468 1098 418 1099 418 1099 468 1098 419 1100 419 1100 468 1098 467 1101 419 1100 467 1101 420 1102 420 1102 467 1101 421 1103 421 1103 467 1101 466 1104 421 1103 466 1104 422 1105 422 1105 466 1104 423 1106 423 1106 466 1104 465 1107 423 1106 465 1107 424 968 424 968 465 1107 464 966 613 1108 454 1109 580 1110 580 1110 454 1109 453 1111 580 1110 453 1111 581 1112 581 1112 453 1111 452 1113 581 1112 452 1113 451 1114 613 1108 612 1115 454 1109 454 1109 612 1115 455 1116 455 1116 612 1115 456 1117 451 1114 450 1118 581 1112 581 1112 450 1118 582 1119 582 1119 450 1118 449 1120 582 1119 449 1120 377 1121 377 1121 449 1120 378 1122 378 1122 449 1120 448 1123 378 1122 448 1123 379 1124 379 1124 448 1123 447 1125 379 1124 447 1125 380 1126 380 1126 447 1125 381 1127 381 1127 447 1125 446 1128 381 1127 446 1128 382 1129 382 1129 446 1128 383 1130 383 1130 446 1128 445 1131 383 1130 445 1131 384 1132 384 1132 445 1131 385 1133 385 1133 445 1131 444 1134 385 1133 444 1134 386 1135 386 1135 444 1134 443 1136 386 1135 443 1136 387 1137 387 1137 443 1136 388 1138 388 1138 443 1136 442 1139 388 1138 442 1139 389 1140 389 1140 442 1139 390 1141 390 1141 442 1139 441 1142 390 1141 441 1142 391 1143 391 1143 441 1142 392 1144 392 1144 441 1142 440 1145 392 1144 440 1145 393 1146 393 1146 440 1145 439 1147 393 1146 439 1147 394 1148 394 1148 439 1147 502 1149 394 1148 502 1149 501 1150 439 1147 438 1151 502 1149 502 1149 438 1151 503 1152 503 1152 438 1151 437 1153 503 1152 437 1153 436 1154 436 1154 435 1155 503 1152 503 1152 435 1155 482 1156 482 1156 435 1155 434 1157 482 1156 434 1157 483 1158 483 1158 434 1157 484 1159 484 1159 434 1157 433 1160 484 1159 433 1160 432 1161 394 1148 501 1150 395 1162 395 1162 501 1150 500 1163 395 1162 500 1163 396 1164 396 1164 500 1163 397 1165 397 1165 500 1163 499 1166 397 1165 499 1166 398 1167 398 1167 499 1166 399 1168 399 1168 499 1166 498 1169 399 1168 498 1169 400 1170 400 1170 498 1169 497 1171 400 1170 497 1171 370 1172 370 1172 497 1171 587 1173 370 1172 587 1173 371 1174 371 1174 587 1173 586 1175 371 1174 586 1175 372 1176 372 1176 586 1175 585 1177 372 1176 585 1177 373 1178 373 1178 585 1177 374 1179 374 1179 585 1177 584 1180 374 1179 584 1180 375 1181 375 1181 584 1180 376 1182 376 1182 584 1180 583 1183 376 1182 583 1183 377 1121 377 1121 583 1183 582 1119 587 1173 497 1171 588 1184 588 1184 497 1171 496 1185 588 1184 496 1185 495 1186 494 1187 324 1188 495 1186 495 1186 324 1188 589 1189 495 1186 589 1189 588 1184 493 1190 326 1191 494 1187 494 1187 326 1191 325 1192 494 1187 325 1192 324 1188 492 1193 328 1194 493 1190 493 1190 328 1194 327 1195 493 1190 327 1195 326 1191 328 1194 492 1193 329 1196 329 1196 492 1193 491 1197 329 1196 491 1197 330 1198 330 1198 491 1197 331 1199 331 1199 491 1197 490 1200 331 1199 490 1200 543 1201 543 1201 490 1200 544 1202 544 1202 490 1200 489 1203 544 1202 489 1203 545 1204 545 1204 489 1203 546 1205 546 1205 489 1203 547 1206 547 1206 489 1203 488 1207 547 1206 488 1207 548 1208 548 1208 488 1207 522 1209 548 1208 522 1209 521 1210 520 1211 549 1212 521 1210 521 1210 549 1212 548 1208 543 1201 542 1213 331 1199 331 1199 542 1213 332 1214 332 1214 542 1213 333 1215 333 1215 542 1213 541 1216 333 1215 541 1216 334 1217 334 1217 541 1216 335 1218 335 1218 541 1216 540 1219 335 1218 540 1219 336 1220 336 1220 540 1219 337 1221 337 1221 540 1219 539 1222 337 1221 539 1222 338 1223 338 1223 539 1222 538 1224 338 1223 538 1224 308 1225 308 1225 538 1224 309 1226 309 1226 538 1224 537 1227 309 1226 537 1227 310 1228 310 1228 537 1227 536 1229 310 1228 536 1229 311 1230 311 1230 536 1229 312 1231 312 1231 536 1229 535 1232 312 1231 535 1232 313 1233 313 1233 535 1232 314 1234 314 1234 535 1232 534 1235 314 1234 534 1235 315 1236 315 1236 534 1235 316 1237 316 1237 534 1235 533 1238 316 1237 533 1238 594 1239 594 1239 533 1238 532 1240 594 1239 532 1240 595 1241 595 1241 532 1240 531 1242 595 1241 531 1242 530 1243 530 1243 529 1244 595 1241 595 1241 529 1244 574 1245 574 1245 529 1244 528 1246 574 1245 528 1246 575 1247 575 1247 528 1246 576 1248 576 1248 528 1246 527 1249 576 1248 527 1249 526 1250 594 1239 593 1251 316 1237 316 1237 593 1251 317 1252 317 1252 593 1251 318 1253 318 1253 593 1251 592 1254 318 1253 592 1254 319 1255 319 1255 592 1254 591 1256 319 1255 591 1256 320 1257 320 1257 591 1256 321 1258 321 1258 591 1256 590 1259 321 1258 590 1259 322 1260 322 1260 590 1259 323 1261 323 1261 590 1259 589 1189 323 1261 589 1189 324 1188</p>
        </triangles>
      </mesh>
    </geometry>
  </library_geometries>
  <library_visual_scenes>
    <visual_scene id="Scene" name="Scene">
      <node id="gripper_left_addition-node" name="gripper_left_addition" type="NODE">
        <instance_geometry url="#gripper_left_addition-mesh">
          <bind_material>
            <technique_common>
              <instance_material symbol="Opaque_246_246_243_" target="#Opaque_246_246_243_"/>
            </technique_common>
          </bind_material>
        </instance_geometry>
      </node>
    </visual_scene>
  </library_visual_scenes>
  <scene>
    <instance_visual_scene url="#Scene"/>
  </scene>
</COLLADA>
