<?xml version="1.0" encoding="utf-8"?>
<COLLADA xmlns="http://www.collada.org/2005/11/COLLADASchema" version="1.4.1">
  <asset>
    <contributor>
      <authoring_tool>Fusion URDF/XACRO Exporter</authoring_tool>
    </contributor>
    <created>2026-08-06T06:33:31Z</created>
    <modified>2026-08-06T06:33:31Z</modified>
    <unit name="meter" meter="1.0"/>
    <up_axis>Z_UP</up_axis>
  </asset>
  <library_effects>
    <effect id="Opaque_202_209_238_-effect">
      <profile_COMMON>
        <technique sid="common">
          <lambert>
            <emission><color>0 0 0 1</color></emission>
            <ambient><color>0.0000 0.0000 0.0000 1</color></ambient>
            <diffuse><color>0.7922 0.8196 0.9333 1</color></diffuse>
            <reflective><color>0 0 0 1</color></reflective>
            <transparent opaque="A_ONE"><color>1 1 1 1</color></transparent>
            <transparency><float>1</float></transparency>
          </lambert>
        </technique>
      </profile_COMMON>
    </effect>
  </library_effects>
  <library_materials>
    <material id="Opaque_202_209_238_" name="Opaque(202,209,238)">
      <instance_effect url="#Opaque_202_209_238_-effect"/>
    </material>
  </library_materials>
  <library_geometries>
    <geometry id="back_link-mesh" name="back_link">
      <mesh>
        <source id="back_link-mesh-positions">
          <float_array id="back_link-mesh-positions-array" count="312">0.047200 0.073200 0.164595 0.047260 0.073200 0.164142 0.047434 0.073200 0.163720 0.047713 0.073200 0.163358 0.048075 0.073200 0.163080 0.048497 0.073200 0.162905 0.048950 0.073200 0.162845 0.049403 0.073200 0.162905 0.049825 0.073200 0.163080 0.050187 0.073200 0.163358 0.050466 0.073200 0.163720 0.050640 0.073200 0.164142 0.050700 0.073200 0.164595 0.050640 0.073200 0.165048 0.050466 0.073200 0.165470 0.050187 0.073200 0.165833 0.049825 0.073200 0.166111 0.049403 0.073200 0.166286 0.048950 0.073200 0.166345 0.048497 0.073200 0.166286 0.048075 0.073200 0.166111 0.047713 0.073200 0.165833 0.047434 0.073200 0.165470 0.047260 0.073200 0.165048 0.047200 0.076600 0.164595 0.047260 0.076600 0.165048 0.047434 0.076600 0.165470 0.047713 0.076600 0.165833 0.048075 0.076600 0.166111 0.048497 0.076600 0.166286 0.048950 0.076600 0.166345 0.049403 0.076600 0.166286 0.049825 0.076600 0.166111 0.050187 0.076600 0.165833 0.050466 0.076600 0.165470 0.050640 0.076600 0.165048 0.050700 0.076600 0.164595 0.050640 0.076600 0.164142 0.050466 0.076600 0.163720 0.050187 0.076600 0.163358 0.049825 0.076600 0.163080 0.049403 0.076600 0.162905 0.048950 0.076600 0.162845 0.048497 0.076600 0.162905 0.048075 0.076600 0.163080 0.047713 0.076600 0.163358 0.047434 0.076600 0.163720 0.047260 0.076600 0.164142 0.047200 0.073200 0.064595 0.047260 0.073200 0.064142 0.047434 0.073200 0.063720 0.047713 0.073200 0.063358 0.048075 0.073200 0.063080 0.048497 0.073200 0.062905 0.048950 0.073200 0.062845 0.049403 0.073200 0.062905 0.049825 0.073200 0.063080 0.050187 0.073200 0.063358 0.050466 0.073200 0.063720 0.050640 0.073200 0.064142 0.050700 0.073200 0.064595 0.050640 0.073200 0.065048 0.050466 0.073200 0.065470 0.050187 0.073200 0.065833 0.049825 0.073200 0.066111 0.049403 0.073200 0.066286 0.048950 0.073200 0.066345 0.048497 0.073200 0.066286 0.048075 0.073200 0.066111 0.047713 0.073200 0.065833 0.047434 0.073200 0.065470 0.047260 0.073200 0.065048 0.047200 0.076600 0.064595 0.047260 0.076600 0.065048 0.047434 0.076600 0.065470 0.047713 0.076600 0.065833 0.048075 0.076600 0.066111 0.048497 0.076600 0.066286 0.048950 0.076600 0.066345 0.049403 0.076600 0.066286 0.049825 0.076600 0.066111 0.050187 0.076600 0.065833 0.050466 0.076600 0.065470 0.050640 0.076600 0.065048 0.050700 0.076600 0.064595 0.050640 0.076600 0.064142 0.050466 0.076600 0.063720 0.050187 0.076600 0.063358 0.049825 0.076600 0.063080 0.049403 0.076600 0.062905 0.048950 0.076600 0.062845 0.048497 0.076600 0.062905 0.048075 0.076600 0.063080 0.047713 0.076600 0.063358 0.047434 0.076600 0.063720 0.047260 0.076600 0.064142 0.052950 0.073200 0.060595 0.052950 0.073200 0.168595 0.044950 0.073200 0.168595 0.044950 0.073200 0.060595 0.052950 0.076600 0.168595 0.052950 0.076600 0.060595 0.044950 0.076600 0.060595 0.044950 0.076600 0.168595</float_array>
          <technique_common>
            <accessor source="#back_link-mesh-positions-array" count="104" stride="3">
              <param name="X" type="float"/>
              <param name="Y" type="float"/>
              <param name="Z" type="float"/>
            </accessor>
          </technique_common>
        </source>
        <source id="back_link-mesh-normals">
          <float_array id="back_link-mesh-normals-array" count="648">0.965926 -0.000000 0.258819 0.965926 -0.000000 0.258819 1.000000 0.000000 0.000000 1.000000 -0.000000 0.000000 0.965926 0.000000 -0.258819 0.965926 0.000000 -0.258819 0.866025 0.000000 -0.500000 0.866025 0.000000 -0.500000 0.707107 0.000000 -0.707107 0.707107 0.000000 -0.707107 0.500000 0.000000 -0.866025 0.500000 0.000000 -0.866025 0.258819 0.000000 -0.965926 0.258819 0.000000 -0.965926 0.000000 0.000000 -1.000000 0.000000 0.000000 -1.000000 -0.258819 0.000000 -0.965926 -0.258819 0.000000 -0.965926 -0.500000 0.000000 -0.866025 -0.500000 0.000000 -0.866025 -0.707107 0.000000 -0.707107 -0.707107 0.000000 -0.707107 -0.866025 0.000000 -0.500000 -0.866025 0.000000 -0.500000 -0.965926 0.000000 -0.258819 -0.965926 0.000000 -0.258819 -1.000000 0.000000 -0.000000 -1.000000 0.000000 -0.000000 -0.965926 -0.000000 0.258819 -0.965926 -0.000000 0.258819 -0.866025 -0.000000 0.500000 -0.866025 -0.000000 0.500000 -0.707107 -0.000000 0.707107 -0.707107 -0.000000 0.707107 -0.500000 -0.000000 0.866025 -0.500000 -0.000000 0.866025 -0.258819 -0.000000 0.965926 -0.258819 -0.000000 0.965926 0.000000 -0.000000 1.000000 0.000000 -0.000000 1.000000 0.258819 -0.000000 0.965926 0.258819 -0.000000 0.965926 0.500000 -0.000000 0.866025 0.500000 -0.000000 0.866025 0.707107 -0.000000 0.707107 0.707107 -0.000000 0.707107 0.866025 -0.000000 0.500000 0.866025 -0.000000 0.500000 0.965926 -0.000000 0.258819 0.965926 -0.000000 0.258819 1.000000 0.000000 0.000000 1.000000 -0.000000 0.000000 0.965926 0.000000 -0.258819 0.965926 0.000000 -0.258819 0.866025 0.000000 -0.500000 0.866025 0.000000 -0.500000 0.707107 0.000000 -0.707107 0.707107 0.000000 -0.707107 0.500000 0.000000 -0.866025 0.500000 0.000000 -0.866025 0.258819 0.000000 -0.965926 0.258819 0.000000 -0.965926 0.000000 0.000000 -1.000000 0.000000 0.000000 -1.000000 -0.258819 0.000000 -0.965926 -0.258819 0.000000 -0.965926 -0.500000 0.000000 -0.866025 -0.500000 0.000000 -0.866025 -0.707107 0.000000 -0.707107 -0.707107 0.000000 -0.707107 -0.866025 0.000000 -0.500000 -0.866025 0.000000 -0.500000 -0.965926 0.000000 -0.258819 -0.965926 0.000000 -0.258819 -1.000000 0.000000 -0.000000 -1.000000 0.000000 -0.000000 -0.965926 -0.000000 0.258819 -0.965926 -0.000000 0.258819 -0.866025 -0.000000 0.500000 -0.866025 -0.000000 0.500000 -0.707107 -0.000000 0.707107 -0.707107 -0.000000 0.707107 -0.500000 -0.000000 0.866025 -0.500000 -0.000000 0.866025 -0.258819 -0.000000 0.965926 -0.258819 -0.000000 0.965926 0.000000 -0.000000 1.000000 0.000000 -0.000000 1.000000 0.258819 -0.000000 0.965926 0.258819 -0.000000 0.965926 0.500000 -0.000000 0.866025 0.500000 -0.000000 0.866025 0.707107 -0.000000 0.707107 0.707107 -0.000000 0.707107 0.866025 -0.000000 0.500000 0.866025 -0.000000 0.500000 0.000000 -1.000000 -0.000000 0.000000 -1.000000 -0.000000 0.000000 -1.000000 -0.000000 0.000000 -1.000000 -0.000000 0.000000 -1.000000 -0.000000 0.000000 -1.000000 -0.000000 0.000000 -1.000000 -0.000000 0.000000 -1.000000 -0.000000 0.000000 -1.000000 -0.000000 0.000000 -1.000000 -0.000000 0.000000 -1.000000 -0.000000 0.000000 -1.000000 -0.000000 0.000000 -1.000000 -0.000000 0.000000 -1.000000 -0.000000 0.000000 -1.000000 -0.000000 0.000000 -1.000000 -0.000000 0.000000 -1.000000 -0.000000 0.000000 -1.000000 -0.000000 0.000000 -1.000000 -0.000000 0.000000 -1.000000 -0.000000 0.000000 -1.000000 -0.000000 0.000000 -1.000000 -0.000000 0.000000 -1.000000 -0.000000 0.000000 -1.000000 -0.000000 0.000000 -1.000000 -0.000000 0.000000 -1.000000 -0.000000 0.000000 -1.000000 -0.000000 0.000000 -1.000000 -0.000000 0.000000 -1.000000 -0.000000 0.000000 -1.000000 -0.000000 0.000000 -1.000000 -0.000000 0.000000 -1.000000 -0.000000 0.000000 -1.000000 -0.000000 0.000000 -1.000000 -0.000000 0.000000 -1.000000 -0.000000 0.000000 -1.000000 -0.000000 0.000000 -1.000000 -0.000000 0.000000 -1.000000 -0.000000 0.000000 -1.000000 -0.000000 0.000000 -1.000000 -0.000000 0.000000 -1.000000 -0.000000 0.000000 -1.000000 -0.000000 0.000000 -1.000000 -0.000000 0.000000 -1.000000 -0.000000 0.000000 -1.000000 -0.000000 0.000000 -1.000000 -0.000000 0.000000 -1.000000 -0.000000 0.000000 -1.000000 -0.000000 0.000000 -1.000000 -0.000000 0.000000 -1.000000 -0.000000 0.000000 -1.000000 -0.000000 0.000000 -1.000000 -0.000000 -0.000000 1.000000 0.000000 -0.000000 1.000000 0.000000 -0.000000 1.000000 0.000000 -0.000000 1.000000 0.000000 -0.000000 1.000000 0.000000 -0.000000 1.000000 0.000000 -0.000000 1.000000 0.000000 -0.000000 1.000000 0.000000 -0.000000 1.000000 0.000000 -0.000000 1.000000 0.000000 -0.000000 1.000000 0.000000 -0.000000 1.000000 0.000000 -0.000000 1.000000 0.000000 -0.000000 1.000000 0.000000 -0.000000 1.000000 0.000000 -0.000000 1.000000 0.000000 -0.000000 1.000000 0.000000 -0.000000 1.000000 0.000000 -0.000000 1.000000 0.000000 -0.000000 1.000000 0.000000 -0.000000 1.000000 0.000000 -0.000000 1.000000 0.000000 -0.000000 1.000000 0.000000 -0.000000 1.000000 0.000000 -0.000000 1.000000 0.000000 -0.000000 1.000000 0.000000 -0.000000 1.000000 0.000000 -0.000000 1.000000 0.000000 -0.000000 1.000000 0.000000 -0.000000 1.000000 0.000000 -0.000000 1.000000 0.000000 -0.000000 1.000000 0.000000 -0.000000 1.000000 0.000000 -0.000000 1.000000 0.000000 -0.000000 1.000000 0.000000 -0.000000 1.000000 0.000000 -0.000000 1.000000 0.000000 -0.000000 1.000000 0.000000 -0.000000 1.000000 0.000000 -0.000000 1.000000 0.000000 -0.000000 1.000000 0.000000 -0.000000 1.000000 0.000000 -0.000000 1.000000 0.000000 -0.000000 1.000000 0.000000 -0.000000 1.000000 0.000000 -0.000000 1.000000 0.000000 -0.000000 1.000000 0.000000 -0.000000 1.000000 0.000000 -0.000000 1.000000 0.000000 -0.000000 1.000000 0.000000 -0.000000 1.000000 0.000000 -0.000000 1.000000 0.000000 1.000000 -0.000000 0.000000 1.000000 -0.000000 0.000000 1.000000 -0.000000 0.000000 1.000000 -0.000000 0.000000 0.000000 -0.000000 1.000000 0.000000 -0.000000 1.000000 0.000000 -0.000000 1.000000 0.000000 -0.000000 1.000000 -1.000000 0.000000 -0.000000 -1.000000 0.000000 -0.000000 -1.000000 0.000000 -0.000000 -1.000000 0.000000 -0.000000 -0.000000 0.000000 -1.000000 -0.000000 0.000000 -1.000000 -0.000000 0.000000 -1.000000 -0.000000 0.000000 -1.000000</float_array>
          <technique_common>
            <accessor source="#back_link-mesh-normals-array" count="216" stride="3">
              <param name="X" type="float"/>
              <param name="Y" type="float"/>
              <param name="Z" type="float"/>
            </accessor>
          </technique_common>
        </source>
        <vertices id="back_link-mesh-vertices">
          <input semantic="POSITION" source="#back_link-mesh-positions"/>
        </vertices>
        <triangles material="Opaque_202_209_238_" count="212">
          <input semantic="VERTEX" source="#back_link-mesh-vertices" offset="0"/>
          <input semantic="NORMAL" source="#back_link-mesh-normals" offset="1"/>
          <p>1 0 47 1 0 2 0 2 47 1 24 3 0 2 24 3 23 4 23 4 24 3 25 5 23 4 25 5 22 6 22 6 25 5 26 7 22 6 26 7 21 8 21 8 26 7 27 9 21 8 27 9 20 10 20 10 27 9 28 11 20 10 28 11 19 12 19 12 28 11 29 13 19 12 29 13 18 14 18 14 29 13 30 15 18 14 30 15 17 16 17 16 30 15 31 17 17 16 31 17 16 18 16 18 31 17 32 19 16 18 32 19 15 20 15 20 32 19 33 21 15 20 33 21 14 22 14 22 33 21 34 23 14 22 34 23 13 24 13 24 34 23 35 25 13 24 35 25 12 26 12 26 35 25 36 27 12 26 36 27 11 28 11 28 36 27 37 29 11 28 37 29 10 30 10 30 37 29 38 31 10 30 38 31 9 32 9 32 38 31 39 33 9 32 39 33 8 34 8 34 39 33 40 35 8 34 40 35 7 36 7 36 40 35 41 37 7 36 41 37 6 38 6 38 41 37 42 39 6 38 42 39 5 40 5 40 42 39 43 41 5 40 43 41 4 42 4 42 43 41 44 43 4 42 44 43 3 44 3 44 44 43 45 45 3 44 45 45 2 46 2 46 45 45 46 47 2 46 46 47 1 0 1 0 46 47 47 1 49 48 95 49 48 50 48 50 95 49 72 51 48 50 72 51 71 52 71 52 72 51 73 53 71 52 73 53 70 54 70 54 73 53 74 55 70 54 74 55 69 56 69 56 74 55 75 57 69 56 75 57 68 58 68 58 75 57 76 59 68 58 76 59 67 60 67 60 76 59 77 61 67 60 77 61 66 62 66 62 77 61 78 63 66 62 78 63 65 64 65 64 78 63 79 65 65 64 79 65 64 66 64 66 79 65 80 67 64 66 80 67 63 68 63 68 80 67 81 69 63 68 81 69 62 70 62 70 81 69 82 71 62 70 82 71 61 72 61 72 82 71 83 73 61 72 83 73 60 74 60 74 83 73 84 75 60 74 84 75 59 76 59 76 84 75 85 77 59 76 85 77 58 78 58 78 85 77 86 79 58 78 86 79 57 80 57 80 86 79 87 81 57 80 87 81 56 82 56 82 87 81 88 83 56 82 88 83 55 84 55 84 88 83 89 85 55 84 89 85 54 86 54 86 89 85 90 87 54 86 90 87 53 88 53 88 90 87 91 89 53 88 91 89 52 90 52 90 91 89 92 91 52 90 92 91 51 92 51 92 92 91 93 93 51 92 93 93 50 94 50 94 93 93 94 95 50 94 94 95 49 48 49 48 94 95 95 49 97 96 11 97 96 98 96 98 11 97 61 99 96 98 61 99 60 100 98 101 18 102 97 96 97 96 18 102 17 103 97 96 17 103 16 104 99 105 1 106 98 101 98 101 1 106 0 107 98 101 0 107 23 108 96 98 54 109 99 105 99 105 54 109 53 110 99 105 53 110 52 111 49 112 48 113 99 105 99 105 48 113 71 114 99 105 71 114 1 106 1 106 71 114 70 115 1 106 70 115 2 116 2 116 70 115 3 117 3 117 70 115 69 118 3 117 69 118 4 119 4 119 69 118 68 120 4 119 68 120 5 121 5 121 68 120 67 122 5 121 67 122 6 123 6 123 67 122 66 124 6 123 66 124 65 125 6 123 65 125 7 126 7 126 65 125 64 127 7 126 64 127 8 128 8 128 64 127 63 129 8 128 63 129 9 130 9 130 63 129 62 131 9 130 62 131 10 132 10 132 62 131 11 97 11 97 62 131 61 99 60 100 59 133 96 98 96 98 59 133 58 134 96 98 58 134 57 135 57 135 56 136 96 98 96 98 56 136 55 137 96 98 55 137 54 109 52 111 51 138 99 105 99 105 51 138 50 139 99 105 50 139 49 112 23 108 22 140 98 101 98 101 22 140 21 141 98 101 21 141 20 142 20 142 19 143 98 101 98 101 19 143 18 102 16 104 15 144 97 96 97 96 15 144 14 145 97 96 14 145 13 146 13 146 12 147 97 96 97 96 12 147 11 97 101 148 37 149 100 150 100 150 37 149 36 151 100 150 36 151 35 152 102 153 90 154 101 148 101 148 90 154 89 155 101 148 89 155 88 156 103 157 47 158 102 153 102 153 47 158 73 159 102 153 73 159 72 160 100 150 30 161 103 157 103 157 30 161 29 162 103 157 29 162 28 163 25 164 24 165 103 157 103 157 24 165 47 158 73 159 47 158 74 166 74 166 47 158 46 167 74 166 46 167 45 168 74 166 45 168 75 169 75 169 45 168 44 170 75 169 44 170 76 171 76 171 44 170 43 172 76 171 43 172 77 173 77 173 43 172 42 174 77 173 42 174 78 175 78 175 42 174 79 176 79 176 42 174 41 177 79 176 41 177 80 178 80 178 41 177 40 179 80 178 40 179 81 180 81 180 40 179 39 181 81 180 39 181 82 182 82 182 39 181 38 183 82 182 38 183 37 149 35 152 34 184 100 150 100 150 34 184 33 185 100 150 33 185 32 186 32 186 31 187 100 150 100 150 31 187 30 161 28 163 27 188 103 157 103 157 27 188 26 189 103 157 26 189 25 164 72 160 95 190 102 153 102 153 95 190 94 191 102 153 94 191 93 192 93 192 92 193 102 153 102 153 92 193 91 194 102 153 91 194 90 154 88 156 87 195 101 148 101 148 87 195 86 196 101 148 86 196 85 197 85 197 84 198 101 148 101 148 84 198 83 199 101 148 83 199 37 149 37 149 83 199 82 182 101 200 100 201 96 202 96 202 100 201 97 203 103 204 98 205 100 206 100 206 98 205 97 207 103 208 102 209 98 210 98 210 102 209 99 211 101 212 96 213 102 214 102 214 96 213 99 215</p>
        </triangles>
      </mesh>
    </geometry>
  </library_geometries>
  <library_visual_scenes>
    <visual_scene id="Scene" name="Scene">
      <node id="back_link-node" name="back_link" type="NODE">
        <instance_geometry url="#back_link-mesh">
          <bind_material>
            <technique_common>
              <instance_material symbol="Opaque_202_209_238_" target="#Opaque_202_209_238_"/>
            </technique_common>
          </bind_material>
        </instance_geometry>
      </node>
    </visual_scene>
  </library_visual_scenes>
  <scene>
    <instance_visual_scene url="#Scene"/>
  </scene>
</COLLADA>
