<?xml version="1.0" encoding="utf-8"?>
<COLLADA xmlns="http://www.collada.org/2005/11/COLLADASchema" version="1.4.1">
  <asset>
    <contributor>
      <authoring_tool>Fusion URDF/XACRO Exporter</authoring_tool>
    </contributor>
    <created>2026-09-04T05:56:34Z</created>
    <modified>2026-09-04T05:56:34Z</modified>
    <unit name="meter" meter="1.0"/>
    <up_axis>Z_UP</up_axis>
  </asset>
  <library_effects>
    <effect id="Opaque_246_246_243_-effect">
      <profile_COMMON>
        <technique sid="common">
          <lambert>
            <emission><color>0 0 0 1</color></emission>
            <ambient><color>0.0000 0.0000 0.0000 1</color></ambient>
            <diffuse><color>0.9647 0.9647 0.9529 1</color></diffuse>
            <reflective><color>0 0 0 1</color></reflective>
            <transparent opaque="A_ONE"><color>1 1 1 1</color></transparent>
            <transparency><float>1</float></transparency>
          </lambert>
        </technique>
      </profile_COMMON>
    </effect>
  </library_effects>
  <library_materials>
    <material id="Opaque_246_246_243_" name="Opaque(246,246,243)">
      <instance_effect url="#Opaque_246_246_243_-effect"/>
    </material>
  </library_materials>
  <library_geometries>
    <geometry id="gripper_clamp_left-mesh" name="gripper_clamp_left">
      <mesh>
        <source id="gripper_clamp_left-mesh-positions">
          <float_array id="gripper_clamp_left-mesh-positions-array" count="747">-0.059200 0.066849 -0.000500 -0.063200 0.066849 -0.000500 -0.063200 0.066849 -0.016500 -0.059200 0.066849 -0.016500 -0.058700 0.097062 -0.016500 -0.054700 0.097062 -0.016500 -0.055200 0.096196 -0.016500 -0.054700 0.095330 -0.016500 -0.055200 0.094464 -0.016500 -0.054700 0.093598 -0.016500 -0.055200 0.092732 -0.016500 -0.054700 0.091866 -0.016500 -0.055200 0.091000 -0.016500 -0.054700 0.090134 -0.016500 -0.055200 0.089268 -0.016500 -0.054700 0.088402 -0.016500 -0.055200 0.087536 -0.016500 -0.054700 0.086670 -0.016500 -0.055200 0.085804 -0.016500 -0.054700 0.084938 -0.016500 -0.055200 0.084071 -0.016500 -0.054700 0.083205 -0.016500 -0.055200 0.082339 -0.016500 -0.054700 0.081473 -0.016500 -0.055200 0.080607 -0.016500 -0.054700 0.079741 -0.016500 -0.055200 0.078875 -0.016500 -0.054700 0.078009 -0.016500 -0.055200 0.077143 -0.016500 -0.054700 0.076277 -0.016500 -0.055200 0.075411 -0.016500 -0.054700 0.074545 -0.016500 -0.055200 0.073679 -0.016500 -0.054700 0.072813 -0.016500 -0.055200 0.071947 -0.016500 -0.054700 0.071081 -0.016500 -0.055200 0.070215 -0.016500 -0.054700 0.069349 -0.016500 -0.063200 0.092562 -0.016500 -0.059200 0.056703 -0.000500 -0.058732 0.056526 -0.000500 -0.058294 0.056284 -0.000500 -0.057894 0.055982 -0.000500 -0.057542 0.055626 -0.000500 -0.057245 0.055224 -0.000500 -0.057007 0.054783 -0.000500 -0.056835 0.054313 -0.000500 -0.056732 0.053823 -0.000500 -0.056700 0.053324 -0.000500 -0.056739 0.052825 -0.000500 -0.056850 0.052337 -0.000500 -0.057028 0.051869 -0.000500 -0.064028 0.036869 -0.000500 -0.064284 0.036413 -0.000500 -0.064606 0.036000 -0.000500 -0.064985 0.035639 -0.000500 -0.065413 0.035339 -0.000500 -0.065882 0.035107 -0.000500 -0.066380 0.034947 -0.000500 -0.066896 0.034862 -0.000500 -0.067419 0.034856 -0.000500 -0.067937 0.034928 -0.000500 -0.068439 0.035076 -0.000500 -0.068913 0.035297 -0.000500 -0.069349 0.035586 -0.000500 -0.069737 0.035937 -0.000500 -0.070068 0.036342 -0.000500 -0.070335 0.036792 -0.000500 -0.070532 0.037277 -0.000500 -0.070654 0.037785 -0.000500 -0.070700 0.038306 -0.000500 -0.070667 0.038829 -0.000500 -0.070557 0.039340 -0.000500 -0.070372 0.039829 -0.000500 -0.063372 0.054829 -0.000500 -0.063318 0.054939 -0.000500 -0.063261 0.055046 -0.000500 -0.063200 0.055152 -0.000500 -0.066025 0.038349 -0.000500 -0.066065 0.038653 -0.000500 -0.066182 0.038937 -0.000500 -0.066369 0.039180 -0.000500 -0.066613 0.039367 -0.000500 -0.066896 0.039484 -0.000500 -0.067200 0.039524 -0.000500 -0.067504 0.039484 -0.000500 -0.067788 0.039367 -0.000500 -0.068031 0.039180 -0.000500 -0.068218 0.038937 -0.000500 -0.068335 0.038653 -0.000500 -0.068375 0.038349 -0.000500 -0.068335 0.038045 -0.000500 -0.068218 0.037762 -0.000500 -0.068031 0.037518 -0.000500 -0.067788 0.037331 -0.000500 -0.067504 0.037214 -0.000500 -0.067200 0.037174 -0.000500 -0.066896 0.037214 -0.000500 -0.066613 0.037331 -0.000500 -0.066369 0.037518 -0.000500 -0.066182 0.037762 -0.000500 -0.066065 0.038045 -0.000500 -0.059025 0.053349 -0.000500 -0.059065 0.053653 -0.000500 -0.059182 0.053937 -0.000500 -0.059369 0.054180 -0.000500 -0.059612 0.054367 -0.000500 -0.059896 0.054484 -0.000500 -0.060200 0.054524 -0.000500 -0.060504 0.054484 -0.000500 -0.060788 0.054367 -0.000500 -0.061031 0.054180 -0.000500 -0.061218 0.053937 -0.000500 -0.061335 0.053653 -0.000500 -0.061375 0.053349 -0.000500 -0.061335 0.053045 -0.000500 -0.061218 0.052762 -0.000500 -0.061031 0.052518 -0.000500 -0.060788 0.052331 -0.000500 -0.060504 0.052214 -0.000500 -0.060200 0.052174 -0.000500 -0.059896 0.052214 -0.000500 -0.059612 0.052331 -0.000500 -0.059369 0.052518 -0.000500 -0.059182 0.052762 -0.000500 -0.059065 0.053045 -0.000500 -0.063200 0.055152 0.003500 -0.063200 0.092562 0.003500 -0.066025 0.038349 0.003500 -0.066065 0.038653 0.003500 -0.066182 0.038937 0.003500 -0.066369 0.039180 0.003500 -0.066613 0.039367 0.003500 -0.066896 0.039484 0.003500 -0.067200 0.039524 0.003500 -0.067504 0.039484 0.003500 -0.067788 0.039367 0.003500 -0.068031 0.039180 0.003500 -0.068218 0.038937 0.003500 -0.068335 0.038653 0.003500 -0.068375 0.038349 0.003500 -0.068335 0.038045 0.003500 -0.068218 0.037762 0.003500 -0.068031 0.037518 0.003500 -0.067788 0.037331 0.003500 -0.067504 0.037214 0.003500 -0.067200 0.037174 0.003500 -0.066896 0.037214 0.003500 -0.066613 0.037331 0.003500 -0.066369 0.037518 0.003500 -0.066182 0.037762 0.003500 -0.066065 0.038045 0.003500 -0.059025 0.053349 0.003500 -0.059065 0.053653 0.003500 -0.059182 0.053937 0.003500 -0.059369 0.054180 0.003500 -0.059612 0.054367 0.003500 -0.059896 0.054484 0.003500 -0.060200 0.054524 0.003500 -0.060504 0.054484 0.003500 -0.060788 0.054367 0.003500 -0.061031 0.054180 0.003500 -0.061218 0.053937 0.003500 -0.061335 0.053653 0.003500 -0.061375 0.053349 0.003500 -0.061335 0.053045 0.003500 -0.061218 0.052762 0.003500 -0.061031 0.052518 0.003500 -0.060788 0.052331 0.003500 -0.060504 0.052214 0.003500 -0.060200 0.052174 0.003500 -0.059896 0.052214 0.003500 -0.059612 0.052331 0.003500 -0.059369 0.052518 0.003500 -0.059182 0.052762 0.003500 -0.059065 0.053045 0.003500 -0.054700 0.097062 0.003500 -0.055200 0.096196 0.003500 -0.054700 0.095330 0.003500 -0.055200 0.094464 0.003500 -0.054700 0.093598 0.003500 -0.055200 0.092732 0.003500 -0.054700 0.091866 0.003500 -0.055200 0.091000 0.003500 -0.054700 0.090134 0.003500 -0.055200 0.089268 0.003500 -0.054700 0.088402 0.003500 -0.055200 0.087536 0.003500 -0.054700 0.086670 0.003500 -0.055200 0.085804 0.003500 -0.054700 0.084938 0.003500 -0.055200 0.084071 0.003500 -0.054700 0.083205 0.003500 -0.055200 0.082339 0.003500 -0.054700 0.081473 0.003500 -0.055200 0.080607 0.003500 -0.054700 0.079741 0.003500 -0.055200 0.078875 0.003500 -0.054700 0.078009 0.003500 -0.055200 0.077143 0.003500 -0.054700 0.076277 0.003500 -0.055200 0.075411 0.003500 -0.054700 0.074545 0.003500 -0.055200 0.073679 0.003500 -0.054700 0.072813 0.003500 -0.055200 0.071947 0.003500 -0.054700 0.071081 0.003500 -0.055200 0.070215 0.003500 -0.054700 0.069349 0.003500 -0.059200 0.066849 0.003500 -0.059200 0.056703 0.003500 -0.058732 0.056526 0.003500 -0.058294 0.056284 0.003500 -0.057894 0.055982 0.003500 -0.057542 0.055626 0.003500 -0.057245 0.055224 0.003500 -0.057007 0.054783 0.003500 -0.056835 0.054313 0.003500 -0.056732 0.053823 0.003500 -0.056700 0.053324 0.003500 -0.056739 0.052825 0.003500 -0.056850 0.052337 0.003500 -0.057028 0.051869 0.003500 -0.064028 0.036869 0.003500 -0.064284 0.036413 0.003500 -0.064606 0.036000 0.003500 -0.064985 0.035639 0.003500 -0.065413 0.035339 0.003500 -0.065882 0.035107 0.003500 -0.066380 0.034947 0.003500 -0.066896 0.034862 0.003500 -0.067419 0.034856 0.003500 -0.067937 0.034928 0.003500 -0.068439 0.035076 0.003500 -0.068913 0.035297 0.003500 -0.069349 0.035586 0.003500 -0.069737 0.035937 0.003500 -0.070068 0.036342 0.003500 -0.070335 0.036792 0.003500 -0.070532 0.037277 0.003500 -0.070654 0.037785 0.003500 -0.070700 0.038306 0.003500 -0.070667 0.038829 0.003500 -0.070557 0.039340 0.003500 -0.070372 0.039829 0.003500 -0.063372 0.054829 0.003500 -0.063318 0.054939 0.003500 -0.063261 0.055046 0.003500 -0.058700 0.097062 0.003500</float_array>
          <technique_common>
            <accessor source="#gripper_clamp_left-mesh-positions-array" count="249" stride="3">
              <param name="X" type="float"/>
              <param name="Y" type="float"/>
              <param name="Z" type="float"/>
            </accessor>
          </technique_common>
        </source>
        <source id="gripper_clamp_left-mesh-normals">
          <float_array id="gripper_clamp_left-mesh-normals-array" count="1734">-0.000000 -1.000000 -0.000000 -0.000000 -1.000000 -0.000000 -0.000000 -1.000000 -0.000000 -0.000000 -1.000000 -0.000000 0.000000 -0.000000 -1.000000 0.000000 -0.000000 -1.000000 0.000000 -0.000000 -1.000000 0.000000 -0.000000 -1.000000 0.000000 -0.000000 -1.000000 0.000000 -0.000000 -1.000000 0.000000 -0.000000 -1.000000 0.000000 -0.000000 -1.000000 0.000000 -0.000000 -1.000000 0.000000 -0.000000 -1.000000 0.000000 -0.000000 -1.000000 0.000000 -0.000000 -1.000000 0.000000 -0.000000 -1.000000 0.000000 -0.000000 -1.000000 0.000000 -0.000000 -1.000000 0.000000 -0.000000 -1.000000 0.000000 -0.000000 -1.000000 0.000000 -0.000000 -1.000000 0.000000 -0.000000 -1.000000 0.000000 -0.000000 -1.000000 0.000000 -0.000000 -1.000000 0.000000 -0.000000 -1.000000 0.000000 -0.000000 -1.000000 0.000000 -0.000000 -1.000000 0.000000 -0.000000 -1.000000 0.000000 -0.000000 -1.000000 0.000000 -0.000000 -1.000000 0.000000 -0.000000 -1.000000 0.000000 -0.000000 -1.000000 0.000000 -0.000000 -1.000000 0.000000 -0.000000 -1.000000 0.000000 -0.000000 -1.000000 0.000000 -0.000000 -1.000000 0.000000 -0.000000 -1.000000 0.000000 -0.000000 -1.000000 0.000000 -0.000000 -1.000000 0.000000 -0.000000 -1.000000 0.000000 -0.000000 -1.000000 0.000000 -0.000000 -1.000000 0.000000 -0.000000 -1.000000 0.000000 -0.000000 -1.000000 0.000000 -0.000000 -1.000000 0.000000 -0.000000 -1.000000 0.000000 -0.000000 -1.000000 0.000000 -0.000000 -1.000000 0.000000 -0.000000 -1.000000 0.000000 -0.000000 -1.000000 0.000000 -0.000000 -1.000000 0.000000 -0.000000 -1.000000 0.000000 -0.000000 -1.000000 0.000000 -0.000000 -1.000000 0.000000 -0.000000 -1.000000 0.000000 -0.000000 -1.000000 0.000000 -0.000000 -1.000000 0.000000 -0.000000 -1.000000 0.000000 -0.000000 -1.000000 0.000000 -0.000000 -1.000000 0.000000 -0.000000 -1.000000 0.000000 -0.000000 -1.000000 0.000000 -0.000000 -1.000000 0.000000 -0.000000 -1.000000 0.000000 -0.000000 -1.000000 0.000000 -0.000000 -1.000000 0.000000 -0.000000 -1.000000 0.000000 -0.000000 -1.000000 0.000000 -0.000000 -1.000000 0.000000 -0.000000 -1.000000 0.000000 -0.000000 -1.000000 0.000000 -0.000000 -1.000000 0.000000 -0.000000 -1.000000 0.000000 -0.000000 -1.000000 0.000000 -0.000000 -1.000000 0.000000 -0.000000 -1.000000 0.000000 -0.000000 -1.000000 0.000000 -0.000000 -1.000000 0.000000 -0.000000 -1.000000 0.000000 -0.000000 -1.000000 0.000000 -0.000000 -1.000000 0.000000 -0.000000 -1.000000 0.000000 -0.000000 -1.000000 0.000000 -0.000000 -1.000000 0.000000 -0.000000 -1.000000 0.000000 -0.000000 -1.000000 0.000000 -0.000000 -1.000000 0.000000 -0.000000 -1.000000 0.000000 -0.000000 -1.000000 0.000000 -0.000000 -1.000000 0.000000 -0.000000 -1.000000 0.000000 -0.000000 -1.000000 0.000000 -0.000000 -1.000000 0.000000 -0.000000 -1.000000 0.000000 -0.000000 -1.000000 0.000000 -0.000000 -1.000000 0.000000 -0.000000 -1.000000 0.000000 -0.000000 -1.000000 0.000000 -0.000000 -1.000000 0.000000 -0.000000 -1.000000 0.000000 -0.000000 -1.000000 0.000000 -0.000000 -1.000000 0.000000 -0.000000 -1.000000 0.000000 -0.000000 -1.000000 0.000000 -0.000000 -1.000000 0.000000 -0.000000 -1.000000 0.000000 -0.000000 -1.000000 0.000000 -0.000000 -1.000000 0.000000 -0.000000 -1.000000 0.000000 -0.000000 -1.000000 0.000000 -0.000000 -1.000000 0.000000 -0.000000 -1.000000 0.000000 -0.000000 -1.000000 0.000000 -0.000000 -1.000000 0.000000 -0.000000 -1.000000 0.000000 -0.000000 -1.000000 0.000000 -0.000000 -1.000000 0.000000 -0.000000 -1.000000 0.000000 -0.000000 -1.000000 0.000000 -0.000000 -1.000000 0.000000 -0.000000 -1.000000 0.000000 -0.000000 -1.000000 0.000000 -0.000000 -1.000000 0.000000 -0.000000 -1.000000 0.000000 -0.000000 -1.000000 0.000000 -0.000000 -1.000000 0.000000 -0.000000 -1.000000 0.000000 -0.000000 -1.000000 0.000000 -0.000000 -1.000000 -1.000000 0.000000 -0.000000 -1.000000 0.000000 -0.000000 -1.000000 0.000000 -0.000000 -1.000000 0.000000 -0.000000 -1.000000 0.000000 -0.000000 -1.000000 0.000000 -0.000000 -0.965926 -0.258819 -0.000000 -0.965926 -0.258819 -0.000000 -1.000000 -0.000000 -0.000000 -1.000000 -0.000000 -0.000000 -0.965926 0.258819 -0.000000 -0.965926 0.258819 -0.000000 -0.866025 0.500000 -0.000000 -0.866025 0.500000 -0.000000 -0.707107 0.707107 -0.000000 -0.707107 0.707107 -0.000000 -0.500000 0.866025 -0.000000 -0.500000 0.866025 -0.000000 -0.258819 0.965926 -0.000000 -0.258819 0.965926 -0.000000 0.000000 1.000000 0.000000 0.000000 1.000000 0.000000 0.258819 0.965926 0.000000 0.258819 0.965926 0.000000 0.500000 0.866025 0.000000 0.500000 0.866025 0.000000 0.707107 0.707107 0.000000 0.707107 0.707107 0.000000 0.866025 0.500000 0.000000 0.866025 0.500000 0.000000 0.965926 0.258819 0.000000 0.965926 0.258819 0.000000 1.000000 0.000000 0.000000 1.000000 -0.000000 0.000000 0.965926 -0.258819 0.000000 0.965926 -0.258819 0.000000 0.866025 -0.500000 0.000000 0.866025 -0.500000 0.000000 0.707107 -0.707107 0.000000 0.707107 -0.707107 0.000000 0.500000 -0.866025 0.000000 0.500000 -0.866025 0.000000 0.258819 -0.965926 0.000000 0.258819 -0.965926 0.000000 0.000000 -1.000000 0.000000 0.000000 -1.000000 0.000000 -0.258819 -0.965926 -0.000000 -0.258819 -0.965926 -0.000000 -0.500000 -0.866025 -0.000000 -0.500000 -0.866025 -0.000000 -0.707107 -0.707107 -0.000000 -0.707107 -0.707107 -0.000000 -0.866025 -0.500000 -0.000000 -0.866025 -0.500000 -0.000000 -0.965926 -0.258819 -0.000000 -0.965926 -0.258819 -0.000000 -1.000000 -0.000000 -0.000000 -1.000000 -0.000000 -0.000000 -0.965926 0.258819 -0.000000 -0.965926 0.258819 -0.000000 -0.866025 0.500000 -0.000000 -0.866025 0.500000 -0.000000 -0.707107 0.707107 -0.000000 -0.707107 0.707107 -0.000000 -0.500000 0.866025 -0.000000 -0.500000 0.866025 -0.000000 -0.258819 0.965926 -0.000000 -0.258819 0.965926 -0.000000 0.000000 1.000000 0.000000 0.000000 1.000000 0.000000 0.258819 0.965926 0.000000 0.258819 0.965926 0.000000 0.500000 0.866025 0.000000 0.500000 0.866025 0.000000 0.707107 0.707107 0.000000 0.707107 0.707107 0.000000 0.866025 0.500000 0.000000 0.866025 0.500000 0.000000 0.965926 0.258819 0.000000 0.965926 0.258819 0.000000 1.000000 0.000000 0.000000 1.000000 -0.000000 0.000000 0.965926 -0.258819 0.000000 0.965926 -0.258819 0.000000 0.866025 -0.500000 0.000000 0.866025 -0.500000 0.000000 0.707107 -0.707107 0.000000 0.707107 -0.707107 0.000000 0.500000 -0.866025 0.000000 0.500000 -0.866025 0.000000 0.258819 -0.965926 0.000000 0.258819 -0.965926 0.000000 0.000000 -1.000000 0.000000 0.000000 -1.000000 0.000000 -0.258819 -0.965926 -0.000000 -0.258819 -0.965926 -0.000000 -0.500000 -0.866025 -0.000000 -0.500000 -0.866025 -0.000000 -0.707107 -0.707107 -0.000000 -0.707107 -0.707107 -0.000000 -0.866025 -0.500000 -0.000000 -0.866025 -0.500000 -0.000000 0.866025 -0.500000 0.000000 0.866025 -0.500000 0.000000 0.866025 -0.500000 0.000000 0.866025 -0.500000 0.000000 0.866025 0.500000 0.000000 0.866025 0.500000 0.000000 0.866025 0.500000 0.000000 0.866025 0.500000 0.000000 0.866025 -0.500000 0.000000 0.866025 -0.500000 0.000000 0.866025 -0.500000 0.000000 0.866025 -0.500000 0.000000 0.866025 0.500000 0.000000 0.866025 0.500000 0.000000 0.866025 0.500000 0.000000 0.866025 0.500000 0.000000 0.866025 -0.500000 0.000000 0.866025 -0.500000 0.000000 0.866025 -0.500000 0.000000 0.866025 -0.500000 0.000000 0.866025 0.500000 0.000000 0.866025 0.500000 0.000000 0.866025 0.500000 0.000000 0.866025 0.500000 0.000000 0.866025 -0.500000 0.000000 0.866025 -0.500000 0.000000 0.866025 -0.500000 0.000000 0.866025 -0.500000 0.000000 0.866025 0.500000 0.000000 0.866025 0.500000 0.000000 0.866025 0.500000 0.000000 0.866025 0.500000 0.000000 0.866025 -0.500000 0.000000 0.866025 -0.500000 0.000000 0.866025 -0.500000 0.000000 0.866025 -0.500000 0.000000 0.866025 0.500000 0.000000 0.866025 0.500000 0.000000 0.866025 0.500000 0.000000 0.866025 0.500000 0.000000 0.866025 -0.500000 0.000000 0.866025 -0.500000 0.000000 0.866025 -0.500000 0.000000 0.866025 -0.500000 0.000000 0.866025 0.500000 0.000000 0.866025 0.500000 0.000000 0.866025 0.500000 0.000000 0.866025 0.500000 0.000000 0.866025 -0.500000 0.000000 0.866025 -0.500000 0.000000 0.866025 -0.500000 0.000000 0.866025 -0.500000 0.000000 0.866025 0.500000 0.000000 0.866025 0.500000 0.000000 0.866025 0.500000 0.000000 0.866025 0.500000 0.000000 0.866025 -0.500000 0.000000 0.866025 -0.500000 0.000000 0.866025 -0.500000 0.000000 0.866025 -0.500000 0.000000 0.866025 0.500000 0.000000 0.866025 0.500000 0.000000 0.866025 0.500000 0.000000 0.866025 0.500000 0.000000 0.866025 -0.500000 0.000000 0.866025 -0.500000 0.000000 0.866025 -0.500000 0.000000 0.866025 -0.500000 0.000000 0.866025 0.500000 0.000000 0.866025 0.500000 0.000000 0.866025 0.500000 0.000000 0.866025 0.500000 0.000000 0.866025 -0.500000 0.000000 0.866025 -0.500000 0.000000 0.866025 -0.500000 0.000000 0.866025 -0.500000 0.000000 0.866025 0.500000 0.000000 0.866025 0.500000 0.000000 0.866025 0.500000 0.000000 0.866025 0.500000 0.000000 0.866025 -0.500000 0.000000 0.866025 -0.500000 0.000000 0.866025 -0.500000 0.000000 0.866025 -0.500000 0.000000 0.866025 0.500000 0.000000 0.866025 0.500000 0.000000 0.866025 0.500000 0.000000 0.866025 0.500000 0.000000 0.866025 -0.500000 0.000000 0.866025 -0.500000 0.000000 0.866025 -0.500000 0.000000 0.866025 -0.500000 0.000000 0.866025 0.500000 0.000000 0.866025 0.500000 0.000000 0.866025 0.500000 0.000000 0.866025 0.500000 0.000000 0.866025 -0.500000 0.000000 0.866025 -0.500000 0.000000 0.866025 -0.500000 0.000000 0.866025 -0.500000 0.000000 0.866025 0.500000 0.000000 0.866025 0.500000 0.000000 0.866025 0.500000 0.000000 0.866025 0.500000 0.000000 0.866025 -0.500000 0.000000 0.866025 -0.500000 0.000000 0.866025 -0.500000 0.000000 0.866025 -0.500000 0.000000 0.866025 0.500000 0.000000 0.866025 0.500000 0.000000 0.866025 0.500000 0.000000 0.866025 0.500000 0.000000 0.866025 -0.500000 0.000000 0.866025 -0.500000 0.000000 0.866025 -0.500000 0.000000 0.866025 -0.500000 0.000000 0.866025 0.500000 0.000000 0.866025 0.500000 0.000000 0.866025 0.500000 0.000000 0.866025 0.500000 0.000000 0.866025 -0.500000 0.000000 0.866025 -0.500000 0.000000 0.866025 -0.500000 0.000000 0.866025 -0.500000 0.000000 0.866025 0.500000 0.000000 0.866025 0.500000 0.000000 0.866025 0.500000 0.000000 0.866025 0.500000 0.000000 0.485643 -0.874157 0.000000 0.485643 -0.874157 0.000000 0.485643 -0.874157 0.000000 0.485643 -0.874157 0.000000 0.485643 -0.874157 0.000000 1.000000 -0.000000 0.000000 1.000000 -0.000000 0.000000 1.000000 -0.000000 0.000000 1.000000 -0.000000 0.000000 0.285714 0.958315 0.000000 0.285714 0.958315 0.000000 0.419497 0.907757 0.000000 0.419497 0.907757 0.000000 0.544699 0.838632 0.000000 0.544699 0.838632 0.000000 0.658760 0.752353 0.000000 0.658760 0.752353 0.000000 0.759347 0.650686 0.000000 0.759347 0.650686 0.000000 0.844402 0.535710 0.000000 0.844402 0.535710 0.000000 0.912186 0.409776 0.000000 0.912186 0.409776 0.000000 0.961312 0.275461 0.000000 0.961312 0.275461 0.000000 0.990776 0.135512 0.000000 0.990776 0.135512 0.000000 0.999974 -0.007209 0.000000 0.999974 -0.007209 0.000000 0.988719 -0.149783 0.000000 0.988719 -0.149783 0.000000 0.957241 -0.289293 0.000000 0.957241 -0.289293 0.000000 0.906183 -0.422885 0.000000 0.906183 -0.422885 0.000000 0.906183 -0.422885 0.000000 0.906183 -0.422885 0.000000 0.833034 -0.553222 0.000000 0.833034 -0.553222 0.000000 0.741276 -0.671200 0.000000 0.741276 -0.671200 0.000000 0.632960 -0.774185 0.000000 0.632960 -0.774185 0.000000 0.510504 -0.859876 0.000000 0.510504 -0.859876 0.000000 0.376644 -0.926358 0.000000 0.376644 -0.926358 0.000000 0.234371 -0.972147 0.000000 0.234371 -0.972147 0.000000 0.086862 -0.996220 0.000000 0.086862 -0.996220 0.000000 -0.062587 -0.998040 -0.000000 -0.062587 -0.998040 -0.000000 -0.210638 -0.977564 -0.000000 -0.210638 -0.977564 -0.000000 -0.353984 -0.935252 -0.000000 -0.353984 -0.935252 -0.000000 -0.489422 -0.872047 -0.000000 -0.489422 -0.872047 -0.000000 -0.613928 -0.789362 -0.000000 -0.613928 -0.789362 -0.000000 -0.724719 -0.689045 -0.000000 -0.724719 -0.689045 -0.000000 -0.819321 -0.573335 -0.000000 -0.819321 -0.573335 -0.000000 -0.895621 -0.444818 -0.000000 -0.895621 -0.444818 -0.000000 -0.951914 -0.306364 -0.000000 -0.951914 -0.306364 -0.000000 -0.986944 -0.161067 -0.000000 -0.986944 -0.161067 -0.000000 -0.999926 -0.012171 -0.000000 -0.999926 -0.012171 -0.000000 -0.990572 0.136996 -0.000000 -0.990572 0.136996 -0.000000 -0.959090 0.283103 -0.000000 -0.959090 0.283103 -0.000000 -0.906183 0.422885 -0.000000 -0.906183 0.422885 -0.000000 -0.906183 0.422885 -0.000000 -0.906183 0.422885 -0.000000 -0.890910 0.454180 -0.000000 -0.890910 0.454180 -0.000000 -0.874557 0.484923 -0.000000 -0.874557 0.484923 -0.000000 -0.857143 0.515079 -0.000000 -0.857143 0.515079 -0.000000 -0.707107 0.707107 -0.000000 -0.707107 0.707107 -0.000000 -0.707107 0.707107 -0.000000 -0.707107 0.707107 -0.000000 0.000000 1.000000 -0.000000 0.000000 1.000000 -0.000000 0.000000 1.000000 -0.000000 0.000000 1.000000 -0.000000 -0.000000 0.000000 1.000000 -0.000000 0.000000 1.000000 -0.000000 0.000000 1.000000 -0.000000 0.000000 1.000000 -0.000000 0.000000 1.000000 -0.000000 0.000000 1.000000 -0.000000 0.000000 1.000000 -0.000000 0.000000 1.000000 -0.000000 0.000000 1.000000 -0.000000 0.000000 1.000000 -0.000000 0.000000 1.000000 -0.000000 0.000000 1.000000 -0.000000 0.000000 1.000000 -0.000000 0.000000 1.000000 -0.000000 0.000000 1.000000 -0.000000 0.000000 1.000000 -0.000000 0.000000 1.000000 -0.000000 0.000000 1.000000 -0.000000 0.000000 1.000000 -0.000000 0.000000 1.000000 -0.000000 0.000000 1.000000 -0.000000 0.000000 1.000000 -0.000000 0.000000 1.000000 -0.000000 0.000000 1.000000 -0.000000 0.000000 1.000000 -0.000000 0.000000 1.000000 -0.000000 0.000000 1.000000 -0.000000 0.000000 1.000000 -0.000000 0.000000 1.000000 -0.000000 0.000000 1.000000 -0.000000 0.000000 1.000000 -0.000000 0.000000 1.000000 -0.000000 0.000000 1.000000 -0.000000 0.000000 1.000000 -0.000000 0.000000 1.000000 -0.000000 0.000000 1.000000 -0.000000 0.000000 1.000000 -0.000000 0.000000 1.000000 -0.000000 0.000000 1.000000 -0.000000 0.000000 1.000000 -0.000000 0.000000 1.000000 -0.000000 0.000000 1.000000 -0.000000 0.000000 1.000000 -0.000000 0.000000 1.000000 -0.000000 0.000000 1.000000 -0.000000 0.000000 1.000000 -0.000000 0.000000 1.000000 -0.000000 0.000000 1.000000 -0.000000 0.000000 1.000000 -0.000000 0.000000 1.000000 -0.000000 0.000000 1.000000 -0.000000 0.000000 1.000000 -0.000000 0.000000 1.000000 -0.000000 0.000000 1.000000 -0.000000 0.000000 1.000000 -0.000000 0.000000 1.000000 -0.000000 0.000000 1.000000 -0.000000 0.000000 1.000000 -0.000000 0.000000 1.000000 -0.000000 0.000000 1.000000 -0.000000 0.000000 1.000000 -0.000000 0.000000 1.000000 -0.000000 0.000000 1.000000 -0.000000 0.000000 1.000000 -0.000000 0.000000 1.000000 -0.000000 0.000000 1.000000 -0.000000 0.000000 1.000000 -0.000000 0.000000 1.000000 -0.000000 0.000000 1.000000 -0.000000 0.000000 1.000000 -0.000000 0.000000 1.000000 -0.000000 0.000000 1.000000 -0.000000 0.000000 1.000000 -0.000000 0.000000 1.000000 -0.000000 0.000000 1.000000 -0.000000 0.000000 1.000000 -0.000000 0.000000 1.000000 -0.000000 0.000000 1.000000 -0.000000 0.000000 1.000000 -0.000000 0.000000 1.000000 -0.000000 0.000000 1.000000 -0.000000 0.000000 1.000000 -0.000000 0.000000 1.000000 -0.000000 0.000000 1.000000 -0.000000 0.000000 1.000000 -0.000000 0.000000 1.000000 -0.000000 0.000000 1.000000 -0.000000 0.000000 1.000000 -0.000000 0.000000 1.000000 -0.000000 0.000000 1.000000 -0.000000 0.000000 1.000000 -0.000000 0.000000 1.000000 -0.000000 0.000000 1.000000 -0.000000 0.000000 1.000000 -0.000000 0.000000 1.000000 -0.000000 0.000000 1.000000 -0.000000 0.000000 1.000000 -0.000000 0.000000 1.000000 -0.000000 0.000000 1.000000 -0.000000 0.000000 1.000000 -0.000000 0.000000 1.000000 -0.000000 0.000000 1.000000 -0.000000 0.000000 1.000000 -0.000000 0.000000 1.000000 -0.000000 0.000000 1.000000 -0.000000 0.000000 1.000000 -0.000000 0.000000 1.000000 -0.000000 0.000000 1.000000 -0.000000 0.000000 1.000000 -0.000000 0.000000 1.000000 -0.000000 0.000000 1.000000 -0.000000 0.000000 1.000000 -0.000000 0.000000 1.000000 -0.000000 0.000000 1.000000 -0.000000 0.000000 1.000000 -0.000000 0.000000 1.000000 -0.000000 0.000000 1.000000 -0.000000 0.000000 1.000000 -0.000000 0.000000 1.000000 -0.000000 0.000000 1.000000 -0.000000 0.000000 1.000000 -0.000000 0.000000 1.000000 -0.000000 0.000000 1.000000</float_array>
          <technique_common>
            <accessor source="#gripper_clamp_left-mesh-normals-array" count="578" stride="3">
              <param name="X" type="float"/>
              <param name="Y" type="float"/>
              <param name="Z" type="float"/>
            </accessor>
          </technique_common>
        </source>
        <vertices id="gripper_clamp_left-mesh-vertices">
          <input semantic="POSITION" source="#gripper_clamp_left-mesh-positions"/>
        </vertices>
        <triangles material="Opaque_246_246_243_" count="502">
          <input semantic="VERTEX" source="#gripper_clamp_left-mesh-vertices" offset="0"/>
          <input semantic="NORMAL" source="#gripper_clamp_left-mesh-normals" offset="1"/>
          <p>0 0 1 1 3 2 3 2 1 1 2 3 5 4 6 5 4 6 4 6 6 5 8 7 4 6 8 7 10 8 10 8 8 7 9 9 6 5 7 10 8 7 11 11 12 12 10 8 10 8 12 12 4 6 13 13 14 14 12 12 12 12 14 14 4 6 15 15 16 16 14 14 14 14 16 16 4 6 17 17 18 18 16 16 16 16 18 18 4 6 19 19 20 20 18 18 18 18 20 20 4 6 21 21 22 22 20 20 20 20 22 22 4 6 23 23 24 24 22 22 22 22 24 24 3 25 22 22 3 25 4 6 4 6 3 25 38 26 38 26 3 25 2 27 25 28 26 29 24 24 24 24 26 29 3 25 27 30 28 31 26 29 26 29 28 31 3 25 29 32 30 33 28 31 28 31 30 33 3 25 31 34 32 35 30 33 30 33 32 35 3 25 33 36 34 37 32 35 32 35 34 37 3 25 35 38 36 39 34 37 34 37 36 39 3 25 36 39 37 40 3 25 0 41 39 42 1 43 1 43 39 42 110 44 1 43 110 44 77 45 77 45 110 44 111 46 77 45 111 46 112 47 40 48 105 49 39 42 39 42 105 49 106 50 39 42 106 50 107 51 105 49 40 48 104 52 104 52 40 48 41 53 104 52 41 53 103 54 103 54 41 53 42 55 103 54 42 55 102 56 102 56 42 55 43 57 102 56 43 57 44 58 102 56 44 58 51 59 51 59 44 58 45 60 51 59 45 60 50 61 50 61 45 60 46 62 50 61 46 62 49 63 49 63 46 62 47 64 49 63 47 64 48 65 52 66 122 67 51 59 51 59 122 67 123 68 51 59 123 68 124 69 53 70 78 71 52 66 52 66 78 71 79 72 52 66 79 72 80 73 53 70 54 74 78 71 78 71 54 74 55 75 78 71 55 75 101 76 101 76 55 75 56 77 101 76 56 77 100 78 100 78 56 77 57 79 100 78 57 79 99 80 99 80 57 79 58 81 99 80 58 81 98 82 98 82 58 81 97 83 97 83 58 81 59 84 97 83 59 84 96 85 96 85 59 84 60 86 96 85 60 86 95 87 95 87 60 86 61 88 95 87 61 88 94 89 94 89 61 88 93 90 93 90 61 88 62 91 93 90 62 91 92 92 92 92 62 91 63 93 92 92 63 93 91 94 91 94 63 93 64 95 91 94 64 95 90 96 90 96 64 95 65 97 90 96 65 97 66 98 90 96 66 98 73 99 73 99 66 98 67 100 73 99 67 100 68 101 73 99 68 101 72 102 72 102 68 101 69 103 72 102 69 103 71 104 71 104 69 103 70 105 74 106 86 107 73 99 73 99 86 107 87 108 73 99 87 108 88 109 75 110 114 111 74 106 74 106 114 111 115 112 74 106 115 112 116 113 75 110 76 114 114 111 114 111 76 114 77 45 114 111 77 45 113 115 113 115 77 45 112 47 81 116 74 106 80 73 80 73 74 106 116 113 80 73 116 113 52 66 52 66 116 113 117 117 52 66 117 117 118 118 81 116 82 119 74 106 74 106 82 119 83 120 74 106 83 120 84 121 84 121 85 122 74 106 74 106 85 122 86 107 88 109 89 123 73 99 73 99 89 123 90 96 107 51 108 124 39 42 39 42 108 124 109 125 39 42 109 125 110 44 118 118 119 126 52 66 52 66 119 126 120 127 52 66 120 127 121 128 121 128 122 67 52 66 124 69 125 129 51 59 51 59 125 129 102 56 77 130 126 131 1 132 1 132 126 131 127 133 1 132 127 133 38 134 38 134 2 135 1 132 129 136 79 137 128 138 128 138 79 137 78 139 128 138 78 139 151 140 151 140 78 139 101 141 151 140 101 141 150 142 150 142 101 141 100 143 150 142 100 143 149 144 149 144 100 143 99 145 149 144 99 145 148 146 148 146 99 145 98 147 148 146 98 147 147 148 147 148 98 147 97 149 147 148 97 149 146 150 146 150 97 149 96 151 146 150 96 151 145 152 145 152 96 151 95 153 145 152 95 153 144 154 144 154 95 153 94 155 144 154 94 155 143 156 143 156 94 155 93 157 143 156 93 157 142 158 142 158 93 157 92 159 142 158 92 159 141 160 141 160 92 159 91 161 141 160 91 161 140 162 140 162 91 161 90 163 140 162 90 163 139 164 139 164 90 163 89 165 139 164 89 165 138 166 138 166 89 165 88 167 138 166 88 167 137 168 137 168 88 167 87 169 137 168 87 169 136 170 136 170 87 169 86 171 136 170 86 171 135 172 135 172 86 171 85 173 135 172 85 173 134 174 134 174 85 173 84 175 134 174 84 175 133 176 133 176 84 175 83 177 133 176 83 177 132 178 132 178 83 177 82 179 132 178 82 179 131 180 131 180 82 179 81 181 131 180 81 181 130 182 130 182 81 181 80 183 130 182 80 183 129 136 129 136 80 183 79 137 153 184 103 185 152 186 152 186 103 185 102 187 152 186 102 187 175 188 175 188 102 187 125 189 175 188 125 189 174 190 174 190 125 189 124 191 174 190 124 191 173 192 173 192 124 191 123 193 173 192 123 193 172 194 172 194 123 193 122 195 172 194 122 195 171 196 171 196 122 195 121 197 171 196 121 197 170 198 170 198 121 197 120 199 170 198 120 199 169 200 169 200 120 199 119 201 169 200 119 201 168 202 168 202 119 201 118 203 168 202 118 203 167 204 167 204 118 203 117 205 167 204 117 205 166 206 166 206 117 205 116 207 166 206 116 207 165 208 165 208 116 207 115 209 165 208 115 209 164 210 164 210 115 209 114 211 164 210 114 211 163 212 163 212 114 211 113 213 163 212 113 213 162 214 162 214 113 213 112 215 162 214 112 215 161 216 161 216 112 215 111 217 161 216 111 217 160 218 160 218 111 217 110 219 160 218 110 219 159 220 159 220 110 219 109 221 159 220 109 221 158 222 158 222 109 221 108 223 158 222 108 223 157 224 157 224 108 223 107 225 157 224 107 225 156 226 156 226 107 225 106 227 156 226 106 227 155 228 155 228 106 227 105 229 155 228 105 229 154 230 154 230 105 229 104 231 154 230 104 231 153 184 153 184 104 231 103 185 176 232 177 233 5 234 5 234 177 233 6 235 177 236 178 237 6 238 6 238 178 237 7 239 178 240 179 241 7 242 7 242 179 241 8 243 179 244 180 245 8 246 8 246 180 245 9 247 180 248 181 249 9 250 9 250 181 249 10 251 181 252 182 253 10 254 10 254 182 253 11 255 182 256 183 257 11 258 11 258 183 257 12 259 183 260 184 261 12 262 12 262 184 261 13 263 184 264 185 265 13 266 13 266 185 265 14 267 185 268 186 269 14 270 14 270 186 269 15 271 186 272 187 273 15 274 15 274 187 273 16 275 187 276 188 277 16 278 16 278 188 277 17 279 188 280 189 281 17 282 17 282 189 281 18 283 189 284 190 285 18 286 18 286 190 285 19 287 190 288 191 289 19 290 19 290 191 289 20 291 191 292 192 293 20 294 20 294 192 293 21 295 192 296 193 297 21 298 21 298 193 297 22 299 193 300 194 301 22 302 22 302 194 301 23 303 194 304 195 305 23 306 23 306 195 305 24 307 195 308 196 309 24 310 24 310 196 309 25 311 196 312 197 313 25 314 25 314 197 313 26 315 197 316 198 317 26 318 26 318 198 317 27 319 198 320 199 321 27 322 27 322 199 321 28 323 199 324 200 325 28 326 28 326 200 325 29 327 200 328 201 329 29 330 29 330 201 329 30 331 201 332 202 333 30 334 30 334 202 333 31 335 202 336 203 337 31 338 31 338 203 337 32 339 203 340 204 341 32 342 32 342 204 341 33 343 204 344 205 345 33 346 33 346 205 345 34 347 205 348 206 349 34 350 34 350 206 349 35 351 206 352 207 353 35 354 35 354 207 353 36 355 207 356 208 357 36 358 36 358 208 357 37 359 209 360 0 361 208 362 208 362 0 361 37 363 37 363 0 361 3 364 209 365 210 366 0 367 0 367 210 366 39 368 39 369 210 370 40 371 40 371 210 370 211 372 40 371 211 372 212 373 40 371 212 373 41 374 41 374 212 373 213 375 41 374 213 375 42 376 42 376 213 375 214 377 42 376 214 377 43 378 43 378 214 377 215 379 43 378 215 379 44 380 44 380 215 379 216 381 44 380 216 381 45 382 45 382 216 381 217 383 45 382 217 383 46 384 46 384 217 383 218 385 46 384 218 385 47 386 47 386 218 385 219 387 47 386 219 387 48 388 48 388 219 387 220 389 48 388 220 389 49 390 49 390 220 389 221 391 49 390 221 391 50 392 50 392 221 391 51 393 51 393 221 391 222 394 222 394 223 395 51 393 51 393 223 395 52 396 52 396 223 395 53 397 53 397 223 395 224 398 53 397 224 398 54 399 54 399 224 398 225 400 54 399 225 400 55 401 55 401 225 400 226 402 55 401 226 402 56 403 56 403 226 402 227 404 56 403 227 404 57 405 57 405 227 404 228 406 57 405 228 406 58 407 58 407 228 406 229 408 58 407 229 408 59 409 59 409 229 408 230 410 59 409 230 410 60 411 60 411 230 410 231 412 60 411 231 412 61 413 61 413 231 412 232 414 61 413 232 414 62 415 62 415 232 414 233 416 62 415 233 416 63 417 63 417 233 416 234 418 63 417 234 418 64 419 64 419 234 418 235 420 64 419 235 420 65 421 65 421 235 420 236 422 65 421 236 422 66 423 66 423 236 422 237 424 66 423 237 424 67 425 67 425 237 424 238 426 67 425 238 426 68 427 68 427 238 426 239 428 68 427 239 428 69 429 69 429 239 428 240 430 69 429 240 430 70 431 70 431 240 430 241 432 70 431 241 432 71 433 71 433 241 432 242 434 71 433 242 434 72 435 72 435 242 434 243 436 72 435 243 436 73 437 73 437 243 436 244 438 244 438 245 439 73 437 73 437 245 439 74 440 74 440 245 439 75 441 75 441 245 439 246 442 75 441 246 442 76 443 76 443 246 442 247 444 76 443 247 444 77 445 77 445 247 444 126 446 127 447 248 448 38 449 38 449 248 448 4 450 248 451 176 452 4 453 4 453 176 452 5 454 209 455 159 456 210 457 210 457 159 456 158 458 210 457 158 458 157 459 208 460 207 461 209 455 209 455 207 461 205 462 209 455 205 462 203 463 203 463 205 462 204 464 207 461 206 465 205 462 202 466 201 467 203 463 203 463 201 467 209 455 200 468 199 469 201 467 201 467 199 469 209 455 198 470 197 471 199 469 199 469 197 471 209 455 196 472 195 473 197 471 197 471 195 473 209 455 194 474 193 475 195 473 195 473 193 475 209 455 192 476 191 477 193 475 193 475 191 477 248 478 193 475 248 478 209 455 209 455 248 478 127 479 209 455 127 479 126 480 190 481 189 482 191 477 191 477 189 482 248 478 188 483 187 484 189 482 189 482 187 484 248 478 186 485 185 486 187 484 187 484 185 486 248 478 184 487 183 488 185 486 185 486 183 488 248 478 182 489 181 490 183 488 183 488 181 490 248 478 180 491 179 492 181 490 181 490 179 492 248 478 178 493 177 494 179 492 179 492 177 494 248 478 177 494 176 495 248 478 247 496 165 497 126 480 126 480 165 497 164 498 126 480 164 498 163 499 247 496 246 500 165 497 165 497 246 500 245 501 165 497 245 501 223 502 223 502 245 501 129 503 223 502 129 503 224 504 224 504 129 503 225 505 225 505 129 503 128 506 225 505 128 506 226 507 226 507 128 506 227 508 227 508 128 506 151 509 227 508 151 509 228 510 228 510 151 509 150 511 228 510 150 511 149 512 244 513 136 514 245 501 245 501 136 514 135 515 245 501 135 515 134 516 243 517 239 518 244 513 244 513 239 518 238 519 244 513 238 519 237 520 239 518 243 517 240 521 240 521 243 517 242 522 240 521 242 522 241 523 237 520 236 524 244 513 244 513 236 524 140 525 244 513 140 525 139 526 236 524 235 527 140 525 140 525 235 527 234 528 140 525 234 528 141 529 141 529 234 528 233 530 141 529 233 530 142 531 142 531 233 530 143 532 143 532 233 530 232 533 143 532 232 533 144 534 144 534 232 533 145 535 145 535 232 533 231 536 145 535 231 536 146 537 146 537 231 536 230 538 146 537 230 538 147 539 147 539 230 538 148 540 148 540 230 538 229 541 148 540 229 541 149 512 149 512 229 541 228 510 222 542 172 543 223 502 223 502 172 543 171 544 223 502 171 544 170 545 221 546 216 547 222 542 222 542 216 547 215 548 222 542 215 548 214 549 216 547 221 546 217 550 217 550 221 546 220 551 217 550 220 551 218 552 218 552 220 551 219 553 214 549 213 554 222 542 222 542 213 554 152 555 222 542 152 555 175 556 213 554 212 557 152 555 152 555 212 557 153 558 153 558 212 557 211 559 153 558 211 559 154 560 154 560 211 559 210 457 154 560 210 457 155 561 155 561 210 457 156 562 156 562 210 457 157 459 175 556 174 563 222 542 222 542 174 563 173 564 222 542 173 564 172 543 170 545 169 565 223 502 223 502 169 565 168 566 223 502 168 566 167 567 167 567 166 568 223 502 223 502 166 568 165 497 163 499 162 569 126 480 126 480 162 569 161 570 126 480 161 570 209 455 209 455 161 570 160 571 209 455 160 571 159 456 139 526 138 572 244 513 244 513 138 572 137 573 244 513 137 573 136 514 134 516 133 574 245 501 245 501 133 574 132 575 245 501 132 575 131 576 131 576 130 577 245 501 245 501 130 577 129 503</p>
        </triangles>
      </mesh>
    </geometry>
  </library_geometries>
  <library_visual_scenes>
    <visual_scene id="Scene" name="Scene">
      <node id="gripper_clamp_left-node" name="gripper_clamp_left" type="NODE">
        <instance_geometry url="#gripper_clamp_left-mesh">
          <bind_material>
            <technique_common>
              <instance_material symbol="Opaque_246_246_243_" target="#Opaque_246_246_243_"/>
            </technique_common>
          </bind_material>
        </instance_geometry>
      </node>
    </visual_scene>
  </library_visual_scenes>
  <scene>
    <instance_visual_scene url="#Scene"/>
  </scene>
</COLLADA>
