<?xml version="1.0" encoding="utf-8"?>
<COLLADA xmlns="http://www.collada.org/2005/11/COLLADASchema" version="1.4.1">
  <asset>
    <contributor>
      <authoring_tool>Fusion URDF/XACRO Exporter</authoring_tool>
    </contributor>
    <created>2026-09-04T05:56:34Z</created>
    <modified>2026-09-04T05:56:34Z</modified>
    <unit name="meter" meter="1.0"/>
    <up_axis>Z_UP</up_axis>
  </asset>
  <library_effects>
    <effect id="Opaque_246_246_243_-effect">
      <profile_COMMON>
        <technique sid="common">
          <lambert>
            <emission><color>0 0 0 1</color></emission>
            <ambient><color>0.0000 0.0000 0.0000 1</color></ambient>
            <diffuse><color>0.9647 0.9647 0.9529 1</color></diffuse>
            <reflective><color>0 0 0 1</color></reflective>
            <transparent opaque="A_ONE"><color>1 1 1 1</color></transparent>
            <transparency><float>1</float></transparency>
          </lambert>
        </technique>
      </profile_COMMON>
    </effect>
  </library_effects>
  <library_materials>
    <material id="Opaque_246_246_243_" name="Opaque(246,246,243)">
      <instance_effect url="#Opaque_246_246_243_-effect"/>
    </material>
  </library_materials>
  <library_geometries>
    <geometry id="gripper_right_addition-mesh" name="gripper_right_addition">
      <mesh>
        <source id="gripper_right_addition-mesh-positions">
          <float_array id="gripper_right_addition-mesh-positions-array" count="1848">-0.021250 0.053349 -0.000500 -0.021229 0.053138 -0.000500 -0.021165 0.052935 -0.000500 -0.021062 0.052749 -0.000500 -0.020923 0.052588 -0.000500 -0.020755 0.052458 -0.000500 -0.020565 0.052364 -0.000500 -0.020359 0.052311 -0.000500 -0.020147 0.052300 -0.000500 -0.019937 0.052333 -0.000500 -0.019738 0.052406 -0.000500 -0.019557 0.052519 -0.000500 -0.019403 0.052665 -0.000500 -0.019282 0.052839 -0.000500 -0.019198 0.053035 -0.000500 -0.019155 0.053243 -0.000500 -0.019155 0.053455 -0.000500 -0.019198 0.053663 -0.000500 -0.019282 0.053859 -0.000500 -0.019403 0.054033 -0.000500 -0.019557 0.054179 -0.000500 -0.019738 0.054292 -0.000500 -0.019937 0.054366 -0.000500 -0.020147 0.054398 -0.000500 -0.020359 0.054387 -0.000500 -0.020565 0.054334 -0.000500 -0.020755 0.054240 -0.000500 -0.020923 0.054110 -0.000500 -0.021062 0.053949 -0.000500 -0.021165 0.053763 -0.000500 -0.021229 0.053560 -0.000500 -0.021250 0.053349 -0.003500 -0.021229 0.053560 -0.003500 -0.021165 0.053763 -0.003500 -0.021062 0.053949 -0.003500 -0.020923 0.054110 -0.003500 -0.020755 0.054240 -0.003500 -0.020565 0.054334 -0.003500 -0.020359 0.054387 -0.003500 -0.020147 0.054398 -0.003500 -0.019937 0.054366 -0.003500 -0.019738 0.054292 -0.003500 -0.019557 0.054179 -0.003500 -0.019403 0.054033 -0.003500 -0.019282 0.053859 -0.003500 -0.019198 0.053663 -0.003500 -0.019155 0.053455 -0.003500 -0.019155 0.053243 -0.003500 -0.019198 0.053035 -0.003500 -0.019282 0.052839 -0.003500 -0.019403 0.052665 -0.003500 -0.019557 0.052519 -0.003500 -0.019738 0.052406 -0.003500 -0.019937 0.052333 -0.003500 -0.020147 0.052300 -0.003500 -0.020359 0.052311 -0.003500 -0.020565 0.052364 -0.003500 -0.020755 0.052458 -0.003500 -0.020923 0.052588 -0.003500 -0.021062 0.052749 -0.003500 -0.021165 0.052935 -0.003500 -0.021229 0.053138 -0.003500 0.008750 0.053349 -0.000500 0.008771 0.053138 -0.000500 0.008835 0.052935 -0.000500 0.008938 0.052749 -0.000500 0.009077 0.052588 -0.000500 0.009245 0.052458 -0.000500 0.009435 0.052364 -0.000500 0.009641 0.052311 -0.000500 0.009853 0.052300 -0.000500 0.010063 0.052333 -0.000500 0.010262 0.052406 -0.000500 0.010443 0.052519 -0.000500 0.010597 0.052665 -0.000500 0.010718 0.052839 -0.000500 0.010802 0.053035 -0.000500 0.010845 0.053243 -0.000500 0.010845 0.053455 -0.000500 0.010802 0.053663 -0.000500 0.010718 0.053859 -0.000500 0.010597 0.054033 -0.000500 0.010443 0.054179 -0.000500 0.010262 0.054292 -0.000500 0.010063 0.054366 -0.000500 0.009853 0.054398 -0.000500 0.009641 0.054387 -0.000500 0.009435 0.054334 -0.000500 0.009245 0.054240 -0.000500 0.009077 0.054110 -0.000500 0.008938 0.053949 -0.000500 0.008835 0.053763 -0.000500 0.008771 0.053560 -0.000500 0.008750 0.053349 -0.003500 0.008771 0.053560 -0.003500 0.008835 0.053763 -0.003500 0.008938 0.053949 -0.003500 0.009077 0.054110 -0.003500 0.009245 0.054240 -0.003500 0.009435 0.054334 -0.003500 0.009641 0.054387 -0.003500 0.009853 0.054398 -0.003500 0.010063 0.054366 -0.003500 0.010262 0.054292 -0.003500 0.010443 0.054179 -0.003500 0.010597 0.054033 -0.003500 0.010718 0.053859 -0.003500 0.010802 0.053663 -0.003500 0.010845 0.053455 -0.003500 0.010845 0.053243 -0.003500 0.010802 0.053035 -0.003500 0.010718 0.052839 -0.003500 0.010597 0.052665 -0.003500 0.010443 0.052519 -0.003500 0.010262 0.052406 -0.003500 0.010063 0.052333 -0.003500 0.009853 0.052300 -0.003500 0.009641 0.052311 -0.003500 0.009435 0.052364 -0.003500 0.009245 0.052458 -0.003500 0.009077 0.052588 -0.003500 0.008938 0.052749 -0.003500 0.008835 0.052935 -0.003500 0.008771 0.053138 -0.003500 0.009800 0.055849 -0.000500 0.010126 0.055828 -0.000500 0.010447 0.055764 -0.000500 0.010757 0.055659 -0.000500 0.011050 0.055514 -0.000500 0.011322 0.055332 -0.000500 0.011568 0.055117 -0.000500 0.011783 0.054871 -0.000500 0.011965 0.054599 -0.000500 0.012110 0.054306 -0.000500 0.012215 0.053996 -0.000500 0.012279 0.053675 -0.000500 0.012300 0.053349 -0.000500 0.012279 0.053023 -0.000500 0.012215 0.052702 -0.000500 0.012110 0.052392 -0.000500 0.011965 0.052099 -0.000500 0.011783 0.051827 -0.000500 0.011568 0.051581 -0.000500 0.011322 0.051366 -0.000500 0.011050 0.051184 -0.000500 0.010757 0.051039 -0.000500 0.010447 0.050934 -0.000500 0.010126 0.050870 -0.000500 0.009800 0.050849 -0.000500 0.009800 0.050849 -0.003500 0.010126 0.050870 -0.003500 0.010447 0.050934 -0.003500 0.010757 0.051039 -0.003500 0.011050 0.051184 -0.003500 0.011322 0.051366 -0.003500 0.011568 0.051581 -0.003500 0.011783 0.051827 -0.003500 0.011965 0.052099 -0.003500 0.012110 0.052392 -0.003500 0.012215 0.052702 -0.003500 0.012279 0.053023 -0.003500 0.012300 0.053349 -0.003500 0.012279 0.053675 -0.003500 0.012215 0.053996 -0.003500 0.012110 0.054306 -0.003500 0.011965 0.054599 -0.003500 0.011783 0.054871 -0.003500 0.011568 0.055117 -0.003500 0.011322 0.055332 -0.003500 0.011050 0.055514 -0.003500 0.010757 0.055659 -0.003500 0.010447 0.055764 -0.003500 0.010126 0.055828 -0.003500 0.009800 0.055849 -0.003500 0.009189 0.055773 -0.000500 0.009392 0.055798 -0.000500 0.009596 0.055823 -0.000500 0.009596 0.055823 -0.003500 0.009392 0.055798 -0.003500 0.009189 0.055773 -0.003500 -0.019589 0.055773 -0.000500 -0.017790 0.055566 -0.000500 -0.015991 0.055383 -0.000500 -0.014193 0.055225 -0.000500 -0.012394 0.055092 -0.000500 -0.010596 0.054987 -0.000500 -0.008797 0.054911 -0.000500 -0.006999 0.054865 -0.000500 -0.005200 0.054849 -0.000500 -0.003401 0.054865 -0.000500 -0.001603 0.054911 -0.000500 0.000196 0.054987 -0.000500 0.001994 0.055092 -0.000500 0.003793 0.055225 -0.000500 0.005591 0.055383 -0.000500 0.007390 0.055566 -0.000500 0.007390 0.055566 -0.003500 0.005591 0.055383 -0.003500 0.003793 0.055225 -0.003500 0.001994 0.055092 -0.003500 0.000196 0.054987 -0.003500 -0.001603 0.054911 -0.003500 -0.003401 0.054865 -0.003500 -0.005200 0.054849 -0.003500 -0.006999 0.054865 -0.003500 -0.008797 0.054911 -0.003500 -0.010596 0.054987 -0.003500 -0.012394 0.055092 -0.003500 -0.014193 0.055225 -0.003500 -0.015991 0.055383 -0.003500 -0.017790 0.055566 -0.003500 -0.019589 0.055773 -0.003500 -0.020200 0.055849 -0.000500 -0.019996 0.055823 -0.000500 -0.019792 0.055798 -0.000500 -0.019792 0.055798 -0.003500 -0.019996 0.055823 -0.003500 -0.020200 0.055849 -0.003500 -0.020200 0.050849 -0.000500 -0.020526 0.050870 -0.000500 -0.020847 0.050934 -0.000500 -0.021157 0.051039 -0.000500 -0.021450 0.051184 -0.000500 -0.021722 0.051366 -0.000500 -0.021968 0.051581 -0.000500 -0.022183 0.051827 -0.000500 -0.022365 0.052099 -0.000500 -0.022510 0.052392 -0.000500 -0.022615 0.052702 -0.000500 -0.022679 0.053023 -0.000500 -0.022700 0.053349 -0.000500 -0.022679 0.053675 -0.000500 -0.022615 0.053996 -0.000500 -0.022510 0.054306 -0.000500 -0.022365 0.054599 -0.000500 -0.022183 0.054871 -0.000500 -0.021968 0.055117 -0.000500 -0.021722 0.055332 -0.000500 -0.021450 0.055514 -0.000500 -0.021157 0.055659 -0.000500 -0.020847 0.055764 -0.000500 -0.020526 0.055828 -0.000500 -0.020526 0.055828 -0.003500 -0.020847 0.055764 -0.003500 -0.021157 0.055659 -0.003500 -0.021450 0.055514 -0.003500 -0.021722 0.055332 -0.003500 -0.021968 0.055117 -0.003500 -0.022183 0.054871 -0.003500 -0.022365 0.054599 -0.003500 -0.022510 0.054306 -0.003500 -0.022615 0.053996 -0.003500 -0.022679 0.053675 -0.003500 -0.022700 0.053349 -0.003500 -0.022679 0.053023 -0.003500 -0.022615 0.052702 -0.003500 -0.022510 0.052392 -0.003500 -0.022365 0.052099 -0.003500 -0.022183 0.051827 -0.003500 -0.021968 0.051581 -0.003500 -0.021722 0.051366 -0.003500 -0.021450 0.051184 -0.003500 -0.021157 0.051039 -0.003500 -0.020847 0.050934 -0.003500 -0.020526 0.050870 -0.003500 -0.020200 0.050849 -0.003500 -0.019589 0.050925 -0.000500 -0.019792 0.050900 -0.000500 -0.019996 0.050875 -0.000500 -0.019996 0.050875 -0.003500 -0.019792 0.050900 -0.003500 -0.019589 0.050925 -0.003500 0.009189 0.050925 -0.000500 0.007390 0.051132 -0.000500 0.005591 0.051315 -0.000500 0.003793 0.051474 -0.000500 0.001994 0.051606 -0.000500 0.000196 0.051711 -0.000500 -0.001603 0.051787 -0.000500 -0.003401 0.051833 -0.000500 -0.005200 0.051849 -0.000500 -0.006999 0.051833 -0.000500 -0.008797 0.051787 -0.000500 -0.010596 0.051711 -0.000500 -0.012394 0.051606 -0.000500 -0.014193 0.051474 -0.000500 -0.015991 0.051315 -0.000500 -0.017790 0.051132 -0.000500 -0.017790 0.051132 -0.003500 -0.015991 0.051315 -0.003500 -0.014193 0.051474 -0.003500 -0.012394 0.051606 -0.003500 -0.010596 0.051711 -0.003500 -0.008797 0.051787 -0.003500 -0.006999 0.051833 -0.003500 -0.005200 0.051849 -0.003500 -0.003401 0.051833 -0.003500 -0.001603 0.051787 -0.003500 0.000196 0.051711 -0.003500 0.001994 0.051606 -0.003500 0.003793 0.051474 -0.003500 0.005591 0.051315 -0.003500 0.007390 0.051132 -0.003500 0.009189 0.050925 -0.003500 0.009596 0.050875 -0.000500 0.009392 0.050900 -0.000500 0.009392 0.050900 -0.003500 0.009596 0.050875 -0.003500 -0.021250 0.053349 0.006500 -0.021229 0.053138 0.006500 -0.021165 0.052935 0.006500 -0.021062 0.052749 0.006500 -0.020923 0.052588 0.006500 -0.020755 0.052458 0.006500 -0.020565 0.052364 0.006500 -0.020359 0.052311 0.006500 -0.020147 0.052300 0.006500 -0.019937 0.052333 0.006500 -0.019738 0.052406 0.006500 -0.019557 0.052519 0.006500 -0.019403 0.052665 0.006500 -0.019282 0.052839 0.006500 -0.019198 0.053035 0.006500 -0.019155 0.053243 0.006500 -0.019155 0.053455 0.006500 -0.019198 0.053663 0.006500 -0.019282 0.053859 0.006500 -0.019403 0.054033 0.006500 -0.019557 0.054179 0.006500 -0.019738 0.054292 0.006500 -0.019937 0.054366 0.006500 -0.020147 0.054398 0.006500 -0.020359 0.054387 0.006500 -0.020565 0.054334 0.006500 -0.020755 0.054240 0.006500 -0.020923 0.054110 0.006500 -0.021062 0.053949 0.006500 -0.021165 0.053763 0.006500 -0.021229 0.053560 0.006500 -0.021250 0.053349 0.003500 -0.021229 0.053560 0.003500 -0.021165 0.053763 0.003500 -0.021062 0.053949 0.003500 -0.020923 0.054110 0.003500 -0.020755 0.054240 0.003500 -0.020565 0.054334 0.003500 -0.020359 0.054387 0.003500 -0.020147 0.054398 0.003500 -0.019937 0.054366 0.003500 -0.019738 0.054292 0.003500 -0.019557 0.054179 0.003500 -0.019403 0.054033 0.003500 -0.019282 0.053859 0.003500 -0.019198 0.053663 0.003500 -0.019155 0.053455 0.003500 -0.019155 0.053243 0.003500 -0.019198 0.053035 0.003500 -0.019282 0.052839 0.003500 -0.019403 0.052665 0.003500 -0.019557 0.052519 0.003500 -0.019738 0.052406 0.003500 -0.019937 0.052333 0.003500 -0.020147 0.052300 0.003500 -0.020359 0.052311 0.003500 -0.020565 0.052364 0.003500 -0.020755 0.052458 0.003500 -0.020923 0.052588 0.003500 -0.021062 0.052749 0.003500 -0.021165 0.052935 0.003500 -0.021229 0.053138 0.003500 0.008750 0.053349 0.006500 0.008771 0.053138 0.006500 0.008835 0.052935 0.006500 0.008938 0.052749 0.006500 0.009077 0.052588 0.006500 0.009245 0.052458 0.006500 0.009435 0.052364 0.006500 0.009641 0.052311 0.006500 0.009853 0.052300 0.006500 0.010063 0.052333 0.006500 0.010262 0.052406 0.006500 0.010443 0.052519 0.006500 0.010597 0.052665 0.006500 0.010718 0.052839 0.006500 0.010802 0.053035 0.006500 0.010845 0.053243 0.006500 0.010845 0.053455 0.006500 0.010802 0.053663 0.006500 0.010718 0.053859 0.006500 0.010597 0.054033 0.006500 0.010443 0.054179 0.006500 0.010262 0.054292 0.006500 0.010063 0.054366 0.006500 0.009853 0.054398 0.006500 0.009641 0.054387 0.006500 0.009435 0.054334 0.006500 0.009245 0.054240 0.006500 0.009077 0.054110 0.006500 0.008938 0.053949 0.006500 0.008835 0.053763 0.006500 0.008771 0.053560 0.006500 0.008750 0.053349 0.003500 0.008771 0.053560 0.003500 0.008835 0.053763 0.003500 0.008938 0.053949 0.003500 0.009077 0.054110 0.003500 0.009245 0.054240 0.003500 0.009435 0.054334 0.003500 0.009641 0.054387 0.003500 0.009853 0.054398 0.003500 0.010063 0.054366 0.003500 0.010262 0.054292 0.003500 0.010443 0.054179 0.003500 0.010597 0.054033 0.003500 0.010718 0.053859 0.003500 0.010802 0.053663 0.003500 0.010845 0.053455 0.003500 0.010845 0.053243 0.003500 0.010802 0.053035 0.003500 0.010718 0.052839 0.003500 0.010597 0.052665 0.003500 0.010443 0.052519 0.003500 0.010262 0.052406 0.003500 0.010063 0.052333 0.003500 0.009853 0.052300 0.003500 0.009641 0.052311 0.003500 0.009435 0.052364 0.003500 0.009245 0.052458 0.003500 0.009077 0.052588 0.003500 0.008938 0.052749 0.003500 0.008835 0.052935 0.003500 0.008771 0.053138 0.003500 0.009800 0.055849 0.006500 0.010126 0.055828 0.006500 0.010447 0.055764 0.006500 0.010757 0.055659 0.006500 0.011050 0.055514 0.006500 0.011322 0.055332 0.006500 0.011568 0.055117 0.006500 0.011783 0.054871 0.006500 0.011965 0.054599 0.006500 0.012110 0.054306 0.006500 0.012215 0.053996 0.006500 0.012279 0.053675 0.006500 0.012300 0.053349 0.006500 0.012279 0.053023 0.006500 0.012215 0.052702 0.006500 0.012110 0.052392 0.006500 0.011965 0.052099 0.006500 0.011783 0.051827 0.006500 0.011568 0.051581 0.006500 0.011322 0.051366 0.006500 0.011050 0.051184 0.006500 0.010757 0.051039 0.006500 0.010447 0.050934 0.006500 0.010126 0.050870 0.006500 0.009800 0.050849 0.006500 0.009800 0.050849 0.003500 0.010126 0.050870 0.003500 0.010447 0.050934 0.003500 0.010757 0.051039 0.003500 0.011050 0.051184 0.003500 0.011322 0.051366 0.003500 0.011568 0.051581 0.003500 0.011783 0.051827 0.003500 0.011965 0.052099 0.003500 0.012110 0.052392 0.003500 0.012215 0.052702 0.003500 0.012279 0.053023 0.003500 0.012300 0.053349 0.003500 0.012279 0.053675 0.003500 0.012215 0.053996 0.003500 0.012110 0.054306 0.003500 0.011965 0.054599 0.003500 0.011783 0.054871 0.003500 0.011568 0.055117 0.003500 0.011322 0.055332 0.003500 0.011050 0.055514 0.003500 0.010757 0.055659 0.003500 0.010447 0.055764 0.003500 0.010126 0.055828 0.003500 0.009800 0.055849 0.003500 0.009189 0.055773 0.006500 0.009392 0.055798 0.006500 0.009596 0.055823 0.006500 0.009596 0.055823 0.003500 0.009392 0.055798 0.003500 0.009189 0.055773 0.003500 -0.019589 0.055773 0.006500 -0.017790 0.055566 0.006500 -0.015991 0.055383 0.006500 -0.014193 0.055225 0.006500 -0.012394 0.055092 0.006500 -0.010596 0.054987 0.006500 -0.008797 0.054911 0.006500 -0.006999 0.054865 0.006500 -0.005200 0.054849 0.006500 -0.003401 0.054865 0.006500 -0.001603 0.054911 0.006500 0.000196 0.054987 0.006500 0.001994 0.055092 0.006500 0.003793 0.055225 0.006500 0.005591 0.055383 0.006500 0.007390 0.055566 0.006500 0.007390 0.055566 0.003500 0.005591 0.055383 0.003500 0.003793 0.055225 0.003500 0.001994 0.055092 0.003500 0.000196 0.054987 0.003500 -0.001603 0.054911 0.003500 -0.003401 0.054865 0.003500 -0.005200 0.054849 0.003500 -0.006999 0.054865 0.003500 -0.008797 0.054911 0.003500 -0.010596 0.054987 0.003500 -0.012394 0.055092 0.003500 -0.014193 0.055225 0.003500 -0.015991 0.055383 0.003500 -0.017790 0.055566 0.003500 -0.019589 0.055773 0.003500 -0.020200 0.055849 0.006500 -0.019996 0.055823 0.006500 -0.019792 0.055798 0.006500 -0.019792 0.055798 0.003500 -0.019996 0.055823 0.003500 -0.020200 0.055849 0.003500 -0.020200 0.050849 0.006500 -0.020526 0.050870 0.006500 -0.020847 0.050934 0.006500 -0.021157 0.051039 0.006500 -0.021450 0.051184 0.006500 -0.021722 0.051366 0.006500 -0.021968 0.051581 0.006500 -0.022183 0.051827 0.006500 -0.022365 0.052099 0.006500 -0.022510 0.052392 0.006500 -0.022615 0.052702 0.006500 -0.022679 0.053023 0.006500 -0.022700 0.053349 0.006500 -0.022679 0.053675 0.006500 -0.022615 0.053996 0.006500 -0.022510 0.054306 0.006500 -0.022365 0.054599 0.006500 -0.022183 0.054871 0.006500 -0.021968 0.055117 0.006500 -0.021722 0.055332 0.006500 -0.021450 0.055514 0.006500 -0.021157 0.055659 0.006500 -0.020847 0.055764 0.006500 -0.020526 0.055828 0.006500 -0.020526 0.055828 0.003500 -0.020847 0.055764 0.003500 -0.021157 0.055659 0.003500 -0.021450 0.055514 0.003500 -0.021722 0.055332 0.003500 -0.021968 0.055117 0.003500 -0.022183 0.054871 0.003500 -0.022365 0.054599 0.003500 -0.022510 0.054306 0.003500 -0.022615 0.053996 0.003500 -0.022679 0.053675 0.003500 -0.022700 0.053349 0.003500 -0.022679 0.053023 0.003500 -0.022615 0.052702 0.003500 -0.022510 0.052392 0.003500 -0.022365 0.052099 0.003500 -0.022183 0.051827 0.003500 -0.021968 0.051581 0.003500 -0.021722 0.051366 0.003500 -0.021450 0.051184 0.003500 -0.021157 0.051039 0.003500 -0.020847 0.050934 0.003500 -0.020526 0.050870 0.003500 -0.020200 0.050849 0.003500 -0.019589 0.050925 0.006500 -0.019792 0.050900 0.006500 -0.019996 0.050875 0.006500 -0.019996 0.050875 0.003500 -0.019792 0.050900 0.003500 -0.019589 0.050925 0.003500 0.009189 0.050925 0.006500 0.007390 0.051132 0.006500 0.005591 0.051315 0.006500 0.003793 0.051474 0.006500 0.001994 0.051606 0.006500 0.000196 0.051711 0.006500 -0.001603 0.051787 0.006500 -0.003401 0.051833 0.006500 -0.005200 0.051849 0.006500 -0.006999 0.051833 0.006500 -0.008797 0.051787 0.006500 -0.010596 0.051711 0.006500 -0.012394 0.051606 0.006500 -0.014193 0.051474 0.006500 -0.015991 0.051315 0.006500 -0.017790 0.051132 0.006500 -0.017790 0.051132 0.003500 -0.015991 0.051315 0.003500 -0.014193 0.051474 0.003500 -0.012394 0.051606 0.003500 -0.010596 0.051711 0.003500 -0.008797 0.051787 0.003500 -0.006999 0.051833 0.003500 -0.005200 0.051849 0.003500 -0.003401 0.051833 0.003500 -0.001603 0.051787 0.003500 0.000196 0.051711 0.003500 0.001994 0.051606 0.003500 0.003793 0.051474 0.003500 0.005591 0.051315 0.003500 0.007390 0.051132 0.003500 0.009189 0.050925 0.003500 0.009596 0.050875 0.006500 0.009392 0.050900 0.006500 0.009392 0.050900 0.003500 0.009596 0.050875 0.003500</float_array>
          <technique_common>
            <accessor source="#gripper_right_addition-mesh-positions-array" count="616" stride="3">
              <param name="X" type="float"/>
              <param name="Y" type="float"/>
              <param name="Z" type="float"/>
            </accessor>
          </technique_common>
        </source>
        <source id="gripper_right_addition-mesh-normals">
          <float_array id="gripper_right_addition-mesh-normals-array" count="3780">0.979530 0.201299 0.000000 0.979530 0.201299 0.000000 1.000000 0.000000 0.000000 1.000000 0.000000 0.000000 0.979530 -0.201299 0.000000 0.979530 -0.201299 0.000000 0.918958 -0.394356 0.000000 0.918958 -0.394356 0.000000 0.820763 -0.571268 0.000000 0.820763 -0.571268 0.000000 0.688967 -0.724793 0.000000 0.688967 -0.724793 0.000000 0.528964 -0.848644 0.000000 0.528964 -0.848644 0.000000 0.347305 -0.937752 0.000000 0.347305 -0.937752 0.000000 0.151428 -0.988468 0.000000 0.151428 -0.988468 0.000000 -0.050649 -0.998717 -0.000000 -0.050649 -0.998717 -0.000000 -0.250653 -0.968077 -0.000000 -0.250653 -0.968077 -0.000000 -0.440394 -0.897805 -0.000000 -0.440394 -0.897805 -0.000000 -0.612106 -0.790776 -0.000000 -0.612106 -0.790776 -0.000000 -0.758758 -0.651372 -0.000000 -0.758758 -0.651372 -0.000000 -0.874347 -0.485302 -0.000000 -0.874347 -0.485302 -0.000000 -0.954139 -0.299363 -0.000000 -0.954139 -0.299363 -0.000000 -0.994869 -0.101168 -0.000000 -0.994869 -0.101168 -0.000000 -0.994869 0.101168 -0.000000 -0.994869 0.101168 -0.000000 -0.954139 0.299363 -0.000000 -0.954139 0.299363 -0.000000 -0.874347 0.485302 -0.000000 -0.874347 0.485302 -0.000000 -0.758758 0.651372 -0.000000 -0.758758 0.651372 -0.000000 -0.612106 0.790776 -0.000000 -0.612106 0.790776 -0.000000 -0.440394 0.897805 -0.000000 -0.440394 0.897805 -0.000000 -0.250653 0.968077 -0.000000 -0.250653 0.968077 -0.000000 -0.050649 0.998717 -0.000000 -0.050649 0.998717 -0.000000 0.151428 0.988468 0.000000 0.151428 0.988468 0.000000 0.347305 0.937752 0.000000 0.347305 0.937752 0.000000 0.528964 0.848644 0.000000 0.528964 0.848644 0.000000 0.688967 0.724793 0.000000 0.688967 0.724793 0.000000 0.820763 0.571268 0.000000 0.820763 0.571268 0.000000 0.918958 0.394356 0.000000 0.918958 0.394356 0.000000 0.979530 0.201299 0.000000 0.979530 0.201299 0.000000 1.000000 0.000000 0.000000 1.000000 0.000000 0.000000 0.979530 -0.201299 0.000000 0.979530 -0.201299 0.000000 0.918958 -0.394356 0.000000 0.918958 -0.394356 0.000000 0.820763 -0.571268 0.000000 0.820763 -0.571268 0.000000 0.688967 -0.724793 0.000000 0.688967 -0.724793 0.000000 0.528964 -0.848644 0.000000 0.528964 -0.848644 0.000000 0.347305 -0.937752 0.000000 0.347305 -0.937752 0.000000 0.151428 -0.988468 0.000000 0.151428 -0.988468 0.000000 -0.050649 -0.998717 -0.000000 -0.050649 -0.998717 -0.000000 -0.250653 -0.968077 -0.000000 -0.250653 -0.968077 -0.000000 -0.440394 -0.897805 -0.000000 -0.440394 -0.897805 -0.000000 -0.612106 -0.790776 -0.000000 -0.612106 -0.790776 -0.000000 -0.758758 -0.651372 -0.000000 -0.758758 -0.651372 -0.000000 -0.874347 -0.485302 -0.000000 -0.874347 -0.485302 -0.000000 -0.954139 -0.299363 -0.000000 -0.954139 -0.299363 -0.000000 -0.994869 -0.101168 -0.000000 -0.994869 -0.101168 -0.000000 -0.994869 0.101168 -0.000000 -0.994869 0.101168 -0.000000 -0.954139 0.299363 -0.000000 -0.954139 0.299363 -0.000000 -0.874347 0.485302 -0.000000 -0.874347 0.485302 -0.000000 -0.758758 0.651372 -0.000000 -0.758758 0.651372 -0.000000 -0.612106 0.790776 -0.000000 -0.612106 0.790776 -0.000000 -0.440394 0.897805 -0.000000 -0.440394 0.897805 -0.000000 -0.250653 0.968077 -0.000000 -0.250653 0.968077 -0.000000 -0.050649 0.998717 -0.000000 -0.050649 0.998717 -0.000000 0.151428 0.988468 0.000000 0.151428 0.988468 0.000000 0.347305 0.937752 0.000000 0.347305 0.937752 0.000000 0.528964 0.848644 0.000000 0.528964 0.848644 0.000000 0.688967 0.724793 0.000000 0.688967 0.724793 0.000000 0.820763 0.571268 0.000000 0.820763 0.571268 0.000000 0.918958 0.394356 0.000000 0.918958 0.394356 0.000000 -0.000000 1.000000 -0.000000 0.000000 1.000000 0.000000 0.130526 0.991445 0.000000 0.130526 0.991445 0.000000 0.258819 0.965926 0.000000 0.258819 0.965926 0.000000 0.382683 0.923880 0.000000 0.382683 0.923880 0.000000 0.500000 0.866025 0.000000 0.500000 0.866025 0.000000 0.608761 0.793353 0.000000 0.608761 0.793353 0.000000 0.707107 0.707107 0.000000 0.707107 0.707107 0.000000 0.793353 0.608761 0.000000 0.793353 0.608761 0.000000 0.866025 0.500000 0.000000 0.866025 0.500000 0.000000 0.923880 0.382683 0.000000 0.923880 0.382683 0.000000 0.965926 0.258819 0.000000 0.965926 0.258819 0.000000 0.991445 0.130526 0.000000 0.991445 0.130526 0.000000 1.000000 0.000000 0.000000 1.000000 0.000000 0.000000 0.991445 -0.130526 0.000000 0.991445 -0.130526 0.000000 0.965926 -0.258819 0.000000 0.965926 -0.258819 0.000000 0.923880 -0.382683 0.000000 0.923880 -0.382683 0.000000 0.866025 -0.500000 0.000000 0.866025 -0.500000 0.000000 0.793353 -0.608761 0.000000 0.793353 -0.608761 0.000000 0.707107 -0.707107 0.000000 0.707107 -0.707107 0.000000 0.608761 -0.793353 0.000000 0.608761 -0.793353 0.000000 0.500000 -0.866025 0.000000 0.500000 -0.866025 0.000000 0.382683 -0.923880 0.000000 0.382683 -0.923880 0.000000 0.258819 -0.965926 0.000000 0.258819 -0.965926 0.000000 0.130526 -0.991445 0.000000 0.130526 -0.991445 0.000000 -0.000000 -1.000000 -0.000000 0.000000 -1.000000 0.000000 -0.121016 0.992651 0.000000 -0.122484 0.992471 0.000000 -0.121016 0.992651 0.000000 -0.122484 0.992471 0.000000 -0.123950 0.992288 0.000000 -0.123950 0.992288 0.000000 -0.125415 0.992104 0.000000 -0.125415 0.992104 0.000000 0.121016 0.992651 0.000000 0.107949 0.994156 0.000000 0.121016 0.992651 0.000000 0.107949 0.994156 0.000000 0.094530 0.995522 0.000000 0.094530 0.995522 0.000000 0.080564 0.996749 0.000000 0.080564 0.996749 0.000000 0.065901 0.997826 0.000000 0.065901 0.997826 0.000000 0.050453 0.998726 0.000000 0.050453 0.998726 0.000000 0.034220 0.999414 0.000000 0.034220 0.999414 0.000000 0.017317 0.999850 0.000000 0.017317 0.999850 0.000000 0.000000 1.000000 0.000000 0.000000 1.000000 0.000000 -0.017317 0.999850 0.000000 -0.017317 0.999850 0.000000 -0.034220 0.999414 0.000000 -0.034220 0.999414 0.000000 -0.050453 0.998726 0.000000 -0.050453 0.998726 0.000000 -0.065901 0.997826 0.000000 -0.065901 0.997826 0.000000 -0.080564 0.996749 0.000000 -0.080564 0.996749 0.000000 -0.094530 0.995522 0.000000 -0.094530 0.995522 0.000000 -0.107949 0.994156 0.000000 -0.107949 0.994156 0.000000 0.125415 0.992104 0.000000 0.123950 0.992288 0.000000 0.125415 0.992104 0.000000 0.123950 0.992288 0.000000 0.122484 0.992471 0.000000 0.122484 0.992471 0.000000 0.121016 0.992651 0.000000 0.121016 0.992651 0.000000 -0.000000 -1.000000 -0.000000 0.000000 -1.000000 0.000000 -0.130526 -0.991445 -0.000000 -0.130526 -0.991445 -0.000000 -0.258819 -0.965926 -0.000000 -0.258819 -0.965926 -0.000000 -0.382683 -0.923880 -0.000000 -0.382683 -0.923880 -0.000000 -0.500000 -0.866025 -0.000000 -0.500000 -0.866025 -0.000000 -0.608761 -0.793353 -0.000000 -0.608761 -0.793353 -0.000000 -0.707107 -0.707107 -0.000000 -0.707107 -0.707107 -0.000000 -0.793353 -0.608761 -0.000000 -0.793353 -0.608761 -0.000000 -0.866025 -0.500000 -0.000000 -0.866025 -0.500000 -0.000000 -0.923880 -0.382683 -0.000000 -0.923880 -0.382683 -0.000000 -0.965926 -0.258819 -0.000000 -0.965926 -0.258819 -0.000000 -0.991445 -0.130526 -0.000000 -0.991445 -0.130526 -0.000000 -1.000000 -0.000000 -0.000000 -1.000000 -0.000000 -0.000000 -0.991445 0.130526 -0.000000 -0.991445 0.130526 -0.000000 -0.965926 0.258819 -0.000000 -0.965926 0.258819 -0.000000 -0.923880 0.382683 -0.000000 -0.923880 0.382683 -0.000000 -0.866025 0.500000 -0.000000 -0.866025 0.500000 -0.000000 -0.793353 0.608761 -0.000000 -0.793353 0.608761 -0.000000 -0.707107 0.707107 -0.000000 -0.707107 0.707107 -0.000000 -0.608761 0.793353 -0.000000 -0.608761 0.793353 -0.000000 -0.500000 0.866025 -0.000000 -0.500000 0.866025 -0.000000 -0.382683 0.923880 -0.000000 -0.382683 0.923880 -0.000000 -0.258819 0.965926 -0.000000 -0.258819 0.965926 -0.000000 -0.130526 0.991445 -0.000000 -0.130526 0.991445 -0.000000 -0.000000 1.000000 -0.000000 0.000000 1.000000 0.000000 0.121016 -0.992651 0.000000 0.122484 -0.992471 0.000000 0.121016 -0.992651 0.000000 0.122484 -0.992471 0.000000 0.123950 -0.992288 0.000000 0.123950 -0.992288 0.000000 0.125415 -0.992104 0.000000 0.125415 -0.992104 0.000000 -0.121016 -0.992651 -0.000000 -0.107949 -0.994156 -0.000000 -0.121016 -0.992651 -0.000000 -0.107949 -0.994156 -0.000000 -0.094530 -0.995522 -0.000000 -0.094530 -0.995522 -0.000000 -0.080564 -0.996749 -0.000000 -0.080564 -0.996749 -0.000000 -0.065901 -0.997826 -0.000000 -0.065901 -0.997826 -0.000000 -0.050453 -0.998726 -0.000000 -0.050453 -0.998726 -0.000000 -0.034220 -0.999414 -0.000000 -0.034220 -0.999414 -0.000000 -0.017317 -0.999850 -0.000000 -0.017317 -0.999850 -0.000000 0.000000 -1.000000 0.000000 0.000000 -1.000000 0.000000 0.017317 -0.999850 0.000000 0.017317 -0.999850 0.000000 0.034220 -0.999414 0.000000 0.034220 -0.999414 0.000000 0.050453 -0.998726 0.000000 0.050453 -0.998726 0.000000 0.065901 -0.997826 0.000000 0.065901 -0.997826 0.000000 0.080564 -0.996749 0.000000 0.080564 -0.996749 0.000000 0.094530 -0.995522 0.000000 0.094530 -0.995522 0.000000 0.107949 -0.994156 0.000000 0.107949 -0.994156 0.000000 0.121016 -0.992651 0.000000 0.121016 -0.992651 0.000000 -0.125415 -0.992104 -0.000000 -0.123950 -0.992288 -0.000000 -0.125415 -0.992104 -0.000000 -0.123950 -0.992288 -0.000000 -0.122484 -0.992471 -0.000000 -0.122484 -0.992471 -0.000000 -0.121016 -0.992651 -0.000000 -0.121016 -0.992651 -0.000000 0.000000 -0.000000 -1.000000 0.000000 -0.000000 -1.000000 0.000000 -0.000000 -1.000000 0.000000 -0.000000 -1.000000 0.000000 -0.000000 -1.000000 0.000000 -0.000000 -1.000000 0.000000 -0.000000 -1.000000 0.000000 -0.000000 -1.000000 0.000000 -0.000000 -1.000000 0.000000 -0.000000 -1.000000 0.000000 -0.000000 -1.000000 0.000000 -0.000000 -1.000000 0.000000 -0.000000 -1.000000 0.000000 -0.000000 -1.000000 0.000000 -0.000000 -1.000000 0.000000 -0.000000 -1.000000 0.000000 -0.000000 -1.000000 0.000000 -0.000000 -1.000000 0.000000 -0.000000 -1.000000 0.000000 -0.000000 -1.000000 0.000000 -0.000000 -1.000000 0.000000 -0.000000 -1.000000 0.000000 -0.000000 -1.000000 0.000000 -0.000000 -1.000000 0.000000 -0.000000 -1.000000 0.000000 -0.000000 -1.000000 0.000000 -0.000000 -1.000000 0.000000 -0.000000 -1.000000 0.000000 -0.000000 -1.000000 0.000000 -0.000000 -1.000000 0.000000 -0.000000 -1.000000 0.000000 -0.000000 -1.000000 0.000000 -0.000000 -1.000000 0.000000 -0.000000 -1.000000 0.000000 -0.000000 -1.000000 0.000000 -0.000000 -1.000000 0.000000 -0.000000 -1.000000 0.000000 -0.000000 -1.000000 0.000000 -0.000000 -1.000000 0.000000 -0.000000 -1.000000 0.000000 -0.000000 -1.000000 0.000000 -0.000000 -1.000000 0.000000 -0.000000 -1.000000 0.000000 -0.000000 -1.000000 0.000000 -0.000000 -1.000000 0.000000 -0.000000 -1.000000 0.000000 -0.000000 -1.000000 0.000000 -0.000000 -1.000000 0.000000 -0.000000 -1.000000 0.000000 -0.000000 -1.000000 0.000000 -0.000000 -1.000000 0.000000 -0.000000 -1.000000 0.000000 -0.000000 -1.000000 0.000000 -0.000000 -1.000000 0.000000 -0.000000 -1.000000 0.000000 -0.000000 -1.000000 0.000000 -0.000000 -1.000000 0.000000 -0.000000 -1.000000 0.000000 -0.000000 -1.000000 0.000000 -0.000000 -1.000000 0.000000 -0.000000 -1.000000 0.000000 -0.000000 -1.000000 0.000000 -0.000000 -1.000000 0.000000 -0.000000 -1.000000 0.000000 -0.000000 -1.000000 0.000000 -0.000000 -1.000000 0.000000 -0.000000 -1.000000 0.000000 -0.000000 -1.000000 0.000000 -0.000000 -1.000000 0.000000 -0.000000 -1.000000 0.000000 -0.000000 -1.000000 0.000000 -0.000000 -1.000000 0.000000 -0.000000 -1.000000 0.000000 -0.000000 -1.000000 0.000000 -0.000000 -1.000000 0.000000 -0.000000 -1.000000 0.000000 -0.000000 -1.000000 0.000000 -0.000000 -1.000000 0.000000 -0.000000 -1.000000 0.000000 -0.000000 -1.000000 0.000000 -0.000000 -1.000000 0.000000 -0.000000 -1.000000 0.000000 -0.000000 -1.000000 0.000000 -0.000000 -1.000000 0.000000 -0.000000 -1.000000 0.000000 -0.000000 -1.000000 0.000000 -0.000000 -1.000000 0.000000 -0.000000 -1.000000 0.000000 -0.000000 -1.000000 0.000000 -0.000000 -1.000000 0.000000 -0.000000 -1.000000 0.000000 -0.000000 -1.000000 0.000000 -0.000000 -1.000000 0.000000 -0.000000 -1.000000 0.000000 -0.000000 -1.000000 0.000000 -0.000000 -1.000000 0.000000 -0.000000 -1.000000 0.000000 -0.000000 -1.000000 0.000000 -0.000000 -1.000000 0.000000 -0.000000 -1.000000 0.000000 -0.000000 -1.000000 0.000000 -0.000000 -1.000000 0.000000 -0.000000 -1.000000 0.000000 -0.000000 -1.000000 0.000000 -0.000000 -1.000000 0.000000 -0.000000 -1.000000 0.000000 -0.000000 -1.000000 0.000000 -0.000000 -1.000000 0.000000 -0.000000 -1.000000 0.000000 -0.000000 -1.000000 0.000000 -0.000000 -1.000000 0.000000 -0.000000 -1.000000 0.000000 -0.000000 -1.000000 0.000000 -0.000000 -1.000000 0.000000 -0.000000 -1.000000 0.000000 -0.000000 -1.000000 0.000000 -0.000000 -1.000000 0.000000 -0.000000 -1.000000 0.000000 -0.000000 -1.000000 0.000000 -0.000000 -1.000000 0.000000 -0.000000 -1.000000 0.000000 -0.000000 -1.000000 0.000000 -0.000000 -1.000000 0.000000 -0.000000 -1.000000 0.000000 -0.000000 -1.000000 0.000000 -0.000000 -1.000000 0.000000 -0.000000 -1.000000 0.000000 -0.000000 -1.000000 0.000000 -0.000000 -1.000000 0.000000 -0.000000 -1.000000 0.000000 -0.000000 -1.000000 0.000000 -0.000000 -1.000000 0.000000 -0.000000 -1.000000 0.000000 -0.000000 -1.000000 0.000000 -0.000000 -1.000000 0.000000 -0.000000 -1.000000 0.000000 -0.000000 -1.000000 0.000000 -0.000000 -1.000000 0.000000 -0.000000 -1.000000 0.000000 -0.000000 -1.000000 0.000000 -0.000000 -1.000000 0.000000 -0.000000 -1.000000 0.000000 -0.000000 -1.000000 0.000000 -0.000000 -1.000000 0.000000 -0.000000 -1.000000 0.000000 -0.000000 -1.000000 0.000000 -0.000000 -1.000000 0.000000 -0.000000 -1.000000 0.000000 -0.000000 -1.000000 0.000000 -0.000000 -1.000000 0.000000 -0.000000 -1.000000 0.000000 -0.000000 -1.000000 0.000000 -0.000000 -1.000000 0.000000 -0.000000 -1.000000 -0.000000 0.000000 1.000000 -0.000000 0.000000 1.000000 -0.000000 0.000000 1.000000 -0.000000 0.000000 1.000000 -0.000000 0.000000 1.000000 -0.000000 0.000000 1.000000 -0.000000 0.000000 1.000000 -0.000000 0.000000 1.000000 -0.000000 0.000000 1.000000 -0.000000 0.000000 1.000000 -0.000000 0.000000 1.000000 -0.000000 0.000000 1.000000 -0.000000 0.000000 1.000000 -0.000000 0.000000 1.000000 -0.000000 0.000000 1.000000 -0.000000 0.000000 1.000000 -0.000000 0.000000 1.000000 -0.000000 0.000000 1.000000 -0.000000 0.000000 1.000000 -0.000000 0.000000 1.000000 -0.000000 0.000000 1.000000 -0.000000 0.000000 1.000000 -0.000000 0.000000 1.000000 -0.000000 0.000000 1.000000 -0.000000 0.000000 1.000000 -0.000000 0.000000 1.000000 -0.000000 0.000000 1.000000 -0.000000 0.000000 1.000000 -0.000000 0.000000 1.000000 -0.000000 0.000000 1.000000 -0.000000 0.000000 1.000000 -0.000000 0.000000 1.000000 -0.000000 0.000000 1.000000 -0.000000 0.000000 1.000000 -0.000000 0.000000 1.000000 -0.000000 0.000000 1.000000 -0.000000 0.000000 1.000000 -0.000000 0.000000 1.000000 -0.000000 0.000000 1.000000 -0.000000 0.000000 1.000000 -0.000000 0.000000 1.000000 -0.000000 0.000000 1.000000 -0.000000 0.000000 1.000000 -0.000000 0.000000 1.000000 -0.000000 0.000000 1.000000 -0.000000 0.000000 1.000000 -0.000000 0.000000 1.000000 -0.000000 0.000000 1.000000 -0.000000 0.000000 1.000000 -0.000000 0.000000 1.000000 -0.000000 0.000000 1.000000 -0.000000 0.000000 1.000000 -0.000000 0.000000 1.000000 -0.000000 0.000000 1.000000 -0.000000 0.000000 1.000000 -0.000000 0.000000 1.000000 -0.000000 0.000000 1.000000 -0.000000 0.000000 1.000000 -0.000000 0.000000 1.000000 -0.000000 0.000000 1.000000 -0.000000 0.000000 1.000000 -0.000000 0.000000 1.000000 -0.000000 0.000000 1.000000 -0.000000 0.000000 1.000000 -0.000000 0.000000 1.000000 -0.000000 0.000000 1.000000 -0.000000 0.000000 1.000000 -0.000000 0.000000 1.000000 -0.000000 0.000000 1.000000 -0.000000 0.000000 1.000000 -0.000000 0.000000 1.000000 -0.000000 0.000000 1.000000 -0.000000 0.000000 1.000000 -0.000000 0.000000 1.000000 -0.000000 0.000000 1.000000 -0.000000 0.000000 1.000000 -0.000000 0.000000 1.000000 -0.000000 0.000000 1.000000 -0.000000 0.000000 1.000000 -0.000000 0.000000 1.000000 -0.000000 0.000000 1.000000 -0.000000 0.000000 1.000000 -0.000000 0.000000 1.000000 -0.000000 0.000000 1.000000 -0.000000 0.000000 1.000000 -0.000000 0.000000 1.000000 -0.000000 0.000000 1.000000 -0.000000 0.000000 1.000000 -0.000000 0.000000 1.000000 -0.000000 0.000000 1.000000 -0.000000 0.000000 1.000000 -0.000000 0.000000 1.000000 -0.000000 0.000000 1.000000 -0.000000 0.000000 1.000000 -0.000000 0.000000 1.000000 -0.000000 0.000000 1.000000 -0.000000 0.000000 1.000000 -0.000000 0.000000 1.000000 -0.000000 0.000000 1.000000 -0.000000 0.000000 1.000000 -0.000000 0.000000 1.000000 -0.000000 0.000000 1.000000 -0.000000 0.000000 1.000000 -0.000000 0.000000 1.000000 -0.000000 0.000000 1.000000 -0.000000 0.000000 1.000000 -0.000000 0.000000 1.000000 -0.000000 0.000000 1.000000 -0.000000 0.000000 1.000000 -0.000000 0.000000 1.000000 -0.000000 0.000000 1.000000 -0.000000 0.000000 1.000000 -0.000000 0.000000 1.000000 -0.000000 0.000000 1.000000 -0.000000 0.000000 1.000000 -0.000000 0.000000 1.000000 -0.000000 0.000000 1.000000 -0.000000 0.000000 1.000000 -0.000000 0.000000 1.000000 -0.000000 0.000000 1.000000 -0.000000 0.000000 1.000000 -0.000000 0.000000 1.000000 -0.000000 0.000000 1.000000 -0.000000 0.000000 1.000000 -0.000000 0.000000 1.000000 -0.000000 0.000000 1.000000 -0.000000 0.000000 1.000000 -0.000000 0.000000 1.000000 -0.000000 0.000000 1.000000 -0.000000 0.000000 1.000000 -0.000000 0.000000 1.000000 -0.000000 0.000000 1.000000 -0.000000 0.000000 1.000000 -0.000000 0.000000 1.000000 -0.000000 0.000000 1.000000 -0.000000 0.000000 1.000000 -0.000000 0.000000 1.000000 -0.000000 0.000000 1.000000 -0.000000 0.000000 1.000000 -0.000000 0.000000 1.000000 -0.000000 0.000000 1.000000 -0.000000 0.000000 1.000000 -0.000000 0.000000 1.000000 -0.000000 0.000000 1.000000 -0.000000 0.000000 1.000000 -0.000000 0.000000 1.000000 -0.000000 0.000000 1.000000 -0.000000 0.000000 1.000000 -0.000000 0.000000 1.000000 -0.000000 0.000000 1.000000 -0.000000 0.000000 1.000000 -0.000000 0.000000 1.000000 -0.000000 0.000000 1.000000 -0.000000 0.000000 1.000000 0.979530 0.201299 0.000000 0.979530 0.201299 0.000000 1.000000 0.000000 0.000000 1.000000 0.000000 0.000000 0.979530 -0.201299 0.000000 0.979530 -0.201299 0.000000 0.918958 -0.394356 0.000000 0.918958 -0.394356 0.000000 0.820763 -0.571268 0.000000 0.820763 -0.571268 0.000000 0.688967 -0.724793 0.000000 0.688967 -0.724793 0.000000 0.528964 -0.848644 0.000000 0.528964 -0.848644 0.000000 0.347305 -0.937752 0.000000 0.347305 -0.937752 0.000000 0.151428 -0.988468 0.000000 0.151428 -0.988468 0.000000 -0.050649 -0.998717 -0.000000 -0.050649 -0.998717 -0.000000 -0.250653 -0.968077 -0.000000 -0.250653 -0.968077 -0.000000 -0.440394 -0.897805 -0.000000 -0.440394 -0.897805 -0.000000 -0.612106 -0.790776 -0.000000 -0.612106 -0.790776 -0.000000 -0.758758 -0.651372 -0.000000 -0.758758 -0.651372 -0.000000 -0.874347 -0.485302 -0.000000 -0.874347 -0.485302 -0.000000 -0.954139 -0.299363 -0.000000 -0.954139 -0.299363 -0.000000 -0.994869 -0.101168 -0.000000 -0.994869 -0.101168 -0.000000 -0.994869 0.101168 -0.000000 -0.994869 0.101168 -0.000000 -0.954139 0.299363 -0.000000 -0.954139 0.299363 -0.000000 -0.874347 0.485302 -0.000000 -0.874347 0.485302 -0.000000 -0.758758 0.651372 -0.000000 -0.758758 0.651372 -0.000000 -0.612106 0.790776 -0.000000 -0.612106 0.790776 -0.000000 -0.440394 0.897805 -0.000000 -0.440394 0.897805 -0.000000 -0.250653 0.968077 -0.000000 -0.250653 0.968077 -0.000000 -0.050649 0.998717 -0.000000 -0.050649 0.998717 -0.000000 0.151428 0.988468 0.000000 0.151428 0.988468 0.000000 0.347305 0.937752 0.000000 0.347305 0.937752 0.000000 0.528964 0.848644 0.000000 0.528964 0.848644 0.000000 0.688967 0.724793 0.000000 0.688967 0.724793 0.000000 0.820763 0.571268 0.000000 0.820763 0.571268 0.000000 0.918958 0.394356 0.000000 0.918958 0.394356 0.000000 0.979530 0.201299 0.000000 0.979530 0.201299 0.000000 1.000000 0.000000 0.000000 1.000000 0.000000 0.000000 0.979530 -0.201299 0.000000 0.979530 -0.201299 0.000000 0.918958 -0.394356 0.000000 0.918958 -0.394356 0.000000 0.820763 -0.571268 0.000000 0.820763 -0.571268 0.000000 0.688967 -0.724793 0.000000 0.688967 -0.724793 0.000000 0.528964 -0.848644 0.000000 0.528964 -0.848644 0.000000 0.347305 -0.937752 0.000000 0.347305 -0.937752 0.000000 0.151428 -0.988468 0.000000 0.151428 -0.988468 0.000000 -0.050649 -0.998717 -0.000000 -0.050649 -0.998717 -0.000000 -0.250653 -0.968077 -0.000000 -0.250653 -0.968077 -0.000000 -0.440394 -0.897805 -0.000000 -0.440394 -0.897805 -0.000000 -0.612106 -0.790776 -0.000000 -0.612106 -0.790776 -0.000000 -0.758758 -0.651372 -0.000000 -0.758758 -0.651372 -0.000000 -0.874347 -0.485302 -0.000000 -0.874347 -0.485302 -0.000000 -0.954139 -0.299363 -0.000000 -0.954139 -0.299363 -0.000000 -0.994869 -0.101168 -0.000000 -0.994869 -0.101168 -0.000000 -0.994869 0.101168 -0.000000 -0.994869 0.101168 -0.000000 -0.954139 0.299363 -0.000000 -0.954139 0.299363 -0.000000 -0.874347 0.485302 -0.000000 -0.874347 0.485302 -0.000000 -0.758758 0.651372 -0.000000 -0.758758 0.651372 -0.000000 -0.612106 0.790776 -0.000000 -0.612106 0.790776 -0.000000 -0.440394 0.897805 -0.000000 -0.440394 0.897805 -0.000000 -0.250653 0.968077 -0.000000 -0.250653 0.968077 -0.000000 -0.050649 0.998717 -0.000000 -0.050649 0.998717 -0.000000 0.151428 0.988468 0.000000 0.151428 0.988468 0.000000 0.347305 0.937752 0.000000 0.347305 0.937752 0.000000 0.528964 0.848644 0.000000 0.528964 0.848644 0.000000 0.688967 0.724793 0.000000 0.688967 0.724793 0.000000 0.820763 0.571268 0.000000 0.820763 0.571268 0.000000 0.918958 0.394356 0.000000 0.918958 0.394356 0.000000 -0.000000 1.000000 -0.000000 0.000000 1.000000 0.000000 0.130526 0.991445 0.000000 0.130526 0.991445 0.000000 0.258819 0.965926 0.000000 0.258819 0.965926 0.000000 0.382683 0.923880 0.000000 0.382683 0.923880 0.000000 0.500000 0.866025 0.000000 0.500000 0.866025 0.000000 0.608761 0.793353 0.000000 0.608761 0.793353 0.000000 0.707107 0.707107 0.000000 0.707107 0.707107 0.000000 0.793353 0.608761 0.000000 0.793353 0.608761 0.000000 0.866025 0.500000 0.000000 0.866025 0.500000 0.000000 0.923880 0.382683 0.000000 0.923880 0.382683 0.000000 0.965926 0.258819 0.000000 0.965926 0.258819 0.000000 0.991445 0.130526 0.000000 0.991445 0.130526 0.000000 1.000000 0.000000 0.000000 1.000000 0.000000 0.000000 0.991445 -0.130526 0.000000 0.991445 -0.130526 0.000000 0.965926 -0.258819 0.000000 0.965926 -0.258819 0.000000 0.923880 -0.382683 0.000000 0.923880 -0.382683 0.000000 0.866025 -0.500000 0.000000 0.866025 -0.500000 0.000000 0.793353 -0.608761 0.000000 0.793353 -0.608761 0.000000 0.707107 -0.707107 0.000000 0.707107 -0.707107 0.000000 0.608761 -0.793353 0.000000 0.608761 -0.793353 0.000000 0.500000 -0.866025 0.000000 0.500000 -0.866025 0.000000 0.382683 -0.923880 0.000000 0.382683 -0.923880 0.000000 0.258819 -0.965926 0.000000 0.258819 -0.965926 0.000000 0.130526 -0.991445 0.000000 0.130526 -0.991445 0.000000 -0.000000 -1.000000 -0.000000 0.000000 -1.000000 0.000000 -0.121016 0.992651 0.000000 -0.122484 0.992471 0.000000 -0.121016 0.992651 0.000000 -0.122484 0.992471 0.000000 -0.123950 0.992288 0.000000 -0.123950 0.992288 0.000000 -0.125415 0.992104 0.000000 -0.125415 0.992104 0.000000 0.121016 0.992651 0.000000 0.107949 0.994156 0.000000 0.121016 0.992651 0.000000 0.107949 0.994156 0.000000 0.094530 0.995522 0.000000 0.094530 0.995522 0.000000 0.080564 0.996749 0.000000 0.080564 0.996749 0.000000 0.065901 0.997826 0.000000 0.065901 0.997826 0.000000 0.050453 0.998726 0.000000 0.050453 0.998726 0.000000 0.034220 0.999414 0.000000 0.034220 0.999414 0.000000 0.017317 0.999850 0.000000 0.017317 0.999850 0.000000 0.000000 1.000000 0.000000 0.000000 1.000000 0.000000 -0.017317 0.999850 0.000000 -0.017317 0.999850 0.000000 -0.034220 0.999414 0.000000 -0.034220 0.999414 0.000000 -0.050453 0.998726 0.000000 -0.050453 0.998726 0.000000 -0.065901 0.997826 0.000000 -0.065901 0.997826 0.000000 -0.080564 0.996749 0.000000 -0.080564 0.996749 0.000000 -0.094530 0.995522 0.000000 -0.094530 0.995522 0.000000 -0.107949 0.994156 0.000000 -0.107949 0.994156 0.000000 0.125415 0.992104 0.000000 0.123950 0.992288 0.000000 0.125415 0.992104 0.000000 0.123950 0.992288 0.000000 0.122484 0.992471 0.000000 0.122484 0.992471 0.000000 0.121016 0.992651 0.000000 0.121016 0.992651 0.000000 -0.000000 -1.000000 -0.000000 0.000000 -1.000000 0.000000 -0.130526 -0.991445 -0.000000 -0.130526 -0.991445 -0.000000 -0.258819 -0.965926 -0.000000 -0.258819 -0.965926 -0.000000 -0.382683 -0.923880 -0.000000 -0.382683 -0.923880 -0.000000 -0.500000 -0.866025 -0.000000 -0.500000 -0.866025 -0.000000 -0.608761 -0.793353 -0.000000 -0.608761 -0.793353 -0.000000 -0.707107 -0.707107 -0.000000 -0.707107 -0.707107 -0.000000 -0.793353 -0.608761 -0.000000 -0.793353 -0.608761 -0.000000 -0.866025 -0.500000 -0.000000 -0.866025 -0.500000 -0.000000 -0.923880 -0.382683 -0.000000 -0.923880 -0.382683 -0.000000 -0.965926 -0.258819 -0.000000 -0.965926 -0.258819 -0.000000 -0.991445 -0.130526 -0.000000 -0.991445 -0.130526 -0.000000 -1.000000 -0.000000 -0.000000 -1.000000 -0.000000 -0.000000 -0.991445 0.130526 -0.000000 -0.991445 0.130526 -0.000000 -0.965926 0.258819 -0.000000 -0.965926 0.258819 -0.000000 -0.923880 0.382683 -0.000000 -0.923880 0.382683 -0.000000 -0.866025 0.500000 -0.000000 -0.866025 0.500000 -0.000000 -0.793353 0.608761 -0.000000 -0.793353 0.608761 -0.000000 -0.707107 0.707107 -0.000000 -0.707107 0.707107 -0.000000 -0.608761 0.793353 -0.000000 -0.608761 0.793353 -0.000000 -0.500000 0.866025 -0.000000 -0.500000 0.866025 -0.000000 -0.382683 0.923880 -0.000000 -0.382683 0.923880 -0.000000 -0.258819 0.965926 -0.000000 -0.258819 0.965926 -0.000000 -0.130526 0.991445 -0.000000 -0.130526 0.991445 -0.000000 -0.000000 1.000000 -0.000000 0.000000 1.000000 0.000000 0.121016 -0.992651 0.000000 0.122484 -0.992471 0.000000 0.121016 -0.992651 0.000000 0.122484 -0.992471 0.000000 0.123950 -0.992288 0.000000 0.123950 -0.992288 0.000000 0.125415 -0.992104 0.000000 0.125415 -0.992104 0.000000 -0.121016 -0.992651 -0.000000 -0.107949 -0.994156 -0.000000 -0.121016 -0.992651 -0.000000 -0.107949 -0.994156 -0.000000 -0.094530 -0.995522 -0.000000 -0.094530 -0.995522 -0.000000 -0.080564 -0.996749 -0.000000 -0.080564 -0.996749 -0.000000 -0.065901 -0.997826 -0.000000 -0.065901 -0.997826 -0.000000 -0.050453 -0.998726 -0.000000 -0.050453 -0.998726 -0.000000 -0.034220 -0.999414 -0.000000 -0.034220 -0.999414 -0.000000 -0.017317 -0.999850 -0.000000 -0.017317 -0.999850 -0.000000 0.000000 -1.000000 0.000000 0.000000 -1.000000 0.000000 0.017317 -0.999850 0.000000 0.017317 -0.999850 0.000000 0.034220 -0.999414 0.000000 0.034220 -0.999414 0.000000 0.050453 -0.998726 0.000000 0.050453 -0.998726 0.000000 0.065901 -0.997826 0.000000 0.065901 -0.997826 0.000000 0.080564 -0.996749 0.000000 0.080564 -0.996749 0.000000 0.094530 -0.995522 0.000000 0.094530 -0.995522 0.000000 0.107949 -0.994156 0.000000 0.107949 -0.994156 0.000000 0.121016 -0.992651 0.000000 0.121016 -0.992651 0.000000 -0.125415 -0.992104 -0.000000 -0.123950 -0.992288 -0.000000 -0.125415 -0.992104 -0.000000 -0.123950 -0.992288 -0.000000 -0.122484 -0.992471 -0.000000 -0.122484 -0.992471 -0.000000 -0.121016 -0.992651 -0.000000 -0.121016 -0.992651 -0.000000 0.000000 -0.000000 -1.000000 0.000000 -0.000000 -1.000000 0.000000 -0.000000 -1.000000 0.000000 -0.000000 -1.000000 0.000000 -0.000000 -1.000000 0.000000 -0.000000 -1.000000 0.000000 -0.000000 -1.000000 0.000000 -0.000000 -1.000000 0.000000 -0.000000 -1.000000 0.000000 -0.000000 -1.000000 0.000000 -0.000000 -1.000000 0.000000 -0.000000 -1.000000 0.000000 -0.000000 -1.000000 0.000000 -0.000000 -1.000000 0.000000 -0.000000 -1.000000 0.000000 -0.000000 -1.000000 0.000000 -0.000000 -1.000000 0.000000 -0.000000 -1.000000 0.000000 -0.000000 -1.000000 0.000000 -0.000000 -1.000000 0.000000 -0.000000 -1.000000 0.000000 -0.000000 -1.000000 0.000000 -0.000000 -1.000000 0.000000 -0.000000 -1.000000 0.000000 -0.000000 -1.000000 0.000000 -0.000000 -1.000000 0.000000 -0.000000 -1.000000 0.000000 -0.000000 -1.000000 0.000000 -0.000000 -1.000000 0.000000 -0.000000 -1.000000 0.000000 -0.000000 -1.000000 0.000000 -0.000000 -1.000000 0.000000 -0.000000 -1.000000 0.000000 -0.000000 -1.000000 0.000000 -0.000000 -1.000000 0.000000 -0.000000 -1.000000 0.000000 -0.000000 -1.000000 0.000000 -0.000000 -1.000000 0.000000 -0.000000 -1.000000 0.000000 -0.000000 -1.000000 0.000000 -0.000000 -1.000000 0.000000 -0.000000 -1.000000 0.000000 -0.000000 -1.000000 0.000000 -0.000000 -1.000000 0.000000 -0.000000 -1.000000 0.000000 -0.000000 -1.000000 0.000000 -0.000000 -1.000000 0.000000 -0.000000 -1.000000 0.000000 -0.000000 -1.000000 0.000000 -0.000000 -1.000000 0.000000 -0.000000 -1.000000 0.000000 -0.000000 -1.000000 0.000000 -0.000000 -1.000000 0.000000 -0.000000 -1.000000 0.000000 -0.000000 -1.000000 0.000000 -0.000000 -1.000000 0.000000 -0.000000 -1.000000 0.000000 -0.000000 -1.000000 0.000000 -0.000000 -1.000000 0.000000 -0.000000 -1.000000 0.000000 -0.000000 -1.000000 0.000000 -0.000000 -1.000000 0.000000 -0.000000 -1.000000 0.000000 -0.000000 -1.000000 0.000000 -0.000000 -1.000000 0.000000 -0.000000 -1.000000 0.000000 -0.000000 -1.000000 0.000000 -0.000000 -1.000000 0.000000 -0.000000 -1.000000 0.000000 -0.000000 -1.000000 0.000000 -0.000000 -1.000000 0.000000 -0.000000 -1.000000 0.000000 -0.000000 -1.000000 0.000000 -0.000000 -1.000000 0.000000 -0.000000 -1.000000 0.000000 -0.000000 -1.000000 0.000000 -0.000000 -1.000000 0.000000 -0.000000 -1.000000 0.000000 -0.000000 -1.000000 0.000000 -0.000000 -1.000000 0.000000 -0.000000 -1.000000 0.000000 -0.000000 -1.000000 0.000000 -0.000000 -1.000000 0.000000 -0.000000 -1.000000 0.000000 -0.000000 -1.000000 0.000000 -0.000000 -1.000000 0.000000 -0.000000 -1.000000 0.000000 -0.000000 -1.000000 0.000000 -0.000000 -1.000000 0.000000 -0.000000 -1.000000 0.000000 -0.000000 -1.000000 0.000000 -0.000000 -1.000000 0.000000 -0.000000 -1.000000 0.000000 -0.000000 -1.000000 0.000000 -0.000000 -1.000000 0.000000 -0.000000 -1.000000 0.000000 -0.000000 -1.000000 0.000000 -0.000000 -1.000000 0.000000 -0.000000 -1.000000 0.000000 -0.000000 -1.000000 0.000000 -0.000000 -1.000000 0.000000 -0.000000 -1.000000 0.000000 -0.000000 -1.000000 0.000000 -0.000000 -1.000000 0.000000 -0.000000 -1.000000 0.000000 -0.000000 -1.000000 0.000000 -0.000000 -1.000000 0.000000 -0.000000 -1.000000 0.000000 -0.000000 -1.000000 0.000000 -0.000000 -1.000000 0.000000 -0.000000 -1.000000 0.000000 -0.000000 -1.000000 0.000000 -0.000000 -1.000000 0.000000 -0.000000 -1.000000 0.000000 -0.000000 -1.000000 0.000000 -0.000000 -1.000000 0.000000 -0.000000 -1.000000 0.000000 -0.000000 -1.000000 0.000000 -0.000000 -1.000000 0.000000 -0.000000 -1.000000 0.000000 -0.000000 -1.000000 0.000000 -0.000000 -1.000000 0.000000 -0.000000 -1.000000 0.000000 -0.000000 -1.000000 0.000000 -0.000000 -1.000000 0.000000 -0.000000 -1.000000 0.000000 -0.000000 -1.000000 0.000000 -0.000000 -1.000000 0.000000 -0.000000 -1.000000 0.000000 -0.000000 -1.000000 0.000000 -0.000000 -1.000000 0.000000 -0.000000 -1.000000 0.000000 -0.000000 -1.000000 0.000000 -0.000000 -1.000000 0.000000 -0.000000 -1.000000 0.000000 -0.000000 -1.000000 0.000000 -0.000000 -1.000000 0.000000 -0.000000 -1.000000 0.000000 -0.000000 -1.000000 0.000000 -0.000000 -1.000000 0.000000 -0.000000 -1.000000 0.000000 -0.000000 -1.000000 0.000000 -0.000000 -1.000000 0.000000 -0.000000 -1.000000 0.000000 -0.000000 -1.000000 0.000000 -0.000000 -1.000000 0.000000 -0.000000 -1.000000 0.000000 -0.000000 -1.000000 0.000000 -0.000000 -1.000000 0.000000 -0.000000 -1.000000 0.000000 -0.000000 -1.000000 0.000000 -0.000000 -1.000000 0.000000 -0.000000 -1.000000 0.000000 -0.000000 -1.000000 -0.000000 0.000000 1.000000 -0.000000 0.000000 1.000000 -0.000000 0.000000 1.000000 -0.000000 0.000000 1.000000 -0.000000 0.000000 1.000000 -0.000000 0.000000 1.000000 -0.000000 0.000000 1.000000 -0.000000 0.000000 1.000000 -0.000000 0.000000 1.000000 -0.000000 0.000000 1.000000 -0.000000 0.000000 1.000000 -0.000000 0.000000 1.000000 -0.000000 0.000000 1.000000 -0.000000 0.000000 1.000000 -0.000000 0.000000 1.000000 -0.000000 0.000000 1.000000 -0.000000 0.000000 1.000000 -0.000000 0.000000 1.000000 -0.000000 0.000000 1.000000 -0.000000 0.000000 1.000000 -0.000000 0.000000 1.000000 -0.000000 0.000000 1.000000 -0.000000 0.000000 1.000000 -0.000000 0.000000 1.000000 -0.000000 0.000000 1.000000 -0.000000 0.000000 1.000000 -0.000000 0.000000 1.000000 -0.000000 0.000000 1.000000 -0.000000 0.000000 1.000000 -0.000000 0.000000 1.000000 -0.000000 0.000000 1.000000 -0.000000 0.000000 1.000000 -0.000000 0.000000 1.000000 -0.000000 0.000000 1.000000 -0.000000 0.000000 1.000000 -0.000000 0.000000 1.000000 -0.000000 0.000000 1.000000 -0.000000 0.000000 1.000000 -0.000000 0.000000 1.000000 -0.000000 0.000000 1.000000 -0.000000 0.000000 1.000000 -0.000000 0.000000 1.000000 -0.000000 0.000000 1.000000 -0.000000 0.000000 1.000000 -0.000000 0.000000 1.000000 -0.000000 0.000000 1.000000 -0.000000 0.000000 1.000000 -0.000000 0.000000 1.000000 -0.000000 0.000000 1.000000 -0.000000 0.000000 1.000000 -0.000000 0.000000 1.000000 -0.000000 0.000000 1.000000 -0.000000 0.000000 1.000000 -0.000000 0.000000 1.000000 -0.000000 0.000000 1.000000 -0.000000 0.000000 1.000000 -0.000000 0.000000 1.000000 -0.000000 0.000000 1.000000 -0.000000 0.000000 1.000000 -0.000000 0.000000 1.000000 -0.000000 0.000000 1.000000 -0.000000 0.000000 1.000000 -0.000000 0.000000 1.000000 -0.000000 0.000000 1.000000 -0.000000 0.000000 1.000000 -0.000000 0.000000 1.000000 -0.000000 0.000000 1.000000 -0.000000 0.000000 1.000000 -0.000000 0.000000 1.000000 -0.000000 0.000000 1.000000 -0.000000 0.000000 1.000000 -0.000000 0.000000 1.000000 -0.000000 0.000000 1.000000 -0.000000 0.000000 1.000000 -0.000000 0.000000 1.000000 -0.000000 0.000000 1.000000 -0.000000 0.000000 1.000000 -0.000000 0.000000 1.000000 -0.000000 0.000000 1.000000 -0.000000 0.000000 1.000000 -0.000000 0.000000 1.000000 -0.000000 0.000000 1.000000 -0.000000 0.000000 1.000000 -0.000000 0.000000 1.000000 -0.000000 0.000000 1.000000 -0.000000 0.000000 1.000000 -0.000000 0.000000 1.000000 -0.000000 0.000000 1.000000 -0.000000 0.000000 1.000000 -0.000000 0.000000 1.000000 -0.000000 0.000000 1.000000 -0.000000 0.000000 1.000000 -0.000000 0.000000 1.000000 -0.000000 0.000000 1.000000 -0.000000 0.000000 1.000000 -0.000000 0.000000 1.000000 -0.000000 0.000000 1.000000 -0.000000 0.000000 1.000000 -0.000000 0.000000 1.000000 -0.000000 0.000000 1.000000 -0.000000 0.000000 1.000000 -0.000000 0.000000 1.000000 -0.000000 0.000000 1.000000 -0.000000 0.000000 1.000000 -0.000000 0.000000 1.000000 -0.000000 0.000000 1.000000 -0.000000 0.000000 1.000000 -0.000000 0.000000 1.000000 -0.000000 0.000000 1.000000 -0.000000 0.000000 1.000000 -0.000000 0.000000 1.000000 -0.000000 0.000000 1.000000 -0.000000 0.000000 1.000000 -0.000000 0.000000 1.000000 -0.000000 0.000000 1.000000 -0.000000 0.000000 1.000000 -0.000000 0.000000 1.000000 -0.000000 0.000000 1.000000 -0.000000 0.000000 1.000000 -0.000000 0.000000 1.000000 -0.000000 0.000000 1.000000 -0.000000 0.000000 1.000000 -0.000000 0.000000 1.000000 -0.000000 0.000000 1.000000 -0.000000 0.000000 1.000000 -0.000000 0.000000 1.000000 -0.000000 0.000000 1.000000 -0.000000 0.000000 1.000000 -0.000000 0.000000 1.000000 -0.000000 0.000000 1.000000 -0.000000 0.000000 1.000000 -0.000000 0.000000 1.000000 -0.000000 0.000000 1.000000 -0.000000 0.000000 1.000000 -0.000000 0.000000 1.000000 -0.000000 0.000000 1.000000 -0.000000 0.000000 1.000000 -0.000000 0.000000 1.000000 -0.000000 0.000000 1.000000 -0.000000 0.000000 1.000000 -0.000000 0.000000 1.000000 -0.000000 0.000000 1.000000 -0.000000 0.000000 1.000000 -0.000000 0.000000 1.000000 -0.000000 0.000000 1.000000 -0.000000 0.000000 1.000000 -0.000000 0.000000 1.000000 -0.000000 0.000000 1.000000 -0.000000 0.000000 1.000000 -0.000000 0.000000 1.000000 -0.000000 0.000000 1.000000 -0.000000 0.000000 1.000000 -0.000000 0.000000 1.000000 -0.000000 0.000000 1.000000</float_array>
          <technique_common>
            <accessor source="#gripper_right_addition-mesh-normals-array" count="1260" stride="3">
              <param name="X" type="float"/>
              <param name="Y" type="float"/>
              <param name="Z" type="float"/>
            </accessor>
          </technique_common>
        </source>
        <vertices id="gripper_right_addition-mesh-vertices">
          <input semantic="POSITION" source="#gripper_right_addition-mesh-positions"/>
        </vertices>
        <triangles material="Opaque_246_246_243_" count="1240">
          <input semantic="VERTEX" source="#gripper_right_addition-mesh-vertices" offset="0"/>
          <input semantic="NORMAL" source="#gripper_right_addition-mesh-normals" offset="1"/>
          <p>1 0 61 1 0 2 0 2 61 1 31 3 0 2 31 3 30 4 30 4 31 3 32 5 30 4 32 5 29 6 29 6 32 5 33 7 29 6 33 7 28 8 28 8 33 7 34 9 28 8 34 9 27 10 27 10 34 9 35 11 27 10 35 11 26 12 26 12 35 11 36 13 26 12 36 13 25 14 25 14 36 13 37 15 25 14 37 15 24 16 24 16 37 15 38 17 24 16 38 17 23 18 23 18 38 17 39 19 23 18 39 19 22 20 22 20 39 19 40 21 22 20 40 21 21 22 21 22 40 21 41 23 21 22 41 23 20 24 20 24 41 23 42 25 20 24 42 25 19 26 19 26 42 25 43 27 19 26 43 27 18 28 18 28 43 27 44 29 18 28 44 29 17 30 17 30 44 29 45 31 17 30 45 31 16 32 16 32 45 31 46 33 16 32 46 33 15 34 15 34 46 33 47 35 15 34 47 35 14 36 14 36 47 35 48 37 14 36 48 37 13 38 13 38 48 37 49 39 13 38 49 39 12 40 12 40 49 39 50 41 12 40 50 41 11 42 11 42 50 41 51 43 11 42 51 43 10 44 10 44 51 43 52 45 10 44 52 45 9 46 9 46 52 45 53 47 9 46 53 47 8 48 8 48 53 47 54 49 8 48 54 49 7 50 7 50 54 49 55 51 7 50 55 51 6 52 6 52 55 51 56 53 6 52 56 53 5 54 5 54 56 53 57 55 5 54 57 55 4 56 4 56 57 55 58 57 4 56 58 57 3 58 3 58 58 57 59 59 3 58 59 59 2 60 2 60 59 59 60 61 2 60 60 61 1 0 1 0 60 61 61 1 63 62 123 63 62 64 62 64 123 63 93 65 62 64 93 65 92 66 92 66 93 65 94 67 92 66 94 67 91 68 91 68 94 67 95 69 91 68 95 69 90 70 90 70 95 69 96 71 90 70 96 71 89 72 89 72 96 71 97 73 89 72 97 73 88 74 88 74 97 73 98 75 88 74 98 75 87 76 87 76 98 75 99 77 87 76 99 77 86 78 86 78 99 77 100 79 86 78 100 79 85 80 85 80 100 79 101 81 85 80 101 81 84 82 84 82 101 81 102 83 84 82 102 83 83 84 83 84 102 83 103 85 83 84 103 85 82 86 82 86 103 85 104 87 82 86 104 87 81 88 81 88 104 87 105 89 81 88 105 89 80 90 80 90 105 89 106 91 80 90 106 91 79 92 79 92 106 91 107 93 79 92 107 93 78 94 78 94 107 93 108 95 78 94 108 95 77 96 77 96 108 95 109 97 77 96 109 97 76 98 76 98 109 97 110 99 76 98 110 99 75 100 75 100 110 99 111 101 75 100 111 101 74 102 74 102 111 101 112 103 74 102 112 103 73 104 73 104 112 103 113 105 73 104 113 105 72 106 72 106 113 105 114 107 72 106 114 107 71 108 71 108 114 107 115 109 71 108 115 109 70 110 70 110 115 109 116 111 70 110 116 111 69 112 69 112 116 111 117 113 69 112 117 113 68 114 68 114 117 113 118 115 68 114 118 115 67 116 67 116 118 115 119 117 67 116 119 117 66 118 66 118 119 117 120 119 66 118 120 119 65 120 65 120 120 119 121 121 65 120 121 121 64 122 64 122 121 121 122 123 64 122 122 123 63 62 63 62 122 123 123 63 173 124 124 125 172 126 172 126 124 125 125 127 172 126 125 127 171 128 171 128 125 127 126 129 171 128 126 129 170 130 170 130 126 129 127 131 170 130 127 131 169 132 169 132 127 131 128 133 169 132 128 133 168 134 168 134 128 133 129 135 168 134 129 135 167 136 167 136 129 135 130 137 167 136 130 137 166 138 166 138 130 137 131 139 166 138 131 139 165 140 165 140 131 139 132 141 165 140 132 141 164 142 164 142 132 141 133 143 164 142 133 143 163 144 163 144 133 143 134 145 163 144 134 145 162 146 162 146 134 145 135 147 162 146 135 147 161 148 161 148 135 147 136 149 161 148 136 149 160 150 160 150 136 149 137 151 160 150 137 151 159 152 159 152 137 151 138 153 159 152 138 153 158 154 158 154 138 153 139 155 158 154 139 155 157 156 157 156 139 155 140 157 157 156 140 157 156 158 156 158 140 157 141 159 156 158 141 159 155 160 155 160 141 159 142 161 155 160 142 161 154 162 154 162 142 161 143 163 154 162 143 163 153 164 153 164 143 163 144 165 153 164 144 165 152 166 152 166 144 165 145 167 152 166 145 167 151 168 151 168 145 167 146 169 151 168 146 169 150 170 150 170 146 169 147 171 150 170 147 171 149 172 149 172 147 171 148 173 174 174 175 175 179 176 179 176 175 175 178 177 178 177 175 175 176 178 178 177 176 178 177 179 177 179 176 178 124 180 177 179 124 180 173 181 180 182 181 183 211 184 211 184 181 183 210 185 210 185 181 183 182 186 210 185 182 186 209 187 209 187 182 186 183 188 209 187 183 188 208 189 208 189 183 188 184 190 208 189 184 190 207 191 207 191 184 190 185 192 207 191 185 192 206 193 206 193 185 192 186 194 206 193 186 194 205 195 205 195 186 194 187 196 205 195 187 196 204 197 204 197 187 196 188 198 204 197 188 198 203 199 203 199 188 198 189 200 203 199 189 200 202 201 202 201 189 200 190 202 202 201 190 202 201 203 201 203 190 202 191 204 201 203 191 204 200 205 200 205 191 204 192 206 200 205 192 206 199 207 199 207 192 206 193 208 199 207 193 208 198 209 198 209 193 208 194 210 198 209 194 210 197 211 197 211 194 210 195 212 197 211 195 212 196 213 196 213 195 212 174 174 196 213 174 174 179 176 212 214 213 215 217 216 217 216 213 215 216 217 216 217 213 215 214 218 216 217 214 218 215 219 215 219 214 218 180 220 215 219 180 220 211 221 265 222 218 223 264 224 264 224 218 223 219 225 264 224 219 225 263 226 263 226 219 225 220 227 263 226 220 227 262 228 262 228 220 227 221 229 262 228 221 229 261 230 261 230 221 229 222 231 261 230 222 231 260 232 260 232 222 231 223 233 260 232 223 233 259 234 259 234 223 233 224 235 259 234 224 235 258 236 258 236 224 235 225 237 258 236 225 237 257 238 257 238 225 237 226 239 257 238 226 239 256 240 256 240 226 239 227 241 256 240 227 241 255 242 255 242 227 241 228 243 255 242 228 243 254 244 254 244 228 243 229 245 254 244 229 245 253 246 253 246 229 245 230 247 253 246 230 247 252 248 252 248 230 247 231 249 252 248 231 249 251 250 251 250 231 249 232 251 251 250 232 251 250 252 250 252 232 251 233 253 250 252 233 253 249 254 249 254 233 253 234 255 249 254 234 255 248 256 248 256 234 255 235 257 248 256 235 257 247 258 247 258 235 257 236 259 247 258 236 259 246 260 246 260 236 259 237 261 246 260 237 261 245 262 245 262 237 261 238 263 245 262 238 263 244 264 244 264 238 263 239 265 244 264 239 265 243 266 243 266 239 265 240 267 243 266 240 267 242 268 242 268 240 267 241 269 242 268 241 269 217 270 217 270 241 269 212 271 266 272 267 273 271 274 271 274 267 273 270 275 270 275 267 273 268 276 270 275 268 276 269 277 269 277 268 276 218 278 269 277 218 278 265 279 272 280 273 281 303 282 303 282 273 281 302 283 302 283 273 281 274 284 302 283 274 284 301 285 301 285 274 284 275 286 301 285 275 286 300 287 300 287 275 286 276 288 300 287 276 288 299 289 299 289 276 288 277 290 299 289 277 290 298 291 298 291 277 290 278 292 298 291 278 292 297 293 297 293 278 292 279 294 297 293 279 294 296 295 296 295 279 294 280 296 296 295 280 296 295 297 295 297 280 296 281 298 295 297 281 298 294 299 294 299 281 298 282 300 294 299 282 300 293 301 293 301 282 300 283 302 293 301 283 302 292 303 292 303 283 302 284 304 292 303 284 304 291 305 291 305 284 304 285 306 291 305 285 306 290 307 290 307 285 306 286 308 290 307 286 308 289 309 289 309 286 308 287 310 289 309 287 310 288 311 288 311 287 310 266 312 288 311 266 312 271 313 148 314 304 315 149 316 149 316 304 315 307 317 307 317 304 315 305 318 307 317 305 318 306 319 306 319 305 318 272 320 306 319 272 320 303 321 149 322 307 323 150 324 150 324 307 323 151 325 151 325 307 323 306 326 151 325 306 326 303 327 151 325 303 327 152 328 152 328 303 327 302 329 152 328 302 329 153 330 153 330 302 329 154 331 154 331 302 329 155 332 155 332 302 329 301 333 155 332 301 333 156 334 156 334 301 333 117 335 156 334 117 335 116 336 301 333 300 337 117 335 117 335 300 337 118 338 118 338 300 337 299 339 118 338 299 339 119 340 119 340 299 339 120 341 120 341 299 339 298 342 120 341 298 342 121 343 121 343 298 342 122 344 122 344 298 342 297 345 122 344 297 345 123 346 123 346 297 345 296 347 123 346 296 347 93 348 93 348 296 347 202 349 93 348 202 349 94 350 94 350 202 349 201 351 94 350 201 351 95 352 95 352 201 351 200 353 95 352 200 353 96 354 96 354 200 353 97 355 97 355 200 353 199 356 97 355 199 356 98 357 98 357 199 356 99 358 99 358 199 356 198 359 99 358 198 359 100 360 100 360 198 359 197 361 100 360 197 361 166 362 166 362 197 361 167 363 167 363 197 361 196 364 167 363 196 364 168 365 168 365 196 364 169 366 169 366 196 364 170 367 170 367 196 364 179 368 170 367 179 368 171 369 171 369 179 368 178 370 171 369 178 370 177 371 296 347 295 372 202 349 202 349 295 372 203 373 203 373 295 372 204 374 204 374 295 372 294 375 204 374 294 375 46 376 46 376 294 375 47 377 47 377 294 375 293 378 47 377 293 378 48 379 48 379 293 378 49 380 49 380 293 378 292 381 49 380 292 381 50 382 50 382 292 381 51 383 51 383 292 381 291 384 51 383 291 384 52 385 52 385 291 384 290 386 52 385 290 386 53 387 53 387 290 386 54 388 54 388 290 386 289 389 54 388 289 389 258 390 258 390 289 389 259 391 259 391 289 389 288 392 259 391 288 392 260 393 260 393 288 392 261 394 261 394 288 392 262 395 262 395 288 392 271 396 262 395 271 396 263 397 263 397 271 396 270 398 263 397 270 398 269 399 265 400 264 401 269 399 269 399 264 401 263 397 258 390 257 402 54 388 54 388 257 402 55 403 55 403 257 402 56 404 56 404 257 402 256 405 56 404 256 405 57 406 57 406 256 405 58 407 58 407 256 405 255 408 58 407 255 408 59 409 59 409 255 408 60 410 60 410 255 408 254 411 60 410 254 411 61 412 61 412 254 411 253 413 61 412 253 413 31 414 31 414 253 413 32 415 32 415 253 413 252 416 32 415 252 416 33 417 33 417 252 416 251 418 33 417 251 418 34 419 34 419 251 418 35 420 35 420 251 418 250 421 35 420 250 421 36 422 36 422 250 421 37 423 37 423 250 421 249 424 37 423 249 424 38 425 38 425 249 424 39 426 39 426 249 424 248 427 39 426 248 427 209 428 209 428 248 427 247 429 209 428 247 429 210 430 210 430 247 429 246 431 210 430 246 431 245 432 245 432 244 433 210 430 210 430 244 433 211 434 211 434 244 433 243 435 211 434 243 435 215 436 215 436 243 435 216 437 216 437 243 435 242 438 216 437 242 438 217 439 209 428 208 440 39 426 39 426 208 440 40 441 40 441 208 440 41 442 41 442 208 440 207 443 41 442 207 443 42 444 42 444 207 443 206 445 42 444 206 445 43 446 43 446 206 445 44 447 44 447 206 445 205 448 44 447 205 448 45 449 45 449 205 448 46 376 46 376 205 448 204 374 173 450 172 451 177 371 177 371 172 451 171 369 100 360 166 362 101 452 101 452 166 362 165 453 101 452 165 453 102 454 102 454 165 453 164 455 102 454 164 455 103 456 103 456 164 455 104 457 104 457 164 455 163 458 104 457 163 458 105 459 105 459 163 458 106 460 106 460 163 458 162 461 106 460 162 461 107 462 107 462 162 461 108 463 108 463 162 461 161 464 108 463 161 464 109 465 109 465 161 464 160 466 109 465 160 466 110 467 110 467 160 466 111 468 111 468 160 466 159 469 111 468 159 469 112 470 112 470 159 469 113 471 113 471 159 469 158 472 113 471 158 472 114 473 114 473 158 472 115 474 115 474 158 472 157 475 115 474 157 475 116 336 116 336 157 475 156 334 305 476 146 477 272 478 272 478 146 477 145 479 272 478 145 479 273 480 273 480 145 479 144 481 273 480 144 481 143 482 305 476 304 483 146 477 146 477 304 483 147 484 147 484 304 483 148 485 143 482 142 486 273 480 273 480 142 486 274 487 274 487 142 486 141 488 274 487 141 488 69 489 69 489 141 488 70 490 70 490 141 488 140 491 70 490 140 491 71 492 71 492 140 491 139 493 71 492 139 493 72 494 72 494 139 493 73 495 73 495 139 493 138 496 73 495 138 496 74 497 74 497 138 496 75 498 75 498 138 496 137 499 75 498 137 499 76 500 76 500 137 499 77 501 77 501 137 499 136 502 77 501 136 502 78 503 78 503 136 502 135 504 78 503 135 504 79 505 79 505 135 504 80 506 80 506 135 504 134 507 80 506 134 507 81 508 81 508 134 507 82 509 82 509 134 507 133 510 82 509 133 510 83 511 83 511 133 510 84 512 84 512 133 510 132 513 84 512 132 513 85 514 85 514 132 513 131 515 85 514 131 515 86 516 86 516 131 515 194 517 86 516 194 517 193 518 131 515 130 519 194 517 194 517 130 519 195 520 195 520 130 519 129 521 195 520 129 521 128 522 128 522 127 523 195 520 195 520 127 523 174 524 174 524 127 523 126 525 174 524 126 525 175 526 175 526 126 525 176 527 176 527 126 525 125 528 176 527 125 528 124 529 86 516 193 518 87 530 87 530 193 518 192 531 87 530 192 531 88 532 88 532 192 531 89 533 89 533 192 531 191 534 89 533 191 534 90 535 90 535 191 534 91 536 91 536 191 534 190 537 91 536 190 537 92 538 92 538 190 537 189 539 92 538 189 539 62 540 62 540 189 539 279 541 62 540 279 541 63 542 63 542 279 541 278 543 63 542 278 543 64 544 64 544 278 543 277 545 64 544 277 545 65 546 65 546 277 545 66 547 66 547 277 545 276 548 66 547 276 548 67 549 67 549 276 548 68 550 68 550 276 548 275 551 68 550 275 551 69 489 69 489 275 551 274 487 279 541 189 539 280 552 280 552 189 539 188 553 280 552 188 553 187 554 186 555 16 556 187 554 187 554 16 556 281 557 187 554 281 557 280 552 185 558 18 559 186 555 186 555 18 559 17 560 186 555 17 560 16 556 184 561 20 562 185 558 185 558 20 562 19 563 185 558 19 563 18 559 20 562 184 561 21 564 21 564 184 561 183 565 21 564 183 565 22 566 22 566 183 565 23 567 23 567 183 565 182 568 23 567 182 568 235 569 235 569 182 568 236 570 236 570 182 568 181 571 236 570 181 571 237 572 237 572 181 571 238 573 238 573 181 571 239 574 239 574 181 571 180 575 239 574 180 575 240 576 240 576 180 575 214 577 240 576 214 577 213 578 212 579 241 580 213 578 213 578 241 580 240 576 235 569 234 581 23 567 23 567 234 581 24 582 24 582 234 581 25 583 25 583 234 581 233 584 25 583 233 584 26 585 26 585 233 584 27 586 27 586 233 584 232 587 27 586 232 587 28 588 28 588 232 587 29 589 29 589 232 587 231 590 29 589 231 590 30 591 30 591 231 590 230 592 30 591 230 592 0 593 0 593 230 592 1 594 1 594 230 592 229 595 1 594 229 595 2 596 2 596 229 595 228 597 2 596 228 597 3 598 3 598 228 597 4 599 4 599 228 597 227 600 4 599 227 600 5 601 5 601 227 600 6 602 6 602 227 600 226 603 6 602 226 603 7 604 7 604 226 603 8 605 8 605 226 603 225 606 8 605 225 606 286 607 286 607 225 606 224 608 286 607 224 608 287 609 287 609 224 608 223 610 287 609 223 610 222 611 222 611 221 612 287 609 287 609 221 612 266 613 266 613 221 612 220 614 266 613 220 614 267 615 267 615 220 614 268 616 268 616 220 614 219 617 268 616 219 617 218 618 286 607 285 619 8 605 8 605 285 619 9 620 9 620 285 619 10 621 10 621 285 619 284 622 10 621 284 622 11 623 11 623 284 622 283 624 11 623 283 624 12 625 12 625 283 624 13 626 13 626 283 624 282 627 13 626 282 627 14 628 14 628 282 627 15 629 15 629 282 627 281 557 15 629 281 557 16 556 309 630 369 631 308 632 308 632 369 631 339 633 308 632 339 633 338 634 338 634 339 633 340 635 338 634 340 635 337 636 337 636 340 635 341 637 337 636 341 637 336 638 336 638 341 637 342 639 336 638 342 639 335 640 335 640 342 639 343 641 335 640 343 641 334 642 334 642 343 641 344 643 334 642 344 643 333 644 333 644 344 643 345 645 333 644 345 645 332 646 332 646 345 645 346 647 332 646 346 647 331 648 331 648 346 647 347 649 331 648 347 649 330 650 330 650 347 649 348 651 330 650 348 651 329 652 329 652 348 651 349 653 329 652 349 653 328 654 328 654 349 653 350 655 328 654 350 655 327 656 327 656 350 655 351 657 327 656 351 657 326 658 326 658 351 657 352 659 326 658 352 659 325 660 325 660 352 659 353 661 325 660 353 661 324 662 324 662 353 661 354 663 324 662 354 663 323 664 323 664 354 663 355 665 323 664 355 665 322 666 322 666 355 665 356 667 322 666 356 667 321 668 321 668 356 667 357 669 321 668 357 669 320 670 320 670 357 669 358 671 320 670 358 671 319 672 319 672 358 671 359 673 319 672 359 673 318 674 318 674 359 673 360 675 318 674 360 675 317 676 317 676 360 675 361 677 317 676 361 677 316 678 316 678 361 677 362 679 316 678 362 679 315 680 315 680 362 679 363 681 315 680 363 681 314 682 314 682 363 681 364 683 314 682 364 683 313 684 313 684 364 683 365 685 313 684 365 685 312 686 312 686 365 685 366 687 312 686 366 687 311 688 311 688 366 687 367 689 311 688 367 689 310 690 310 690 367 689 368 691 310 690 368 691 309 630 309 630 368 691 369 631 371 692 431 693 370 694 370 694 431 693 401 695 370 694 401 695 400 696 400 696 401 695 402 697 400 696 402 697 399 698 399 698 402 697 403 699 399 698 403 699 398 700 398 700 403 699 404 701 398 700 404 701 397 702 397 702 404 701 405 703 397 702 405 703 396 704 396 704 405 703 406 705 396 704 406 705 395 706 395 706 406 705 407 707 395 706 407 707 394 708 394 708 407 707 408 709 394 708 408 709 393 710 393 710 408 709 409 711 393 710 409 711 392 712 392 712 409 711 410 713 392 712 410 713 391 714 391 714 410 713 411 715 391 714 411 715 390 716 390 716 411 715 412 717 390 716 412 717 389 718 389 718 412 717 413 719 389 718 413 719 388 720 388 720 413 719 414 721 388 720 414 721 387 722 387 722 414 721 415 723 387 722 415 723 386 724 386 724 415 723 416 725 386 724 416 725 385 726 385 726 416 725 417 727 385 726 417 727 384 728 384 728 417 727 418 729 384 728 418 729 383 730 383 730 418 729 419 731 383 730 419 731 382 732 382 732 419 731 420 733 382 732 420 733 381 734 381 734 420 733 421 735 381 734 421 735 380 736 380 736 421 735 422 737 380 736 422 737 379 738 379 738 422 737 423 739 379 738 423 739 378 740 378 740 423 739 424 741 378 740 424 741 377 742 377 742 424 741 425 743 377 742 425 743 376 744 376 744 425 743 426 745 376 744 426 745 375 746 375 746 426 745 427 747 375 746 427 747 374 748 374 748 427 747 428 749 374 748 428 749 373 750 373 750 428 749 429 751 373 750 429 751 372 752 372 752 429 751 430 753 372 752 430 753 371 692 371 692 430 753 431 693 481 754 432 755 480 756 480 756 432 755 433 757 480 756 433 757 479 758 479 758 433 757 434 759 479 758 434 759 478 760 478 760 434 759 435 761 478 760 435 761 477 762 477 762 435 761 436 763 477 762 436 763 476 764 476 764 436 763 437 765 476 764 437 765 475 766 475 766 437 765 438 767 475 766 438 767 474 768 474 768 438 767 439 769 474 768 439 769 473 770 473 770 439 769 440 771 473 770 440 771 472 772 472 772 440 771 441 773 472 772 441 773 471 774 471 774 441 773 442 775 471 774 442 775 470 776 470 776 442 775 443 777 470 776 443 777 469 778 469 778 443 777 444 779 469 778 444 779 468 780 468 780 444 779 445 781 468 780 445 781 467 782 467 782 445 781 446 783 467 782 446 783 466 784 466 784 446 783 447 785 466 784 447 785 465 786 465 786 447 785 448 787 465 786 448 787 464 788 464 788 448 787 449 789 464 788 449 789 463 790 463 790 449 789 450 791 463 790 450 791 462 792 462 792 450 791 451 793 462 792 451 793 461 794 461 794 451 793 452 795 461 794 452 795 460 796 460 796 452 795 453 797 460 796 453 797 459 798 459 798 453 797 454 799 459 798 454 799 458 800 458 800 454 799 455 801 458 800 455 801 457 802 457 802 455 801 456 803 482 804 483 805 487 806 487 806 483 805 486 807 486 807 483 805 484 808 486 807 484 808 485 809 485 809 484 808 432 810 485 809 432 810 481 811 488 812 489 813 519 814 519 814 489 813 518 815 518 815 489 813 490 816 518 815 490 816 517 817 517 817 490 816 491 818 517 817 491 818 516 819 516 819 491 818 492 820 516 819 492 820 515 821 515 821 492 820 493 822 515 821 493 822 514 823 514 823 493 822 494 824 514 823 494 824 513 825 513 825 494 824 495 826 513 825 495 826 512 827 512 827 495 826 496 828 512 827 496 828 511 829 511 829 496 828 497 830 511 829 497 830 510 831 510 831 497 830 498 832 510 831 498 832 509 833 509 833 498 832 499 834 509 833 499 834 508 835 508 835 499 834 500 836 508 835 500 836 507 837 507 837 500 836 501 838 507 837 501 838 506 839 506 839 501 838 502 840 506 839 502 840 505 841 505 841 502 840 503 842 505 841 503 842 504 843 504 843 503 842 482 804 504 843 482 804 487 806 520 844 521 845 525 846 525 846 521 845 524 847 524 847 521 845 522 848 524 847 522 848 523 849 523 849 522 848 488 850 523 849 488 850 519 851 573 852 526 853 572 854 572 854 526 853 527 855 572 854 527 855 571 856 571 856 527 855 528 857 571 856 528 857 570 858 570 858 528 857 529 859 570 858 529 859 569 860 569 860 529 859 530 861 569 860 530 861 568 862 568 862 530 861 531 863 568 862 531 863 567 864 567 864 531 863 532 865 567 864 532 865 566 866 566 866 532 865 533 867 566 866 533 867 565 868 565 868 533 867 534 869 565 868 534 869 564 870 564 870 534 869 535 871 564 870 535 871 563 872 563 872 535 871 536 873 563 872 536 873 562 874 562 874 536 873 537 875 562 874 537 875 561 876 561 876 537 875 538 877 561 876 538 877 560 878 560 878 538 877 539 879 560 878 539 879 559 880 559 880 539 879 540 881 559 880 540 881 558 882 558 882 540 881 541 883 558 882 541 883 557 884 557 884 541 883 542 885 557 884 542 885 556 886 556 886 542 885 543 887 556 886 543 887 555 888 555 888 543 887 544 889 555 888 544 889 554 890 554 890 544 889 545 891 554 890 545 891 553 892 553 892 545 891 546 893 553 892 546 893 552 894 552 894 546 893 547 895 552 894 547 895 551 896 551 896 547 895 548 897 551 896 548 897 550 898 550 898 548 897 549 899 550 898 549 899 525 900 525 900 549 899 520 901 574 902 575 903 579 904 579 904 575 903 578 905 578 905 575 903 576 906 578 905 576 906 577 907 577 907 576 906 526 908 577 907 526 908 573 909 580 910 581 911 611 912 611 912 581 911 610 913 610 913 581 911 582 914 610 913 582 914 609 915 609 915 582 914 583 916 609 915 583 916 608 917 608 917 583 916 584 918 608 917 584 918 607 919 607 919 584 918 585 920 607 919 585 920 606 921 606 921 585 920 586 922 606 921 586 922 605 923 605 923 586 922 587 924 605 923 587 924 604 925 604 925 587 924 588 926 604 925 588 926 603 927 603 927 588 926 589 928 603 927 589 928 602 929 602 929 589 928 590 930 602 929 590 930 601 931 601 931 590 930 591 932 601 931 591 932 600 933 600 933 591 932 592 934 600 933 592 934 599 935 599 935 592 934 593 936 599 935 593 936 598 937 598 937 593 936 594 938 598 937 594 938 597 939 597 939 594 938 595 940 597 939 595 940 596 941 596 941 595 940 574 942 596 941 574 942 579 943 456 944 612 945 457 946 457 946 612 945 615 947 615 947 612 945 613 948 615 947 613 948 614 949 614 949 613 948 580 950 614 949 580 950 611 951 457 952 615 953 458 954 458 954 615 953 459 955 459 955 615 953 614 956 459 955 614 956 611 957 459 955 611 957 460 958 460 958 611 957 610 959 460 958 610 959 461 960 461 960 610 959 462 961 462 961 610 959 463 962 463 962 610 959 609 963 463 962 609 963 464 964 464 964 609 963 425 965 464 964 425 965 424 966 609 963 608 967 425 965 425 965 608 967 426 968 426 968 608 967 607 969 426 968 607 969 427 970 427 970 607 969 428 971 428 971 607 969 606 972 428 971 606 972 429 973 429 973 606 972 430 974 430 974 606 972 605 975 430 974 605 975 431 976 431 976 605 975 604 977 431 976 604 977 401 978 401 978 604 977 510 979 401 978 510 979 402 980 402 980 510 979 509 981 402 980 509 981 403 982 403 982 509 981 508 983 403 982 508 983 404 984 404 984 508 983 405 985 405 985 508 983 507 986 405 985 507 986 406 987 406 987 507 986 407 988 407 988 507 986 506 989 407 988 506 989 408 990 408 990 506 989 505 991 408 990 505 991 474 992 474 992 505 991 475 993 475 993 505 991 504 994 475 993 504 994 476 995 476 995 504 994 477 996 477 996 504 994 478 997 478 997 504 994 487 998 478 997 487 998 479 999 479 999 487 998 486 1000 479 999 486 1000 485 1001 604 977 603 1002 510 979 510 979 603 1002 511 1003 511 1003 603 1002 512 1004 512 1004 603 1002 602 1005 512 1004 602 1005 354 1006 354 1006 602 1005 355 1007 355 1007 602 1005 601 1008 355 1007 601 1008 356 1009 356 1009 601 1008 357 1010 357 1010 601 1008 600 1011 357 1010 600 1011 358 1012 358 1012 600 1011 359 1013 359 1013 600 1011 599 1014 359 1013 599 1014 360 1015 360 1015 599 1014 598 1016 360 1015 598 1016 361 1017 361 1017 598 1016 362 1018 362 1018 598 1016 597 1019 362 1018 597 1019 566 1020 566 1020 597 1019 567 1021 567 1021 597 1019 596 1022 567 1021 596 1022 568 1023 568 1023 596 1022 569 1024 569 1024 596 1022 570 1025 570 1025 596 1022 579 1026 570 1025 579 1026 571 1027 571 1027 579 1026 578 1028 571 1027 578 1028 577 1029 573 1030 572 1031 577 1029 577 1029 572 1031 571 1027 566 1020 565 1032 362 1018 362 1018 565 1032 363 1033 363 1033 565 1032 364 1034 364 1034 565 1032 564 1035 364 1034 564 1035 365 1036 365 1036 564 1035 366 1037 366 1037 564 1035 563 1038 366 1037 563 1038 367 1039 367 1039 563 1038 368 1040 368 1040 563 1038 562 1041 368 1040 562 1041 369 1042 369 1042 562 1041 561 1043 369 1042 561 1043 339 1044 339 1044 561 1043 340 1045 340 1045 561 1043 560 1046 340 1045 560 1046 341 1047 341 1047 560 1046 559 1048 341 1047 559 1048 342 1049 342 1049 559 1048 343 1050 343 1050 559 1048 558 1051 343 1050 558 1051 344 1052 344 1052 558 1051 345 1053 345 1053 558 1051 557 1054 345 1053 557 1054 346 1055 346 1055 557 1054 347 1056 347 1056 557 1054 556 1057 347 1056 556 1057 517 1058 517 1058 556 1057 555 1059 517 1058 555 1059 518 1060 518 1060 555 1059 554 1061 518 1060 554 1061 553 1062 553 1062 552 1063 518 1060 518 1060 552 1063 519 1064 519 1064 552 1063 551 1065 519 1064 551 1065 523 1066 523 1066 551 1065 524 1067 524 1067 551 1065 550 1068 524 1067 550 1068 525 1069 517 1058 516 1070 347 1056 347 1056 516 1070 348 1071 348 1071 516 1070 349 1072 349 1072 516 1070 515 1073 349 1072 515 1073 350 1074 350 1074 515 1073 514 1075 350 1074 514 1075 351 1076 351 1076 514 1075 352 1077 352 1077 514 1075 513 1078 352 1077 513 1078 353 1079 353 1079 513 1078 354 1006 354 1006 513 1078 512 1004 481 1080 480 1081 485 1001 485 1001 480 1081 479 999 408 990 474 992 409 1082 409 1082 474 992 473 1083 409 1082 473 1083 410 1084 410 1084 473 1083 472 1085 410 1084 472 1085 411 1086 411 1086 472 1085 412 1087 412 1087 472 1085 471 1088 412 1087 471 1088 413 1089 413 1089 471 1088 414 1090 414 1090 471 1088 470 1091 414 1090 470 1091 415 1092 415 1092 470 1091 416 1093 416 1093 470 1091 469 1094 416 1093 469 1094 417 1095 417 1095 469 1094 468 1096 417 1095 468 1096 418 1097 418 1097 468 1096 419 1098 419 1098 468 1096 467 1099 419 1098 467 1099 420 1100 420 1100 467 1099 421 1101 421 1101 467 1099 466 1102 421 1101 466 1102 422 1103 422 1103 466 1102 423 1104 423 1104 466 1102 465 1105 423 1104 465 1105 424 966 424 966 465 1105 464 964 613 1106 454 1107 580 1108 580 1108 454 1107 453 1109 580 1108 453 1109 581 1110 581 1110 453 1109 452 1111 581 1110 452 1111 451 1112 613 1106 612 1113 454 1107 454 1107 612 1113 455 1114 455 1114 612 1113 456 1115 451 1112 450 1116 581 1110 581 1110 450 1116 582 1117 582 1117 450 1116 449 1118 582 1117 449 1118 377 1119 377 1119 449 1118 378 1120 378 1120 449 1118 448 1121 378 1120 448 1121 379 1122 379 1122 448 1121 447 1123 379 1122 447 1123 380 1124 380 1124 447 1123 381 1125 381 1125 447 1123 446 1126 381 1125 446 1126 382 1127 382 1127 446 1126 383 1128 383 1128 446 1126 445 1129 383 1128 445 1129 384 1130 384 1130 445 1129 385 1131 385 1131 445 1129 444 1132 385 1131 444 1132 386 1133 386 1133 444 1132 443 1134 386 1133 443 1134 387 1135 387 1135 443 1134 388 1136 388 1136 443 1134 442 1137 388 1136 442 1137 389 1138 389 1138 442 1137 390 1139 390 1139 442 1137 441 1140 390 1139 441 1140 391 1141 391 1141 441 1140 392 1142 392 1142 441 1140 440 1143 392 1142 440 1143 393 1144 393 1144 440 1143 439 1145 393 1144 439 1145 394 1146 394 1146 439 1145 502 1147 394 1146 502 1147 501 1148 439 1145 438 1149 502 1147 502 1147 438 1149 503 1150 503 1150 438 1149 437 1151 503 1150 437 1151 436 1152 436 1152 435 1153 503 1150 503 1150 435 1153 482 1154 482 1154 435 1153 434 1155 482 1154 434 1155 483 1156 483 1156 434 1155 484 1157 484 1157 434 1155 433 1158 484 1157 433 1158 432 1159 394 1146 501 1148 395 1160 395 1160 501 1148 500 1161 395 1160 500 1161 396 1162 396 1162 500 1161 397 1163 397 1163 500 1161 499 1164 397 1163 499 1164 398 1165 398 1165 499 1164 399 1166 399 1166 499 1164 498 1167 399 1166 498 1167 400 1168 400 1168 498 1167 497 1169 400 1168 497 1169 370 1170 370 1170 497 1169 587 1171 370 1170 587 1171 371 1172 371 1172 587 1171 586 1173 371 1172 586 1173 372 1174 372 1174 586 1173 585 1175 372 1174 585 1175 373 1176 373 1176 585 1175 374 1177 374 1177 585 1175 584 1178 374 1177 584 1178 375 1179 375 1179 584 1178 376 1180 376 1180 584 1178 583 1181 376 1180 583 1181 377 1119 377 1119 583 1181 582 1117 587 1171 497 1169 588 1182 588 1182 497 1169 496 1183 588 1182 496 1183 495 1184 494 1185 324 1186 495 1184 495 1184 324 1186 589 1187 495 1184 589 1187 588 1182 493 1188 326 1189 494 1185 494 1185 326 1189 325 1190 494 1185 325 1190 324 1186 492 1191 328 1192 493 1188 493 1188 328 1192 327 1193 493 1188 327 1193 326 1189 328 1192 492 1191 329 1194 329 1194 492 1191 491 1195 329 1194 491 1195 330 1196 330 1196 491 1195 331 1197 331 1197 491 1195 490 1198 331 1197 490 1198 543 1199 543 1199 490 1198 544 1200 544 1200 490 1198 489 1201 544 1200 489 1201 545 1202 545 1202 489 1201 546 1203 546 1203 489 1201 547 1204 547 1204 489 1201 488 1205 547 1204 488 1205 548 1206 548 1206 488 1205 522 1207 548 1206 522 1207 521 1208 520 1209 549 1210 521 1208 521 1208 549 1210 548 1206 543 1199 542 1211 331 1197 331 1197 542 1211 332 1212 332 1212 542 1211 333 1213 333 1213 542 1211 541 1214 333 1213 541 1214 334 1215 334 1215 541 1214 335 1216 335 1216 541 1214 540 1217 335 1216 540 1217 336 1218 336 1218 540 1217 337 1219 337 1219 540 1217 539 1220 337 1219 539 1220 338 1221 338 1221 539 1220 538 1222 338 1221 538 1222 308 1223 308 1223 538 1222 309 1224 309 1224 538 1222 537 1225 309 1224 537 1225 310 1226 310 1226 537 1225 536 1227 310 1226 536 1227 311 1228 311 1228 536 1227 312 1229 312 1229 536 1227 535 1230 312 1229 535 1230 313 1231 313 1231 535 1230 314 1232 314 1232 535 1230 534 1233 314 1232 534 1233 315 1234 315 1234 534 1233 316 1235 316 1235 534 1233 533 1236 316 1235 533 1236 594 1237 594 1237 533 1236 532 1238 594 1237 532 1238 595 1239 595 1239 532 1238 531 1240 595 1239 531 1240 530 1241 530 1241 529 1242 595 1239 595 1239 529 1242 574 1243 574 1243 529 1242 528 1244 574 1243 528 1244 575 1245 575 1245 528 1244 576 1246 576 1246 528 1244 527 1247 576 1246 527 1247 526 1248 594 1237 593 1249 316 1235 316 1235 593 1249 317 1250 317 1250 593 1249 318 1251 318 1251 593 1249 592 1252 318 1251 592 1252 319 1253 319 1253 592 1252 591 1254 319 1253 591 1254 320 1255 320 1255 591 1254 321 1256 321 1256 591 1254 590 1257 321 1256 590 1257 322 1258 322 1258 590 1257 323 1259 323 1259 590 1257 589 1187 323 1259 589 1187 324 1186</p>
        </triangles>
      </mesh>
    </geometry>
  </library_geometries>
  <library_visual_scenes>
    <visual_scene id="Scene" name="Scene">
      <node id="gripper_right_addition-node" name="gripper_right_addition" type="NODE">
        <instance_geometry url="#gripper_right_addition-mesh">
          <bind_material>
            <technique_common>
              <instance_material symbol="Opaque_246_246_243_" target="#Opaque_246_246_243_"/>
            </technique_common>
          </bind_material>
        </instance_geometry>
      </node>
    </visual_scene>
  </library_visual_scenes>
  <scene>
    <instance_visual_scene url="#Scene"/>
  </scene>
</COLLADA>
