<?xml version="1.0" encoding="utf-8"?>
<COLLADA xmlns="http://www.collada.org/2005/11/COLLADASchema" version="1.4.1">
  <asset>
    <contributor>
      <authoring_tool>Fusion URDF/XACRO Exporter</authoring_tool>
    </contributor>
    <created>2026-08-06T06:33:40Z</created>
    <modified>2026-08-06T06:33:40Z</modified>
    <unit name="meter" meter="1.0"/>
    <up_axis>Z_UP</up_axis>
  </asset>
  <library_effects>
    <effect id="Opaque_246_246_243_-effect">
      <profile_COMMON>
        <technique sid="common">
          <lambert>
            <emission><color>0 0 0 1</color></emission>
            <ambient><color>0.0000 0.0000 0.0000 1</color></ambient>
            <diffuse><color>0.9647 0.9647 0.9529 1</color></diffuse>
            <reflective><color>0 0 0 1</color></reflective>
            <transparent opaque="A_ONE"><color>1 1 1 1</color></transparent>
            <transparency><float>1</float></transparency>
          </lambert>
        </technique>
      </profile_COMMON>
    </effect>
  </library_effects>
  <library_materials>
    <material id="Opaque_246_246_243_" name="Opaque(246,246,243)">
      <instance_effect url="#Opaque_246_246_243_-effect"/>
    </material>
  </library_materials>
  <library_geometries>
    <geometry id="gripper_clamp_right-mesh" name="gripper_clamp_right">
      <mesh>
        <source id="gripper_clamp_right-mesh-positions">
          <float_array id="gripper_clamp_right-mesh-positions-array" count="747">0.261064 0.151190 0.164595 0.257064 0.151190 0.164595 0.257064 0.151190 0.148595 0.261064 0.151190 0.148595 0.252564 0.181402 0.148595 0.256564 0.181402 0.148595 0.261064 0.176902 0.148595 0.252564 0.153690 0.148595 0.253064 0.154556 0.148595 0.252564 0.155422 0.148595 0.253064 0.156288 0.148595 0.252564 0.157154 0.148595 0.253064 0.158020 0.148595 0.252564 0.158886 0.148595 0.253064 0.159752 0.148595 0.252564 0.160618 0.148595 0.253064 0.161484 0.148595 0.252564 0.162350 0.148595 0.253064 0.163216 0.148595 0.252564 0.164082 0.148595 0.253064 0.164948 0.148595 0.252564 0.165814 0.148595 0.253064 0.166680 0.148595 0.252564 0.167546 0.148595 0.253064 0.168412 0.148595 0.252564 0.169278 0.148595 0.253064 0.170144 0.148595 0.252564 0.171010 0.148595 0.253064 0.171876 0.148595 0.252564 0.172742 0.148595 0.253064 0.173608 0.148595 0.252564 0.174474 0.148595 0.253064 0.175340 0.148595 0.252564 0.176206 0.148595 0.253064 0.177072 0.148595 0.252564 0.177938 0.148595 0.253064 0.178804 0.148595 0.252564 0.179670 0.148595 0.253064 0.180536 0.148595 0.261064 0.139492 0.164595 0.261125 0.139387 0.164595 0.261182 0.139279 0.164595 0.261236 0.139170 0.164595 0.268236 0.124170 0.164595 0.268421 0.123681 0.164595 0.268531 0.123169 0.164595 0.268564 0.122647 0.164595 0.268519 0.122126 0.164595 0.268396 0.121617 0.164595 0.268199 0.121133 0.164595 0.267932 0.120683 0.164595 0.267601 0.120278 0.164595 0.267213 0.119927 0.164595 0.266777 0.119637 0.164595 0.266303 0.119416 0.164595 0.265801 0.119268 0.164595 0.265283 0.119197 0.164595 0.264760 0.119203 0.164595 0.264244 0.119287 0.164595 0.263746 0.119447 0.164595 0.263277 0.119680 0.164595 0.262849 0.119980 0.164595 0.262470 0.120340 0.164595 0.262149 0.120753 0.164595 0.261893 0.121210 0.164595 0.254893 0.136210 0.164595 0.254714 0.136677 0.164595 0.254604 0.137165 0.164595 0.254564 0.137664 0.164595 0.254596 0.138164 0.164595 0.254700 0.138654 0.164595 0.254872 0.139124 0.164595 0.255109 0.139565 0.164595 0.255406 0.139967 0.164595 0.255759 0.140323 0.164595 0.256158 0.140625 0.164595 0.256596 0.140867 0.164595 0.257064 0.141044 0.164595 0.263889 0.122690 0.164595 0.263929 0.122386 0.164595 0.264047 0.122102 0.164595 0.264233 0.121859 0.164595 0.264477 0.121672 0.164595 0.264760 0.121555 0.164595 0.265064 0.121515 0.164595 0.265368 0.121555 0.164595 0.265652 0.121672 0.164595 0.265895 0.121859 0.164595 0.266082 0.122102 0.164595 0.266199 0.122386 0.164595 0.266239 0.122690 0.164595 0.266199 0.122994 0.164595 0.266082 0.123277 0.164595 0.265895 0.123521 0.164595 0.265652 0.123707 0.164595 0.265368 0.123825 0.164595 0.265064 0.123865 0.164595 0.264760 0.123825 0.164595 0.264477 0.123707 0.164595 0.264233 0.123521 0.164595 0.264047 0.123277 0.164595 0.263929 0.122994 0.164595 0.256889 0.137690 0.164595 0.256929 0.137386 0.164595 0.257047 0.137102 0.164595 0.257233 0.136859 0.164595 0.257477 0.136672 0.164595 0.257760 0.136555 0.164595 0.258064 0.136515 0.164595 0.258368 0.136555 0.164595 0.258652 0.136672 0.164595 0.258895 0.136859 0.164595 0.259082 0.137102 0.164595 0.259199 0.137386 0.164595 0.259239 0.137690 0.164595 0.259199 0.137994 0.164595 0.259082 0.138277 0.164595 0.258895 0.138521 0.164595 0.258652 0.138707 0.164595 0.258368 0.138825 0.164595 0.258064 0.138865 0.164595 0.257760 0.138825 0.164595 0.257477 0.138707 0.164595 0.257233 0.138521 0.164595 0.257047 0.138277 0.164595 0.256929 0.137994 0.164595 0.261064 0.176902 0.168595 0.261064 0.139492 0.168595 0.263889 0.122690 0.168595 0.263929 0.122386 0.168595 0.264047 0.122102 0.168595 0.264233 0.121859 0.168595 0.264477 0.121672 0.168595 0.264760 0.121555 0.168595 0.265064 0.121515 0.168595 0.265368 0.121555 0.168595 0.265652 0.121672 0.168595 0.265895 0.121859 0.168595 0.266082 0.122102 0.168595 0.266199 0.122386 0.168595 0.266239 0.122690 0.168595 0.266199 0.122994 0.168595 0.266082 0.123277 0.168595 0.265895 0.123521 0.168595 0.265652 0.123707 0.168595 0.265368 0.123825 0.168595 0.265064 0.123865 0.168595 0.264760 0.123825 0.168595 0.264477 0.123707 0.168595 0.264233 0.123521 0.168595 0.264047 0.123277 0.168595 0.263929 0.122994 0.168595 0.256889 0.137690 0.168595 0.256929 0.137386 0.168595 0.257047 0.137102 0.168595 0.257233 0.136859 0.168595 0.257477 0.136672 0.168595 0.257760 0.136555 0.168595 0.258064 0.136515 0.168595 0.258368 0.136555 0.168595 0.258652 0.136672 0.168595 0.258895 0.136859 0.168595 0.259082 0.137102 0.168595 0.259199 0.137386 0.168595 0.259239 0.137690 0.168595 0.259199 0.137994 0.168595 0.259082 0.138277 0.168595 0.258895 0.138521 0.168595 0.258652 0.138707 0.168595 0.258368 0.138825 0.168595 0.258064 0.138865 0.168595 0.257760 0.138825 0.168595 0.257477 0.138707 0.168595 0.257233 0.138521 0.168595 0.257047 0.138277 0.168595 0.256929 0.137994 0.168595 0.253064 0.180536 0.168595 0.252564 0.181402 0.168595 0.252564 0.179670 0.168595 0.253064 0.178804 0.168595 0.252564 0.177938 0.168595 0.253064 0.177072 0.168595 0.252564 0.176206 0.168595 0.253064 0.175340 0.168595 0.252564 0.174474 0.168595 0.253064 0.173608 0.168595 0.252564 0.172742 0.168595 0.253064 0.171876 0.168595 0.252564 0.171010 0.168595 0.253064 0.170144 0.168595 0.252564 0.169278 0.168595 0.253064 0.168412 0.168595 0.252564 0.167546 0.168595 0.253064 0.166680 0.168595 0.252564 0.165814 0.168595 0.253064 0.164948 0.168595 0.252564 0.164082 0.168595 0.253064 0.163216 0.168595 0.252564 0.162350 0.168595 0.253064 0.161484 0.168595 0.252564 0.160618 0.168595 0.253064 0.159752 0.168595 0.252564 0.158886 0.168595 0.253064 0.158020 0.168595 0.252564 0.157154 0.168595 0.253064 0.156288 0.168595 0.252564 0.155422 0.168595 0.253064 0.154556 0.168595 0.252564 0.153690 0.168595 0.257064 0.151190 0.168595 0.257064 0.141044 0.168595 0.254893 0.136210 0.168595 0.254714 0.136677 0.168595 0.254604 0.137165 0.168595 0.254564 0.137664 0.168595 0.254596 0.138164 0.168595 0.254700 0.138654 0.168595 0.254872 0.139124 0.168595 0.255109 0.139565 0.168595 0.255406 0.139967 0.168595 0.255759 0.140323 0.168595 0.256158 0.140625 0.168595 0.256596 0.140867 0.168595 0.261893 0.121210 0.168595 0.268236 0.124170 0.168595 0.268421 0.123681 0.168595 0.268531 0.123169 0.168595 0.268564 0.122647 0.168595 0.268519 0.122126 0.168595 0.268396 0.121617 0.168595 0.268199 0.121133 0.168595 0.267932 0.120683 0.168595 0.267601 0.120278 0.168595 0.267213 0.119927 0.168595 0.266777 0.119637 0.168595 0.266303 0.119416 0.168595 0.265801 0.119268 0.168595 0.265283 0.119197 0.168595 0.264760 0.119203 0.168595 0.264244 0.119287 0.168595 0.263746 0.119447 0.168595 0.263277 0.119680 0.168595 0.262849 0.119980 0.168595 0.262470 0.120340 0.168595 0.262149 0.120753 0.168595 0.261236 0.139170 0.168595 0.261125 0.139387 0.168595 0.261182 0.139279 0.168595 0.256564 0.181402 0.168595</float_array>
          <technique_common>
            <accessor source="#gripper_clamp_right-mesh-positions-array" count="249" stride="3">
              <param name="X" type="float"/>
              <param name="Y" type="float"/>
              <param name="Z" type="float"/>
            </accessor>
          </technique_common>
        </source>
        <source id="gripper_clamp_right-mesh-normals">
          <float_array id="gripper_clamp_right-mesh-normals-array" count="1734">0.000000 -1.000000 0.000000 0.000000 -1.000000 0.000000 0.000000 -1.000000 0.000000 0.000000 -1.000000 0.000000 0.000000 0.000000 -1.000000 0.000000 0.000000 -1.000000 0.000000 0.000000 -1.000000 0.000000 0.000000 -1.000000 0.000000 0.000000 -1.000000 0.000000 0.000000 -1.000000 0.000000 0.000000 -1.000000 0.000000 0.000000 -1.000000 0.000000 0.000000 -1.000000 0.000000 0.000000 -1.000000 0.000000 0.000000 -1.000000 0.000000 0.000000 -1.000000 0.000000 0.000000 -1.000000 0.000000 0.000000 -1.000000 0.000000 0.000000 -1.000000 0.000000 0.000000 -1.000000 0.000000 0.000000 -1.000000 0.000000 0.000000 -1.000000 0.000000 0.000000 -1.000000 0.000000 0.000000 -1.000000 0.000000 0.000000 -1.000000 0.000000 0.000000 -1.000000 0.000000 0.000000 -1.000000 0.000000 0.000000 -1.000000 0.000000 0.000000 -1.000000 0.000000 0.000000 -1.000000 0.000000 0.000000 -1.000000 0.000000 0.000000 -1.000000 0.000000 0.000000 -1.000000 0.000000 0.000000 -1.000000 0.000000 0.000000 -1.000000 0.000000 0.000000 -1.000000 0.000000 0.000000 -1.000000 0.000000 0.000000 -1.000000 0.000000 0.000000 -1.000000 0.000000 0.000000 -1.000000 0.000000 0.000000 -1.000000 0.000000 0.000000 -1.000000 0.000000 0.000000 -1.000000 0.000000 0.000000 -1.000000 0.000000 0.000000 -1.000000 0.000000 0.000000 -1.000000 0.000000 0.000000 -1.000000 0.000000 0.000000 -1.000000 0.000000 0.000000 -1.000000 0.000000 0.000000 -1.000000 0.000000 0.000000 -1.000000 0.000000 0.000000 -1.000000 0.000000 0.000000 -1.000000 0.000000 0.000000 -1.000000 0.000000 0.000000 -1.000000 0.000000 0.000000 -1.000000 0.000000 0.000000 -1.000000 0.000000 0.000000 -1.000000 0.000000 0.000000 -1.000000 0.000000 0.000000 -1.000000 0.000000 0.000000 -1.000000 0.000000 0.000000 -1.000000 0.000000 0.000000 -1.000000 0.000000 0.000000 -1.000000 0.000000 0.000000 -1.000000 0.000000 0.000000 -1.000000 0.000000 0.000000 -1.000000 0.000000 0.000000 -1.000000 0.000000 0.000000 -1.000000 0.000000 0.000000 -1.000000 0.000000 0.000000 -1.000000 0.000000 0.000000 -1.000000 0.000000 0.000000 -1.000000 0.000000 0.000000 -1.000000 0.000000 0.000000 -1.000000 0.000000 0.000000 -1.000000 0.000000 0.000000 -1.000000 0.000000 0.000000 -1.000000 0.000000 0.000000 -1.000000 0.000000 0.000000 -1.000000 0.000000 0.000000 -1.000000 0.000000 0.000000 -1.000000 0.000000 0.000000 -1.000000 0.000000 0.000000 -1.000000 0.000000 0.000000 -1.000000 0.000000 0.000000 -1.000000 0.000000 0.000000 -1.000000 0.000000 0.000000 -1.000000 0.000000 0.000000 -1.000000 0.000000 0.000000 -1.000000 0.000000 0.000000 -1.000000 0.000000 0.000000 -1.000000 0.000000 0.000000 -1.000000 0.000000 0.000000 -1.000000 0.000000 0.000000 -1.000000 0.000000 0.000000 -1.000000 0.000000 0.000000 -1.000000 0.000000 0.000000 -1.000000 0.000000 0.000000 -1.000000 0.000000 0.000000 -1.000000 0.000000 0.000000 -1.000000 0.000000 0.000000 -1.000000 0.000000 0.000000 -1.000000 0.000000 0.000000 -1.000000 0.000000 0.000000 -1.000000 0.000000 0.000000 -1.000000 0.000000 0.000000 -1.000000 0.000000 0.000000 -1.000000 0.000000 0.000000 -1.000000 0.000000 0.000000 -1.000000 0.000000 0.000000 -1.000000 0.000000 0.000000 -1.000000 0.000000 0.000000 -1.000000 0.000000 0.000000 -1.000000 0.000000 0.000000 -1.000000 0.000000 0.000000 -1.000000 0.000000 0.000000 -1.000000 0.000000 0.000000 -1.000000 0.000000 0.000000 -1.000000 0.000000 0.000000 -1.000000 0.000000 0.000000 -1.000000 0.000000 0.000000 -1.000000 0.000000 0.000000 -1.000000 0.000000 0.000000 -1.000000 0.000000 0.000000 -1.000000 0.000000 0.000000 -1.000000 0.000000 0.000000 -1.000000 0.000000 0.000000 -1.000000 0.000000 0.000000 -1.000000 0.000000 0.000000 -1.000000 1.000000 0.000000 0.000000 1.000000 0.000000 0.000000 1.000000 0.000000 0.000000 1.000000 0.000000 0.000000 1.000000 0.000000 0.000000 1.000000 0.000000 0.000000 0.965926 0.258819 0.000000 0.965926 0.258819 0.000000 1.000000 0.000000 0.000000 1.000000 0.000000 0.000000 0.965926 -0.258819 0.000000 0.965926 -0.258819 0.000000 0.866025 -0.500000 0.000000 0.866025 -0.500000 0.000000 0.707107 -0.707107 0.000000 0.707107 -0.707107 0.000000 0.500000 -0.866025 0.000000 0.500000 -0.866025 0.000000 0.258819 -0.965926 0.000000 0.258819 -0.965926 0.000000 -0.000000 -1.000000 -0.000000 0.000000 -1.000000 0.000000 -0.258819 -0.965926 -0.000000 -0.258819 -0.965926 -0.000000 -0.500000 -0.866025 -0.000000 -0.500000 -0.866025 -0.000000 -0.707107 -0.707107 -0.000000 -0.707107 -0.707107 -0.000000 -0.866025 -0.500000 -0.000000 -0.866025 -0.500000 -0.000000 -0.965926 -0.258819 -0.000000 -0.965926 -0.258819 -0.000000 -1.000000 -0.000000 -0.000000 -1.000000 -0.000000 -0.000000 -0.965926 0.258819 -0.000000 -0.965926 0.258819 -0.000000 -0.866025 0.500000 -0.000000 -0.866025 0.500000 -0.000000 -0.707107 0.707107 -0.000000 -0.707107 0.707107 -0.000000 -0.500000 0.866025 -0.000000 -0.500000 0.866025 -0.000000 -0.258819 0.965926 -0.000000 -0.258819 0.965926 -0.000000 -0.000000 1.000000 -0.000000 0.000000 1.000000 0.000000 0.258819 0.965926 0.000000 0.258819 0.965926 0.000000 0.500000 0.866025 0.000000 0.500000 0.866025 0.000000 0.707107 0.707107 0.000000 0.707107 0.707107 0.000000 0.866025 0.500000 0.000000 0.866025 0.500000 0.000000 0.965926 0.258819 0.000000 0.965926 0.258819 0.000000 1.000000 0.000000 0.000000 1.000000 0.000000 0.000000 0.965926 -0.258819 0.000000 0.965926 -0.258819 0.000000 0.866025 -0.500000 0.000000 0.866025 -0.500000 0.000000 0.707107 -0.707107 0.000000 0.707107 -0.707107 0.000000 0.500000 -0.866025 0.000000 0.500000 -0.866025 0.000000 0.258819 -0.965926 0.000000 0.258819 -0.965926 0.000000 -0.000000 -1.000000 -0.000000 0.000000 -1.000000 0.000000 -0.258819 -0.965926 -0.000000 -0.258819 -0.965926 -0.000000 -0.500000 -0.866025 -0.000000 -0.500000 -0.866025 -0.000000 -0.707107 -0.707107 -0.000000 -0.707107 -0.707107 -0.000000 -0.866025 -0.500000 -0.000000 -0.866025 -0.500000 -0.000000 -0.965926 -0.258819 -0.000000 -0.965926 -0.258819 -0.000000 -1.000000 -0.000000 -0.000000 -1.000000 -0.000000 -0.000000 -0.965926 0.258819 -0.000000 -0.965926 0.258819 -0.000000 -0.866025 0.500000 -0.000000 -0.866025 0.500000 -0.000000 -0.707107 0.707107 -0.000000 -0.707107 0.707107 -0.000000 -0.500000 0.866025 -0.000000 -0.500000 0.866025 -0.000000 -0.258819 0.965926 -0.000000 -0.258819 0.965926 -0.000000 -0.000000 1.000000 -0.000000 0.000000 1.000000 0.000000 0.258819 0.965926 0.000000 0.258819 0.965926 0.000000 0.500000 0.866025 0.000000 0.500000 0.866025 0.000000 0.707107 0.707107 0.000000 0.707107 0.707107 0.000000 0.866025 0.500000 0.000000 0.866025 0.500000 0.000000 -0.866025 -0.500000 -0.000000 -0.866025 -0.500000 -0.000000 -0.866025 -0.500000 -0.000000 -0.866025 -0.500000 -0.000000 -0.866025 0.500000 -0.000000 -0.866025 0.500000 -0.000000 -0.866025 0.500000 -0.000000 -0.866025 0.500000 -0.000000 -0.866025 -0.500000 -0.000000 -0.866025 -0.500000 -0.000000 -0.866025 -0.500000 -0.000000 -0.866025 -0.500000 -0.000000 -0.866025 0.500000 -0.000000 -0.866025 0.500000 -0.000000 -0.866025 0.500000 -0.000000 -0.866025 0.500000 -0.000000 -0.866025 -0.500000 -0.000000 -0.866025 -0.500000 -0.000000 -0.866025 -0.500000 -0.000000 -0.866025 -0.500000 -0.000000 -0.866025 0.500000 -0.000000 -0.866025 0.500000 -0.000000 -0.866025 0.500000 -0.000000 -0.866025 0.500000 -0.000000 -0.866025 -0.500000 -0.000000 -0.866025 -0.500000 -0.000000 -0.866025 -0.500000 -0.000000 -0.866025 -0.500000 -0.000000 -0.866025 0.500000 -0.000000 -0.866025 0.500000 -0.000000 -0.866025 0.500000 -0.000000 -0.866025 0.500000 -0.000000 -0.866025 -0.500000 -0.000000 -0.866025 -0.500000 -0.000000 -0.866025 -0.500000 -0.000000 -0.866025 -0.500000 -0.000000 -0.866025 0.500000 -0.000000 -0.866025 0.500000 -0.000000 -0.866025 0.500000 -0.000000 -0.866025 0.500000 -0.000000 -0.866025 -0.500000 -0.000000 -0.866025 -0.500000 -0.000000 -0.866025 -0.500000 -0.000000 -0.866025 -0.500000 -0.000000 -0.866025 0.500000 -0.000000 -0.866025 0.500000 -0.000000 -0.866025 0.500000 -0.000000 -0.866025 0.500000 -0.000000 -0.866025 -0.500000 -0.000000 -0.866025 -0.500000 -0.000000 -0.866025 -0.500000 -0.000000 -0.866025 -0.500000 -0.000000 -0.866025 0.500000 -0.000000 -0.866025 0.500000 -0.000000 -0.866025 0.500000 -0.000000 -0.866025 0.500000 -0.000000 -0.866025 -0.500000 -0.000000 -0.866025 -0.500000 -0.000000 -0.866025 -0.500000 -0.000000 -0.866025 -0.500000 -0.000000 -0.866025 0.500000 -0.000000 -0.866025 0.500000 -0.000000 -0.866025 0.500000 -0.000000 -0.866025 0.500000 -0.000000 -0.866025 -0.500000 -0.000000 -0.866025 -0.500000 -0.000000 -0.866025 -0.500000 -0.000000 -0.866025 -0.500000 -0.000000 -0.866025 0.500000 -0.000000 -0.866025 0.500000 -0.000000 -0.866025 0.500000 -0.000000 -0.866025 0.500000 -0.000000 -0.866025 -0.500000 -0.000000 -0.866025 -0.500000 -0.000000 -0.866025 -0.500000 -0.000000 -0.866025 -0.500000 -0.000000 -0.866025 0.500000 -0.000000 -0.866025 0.500000 -0.000000 -0.866025 0.500000 -0.000000 -0.866025 0.500000 -0.000000 -0.866025 -0.500000 -0.000000 -0.866025 -0.500000 -0.000000 -0.866025 -0.500000 -0.000000 -0.866025 -0.500000 -0.000000 -0.866025 0.500000 -0.000000 -0.866025 0.500000 -0.000000 -0.866025 0.500000 -0.000000 -0.866025 0.500000 -0.000000 -0.866025 -0.500000 -0.000000 -0.866025 -0.500000 -0.000000 -0.866025 -0.500000 -0.000000 -0.866025 -0.500000 -0.000000 -0.866025 0.500000 -0.000000 -0.866025 0.500000 -0.000000 -0.866025 0.500000 -0.000000 -0.866025 0.500000 -0.000000 -0.866025 -0.500000 -0.000000 -0.866025 -0.500000 -0.000000 -0.866025 -0.500000 -0.000000 -0.866025 -0.500000 -0.000000 -0.866025 0.500000 -0.000000 -0.866025 0.500000 -0.000000 -0.866025 0.500000 -0.000000 -0.866025 0.500000 -0.000000 -0.866025 -0.500000 -0.000000 -0.866025 -0.500000 -0.000000 -0.866025 -0.500000 -0.000000 -0.866025 -0.500000 -0.000000 -0.866025 0.500000 -0.000000 -0.866025 0.500000 -0.000000 -0.866025 0.500000 -0.000000 -0.866025 0.500000 -0.000000 -0.866025 -0.500000 -0.000000 -0.866025 -0.500000 -0.000000 -0.866025 -0.500000 -0.000000 -0.866025 -0.500000 -0.000000 -0.866025 0.500000 -0.000000 -0.866025 0.500000 -0.000000 -0.866025 0.500000 -0.000000 -0.866025 0.500000 -0.000000 -0.866025 -0.500000 -0.000000 -0.866025 -0.500000 -0.000000 -0.866025 -0.500000 -0.000000 -0.866025 -0.500000 -0.000000 -0.866025 0.500000 -0.000000 -0.866025 0.500000 -0.000000 -0.866025 0.500000 -0.000000 -0.866025 0.500000 -0.000000 -0.485643 -0.874157 -0.000000 -0.485643 -0.874157 -0.000000 -0.485643 -0.874157 -0.000000 -0.485643 -0.874157 -0.000000 -0.485643 -0.874157 -0.000000 -1.000000 0.000000 -0.000000 -1.000000 0.000000 -0.000000 -1.000000 0.000000 -0.000000 -1.000000 0.000000 -0.000000 -0.906183 -0.422885 -0.000000 -0.906183 -0.422885 -0.000000 -0.957241 -0.289293 -0.000000 -0.957241 -0.289293 -0.000000 -0.988719 -0.149783 -0.000000 -0.988719 -0.149783 -0.000000 -0.999974 -0.007209 -0.000000 -0.999974 -0.007209 -0.000000 -0.990776 0.135512 -0.000000 -0.990776 0.135512 -0.000000 -0.961312 0.275461 -0.000000 -0.961312 0.275461 -0.000000 -0.912186 0.409776 -0.000000 -0.912186 0.409776 -0.000000 -0.844402 0.535710 -0.000000 -0.844402 0.535710 -0.000000 -0.759347 0.650686 -0.000000 -0.759347 0.650686 -0.000000 -0.658760 0.752353 -0.000000 -0.658760 0.752353 -0.000000 -0.544699 0.838632 -0.000000 -0.544699 0.838632 -0.000000 -0.419497 0.907757 -0.000000 -0.419497 0.907757 -0.000000 -0.285714 0.958315 -0.000000 -0.285714 0.958315 -0.000000 -0.906183 -0.422885 -0.000000 -0.906183 -0.422885 -0.000000 0.906183 0.422885 0.000000 0.906183 0.422885 0.000000 0.959090 0.283103 0.000000 0.959090 0.283103 0.000000 0.990572 0.136996 0.000000 0.990572 0.136996 0.000000 0.999926 -0.012171 0.000000 0.999926 -0.012171 0.000000 0.986944 -0.161067 0.000000 0.986944 -0.161067 0.000000 0.951914 -0.306364 0.000000 0.951914 -0.306364 0.000000 0.895621 -0.444818 0.000000 0.895621 -0.444818 0.000000 0.819321 -0.573335 0.000000 0.819321 -0.573335 0.000000 0.724719 -0.689045 0.000000 0.724719 -0.689045 0.000000 0.613928 -0.789362 0.000000 0.613928 -0.789362 0.000000 0.489422 -0.872047 0.000000 0.489422 -0.872047 0.000000 0.353984 -0.935252 0.000000 0.353984 -0.935252 0.000000 0.210638 -0.977564 0.000000 0.210638 -0.977564 0.000000 0.062587 -0.998040 0.000000 0.062587 -0.998040 0.000000 -0.086862 -0.996220 -0.000000 -0.086862 -0.996220 -0.000000 -0.234371 -0.972147 -0.000000 -0.234371 -0.972147 -0.000000 -0.376644 -0.926358 -0.000000 -0.376644 -0.926358 -0.000000 -0.510504 -0.859876 -0.000000 -0.510504 -0.859876 -0.000000 -0.632960 -0.774185 -0.000000 -0.632960 -0.774185 -0.000000 -0.741276 -0.671200 -0.000000 -0.741276 -0.671200 -0.000000 -0.833034 -0.553222 -0.000000 -0.833034 -0.553222 -0.000000 0.906183 0.422885 0.000000 0.906183 0.422885 0.000000 0.857143 0.515079 0.000000 0.857143 0.515079 0.000000 0.874557 0.484923 0.000000 0.874557 0.484923 0.000000 0.890910 0.454180 0.000000 0.890910 0.454180 0.000000 0.707107 0.707107 0.000000 0.707107 0.707107 0.000000 0.707107 0.707107 0.000000 0.707107 0.707107 0.000000 0.000000 1.000000 0.000000 0.000000 1.000000 0.000000 0.000000 1.000000 0.000000 0.000000 1.000000 0.000000 -0.000000 -0.000000 1.000000 -0.000000 -0.000000 1.000000 -0.000000 -0.000000 1.000000 -0.000000 -0.000000 1.000000 -0.000000 -0.000000 1.000000 -0.000000 -0.000000 1.000000 -0.000000 -0.000000 1.000000 -0.000000 -0.000000 1.000000 -0.000000 -0.000000 1.000000 -0.000000 -0.000000 1.000000 -0.000000 -0.000000 1.000000 -0.000000 -0.000000 1.000000 -0.000000 -0.000000 1.000000 -0.000000 -0.000000 1.000000 -0.000000 -0.000000 1.000000 -0.000000 -0.000000 1.000000 -0.000000 -0.000000 1.000000 -0.000000 -0.000000 1.000000 -0.000000 -0.000000 1.000000 -0.000000 -0.000000 1.000000 -0.000000 -0.000000 1.000000 -0.000000 -0.000000 1.000000 -0.000000 -0.000000 1.000000 -0.000000 -0.000000 1.000000 -0.000000 -0.000000 1.000000 -0.000000 -0.000000 1.000000 -0.000000 -0.000000 1.000000 -0.000000 -0.000000 1.000000 -0.000000 -0.000000 1.000000 -0.000000 -0.000000 1.000000 -0.000000 -0.000000 1.000000 -0.000000 -0.000000 1.000000 -0.000000 -0.000000 1.000000 -0.000000 -0.000000 1.000000 -0.000000 -0.000000 1.000000 -0.000000 -0.000000 1.000000 -0.000000 -0.000000 1.000000 -0.000000 -0.000000 1.000000 -0.000000 -0.000000 1.000000 -0.000000 -0.000000 1.000000 -0.000000 -0.000000 1.000000 -0.000000 -0.000000 1.000000 -0.000000 -0.000000 1.000000 -0.000000 -0.000000 1.000000 -0.000000 -0.000000 1.000000 -0.000000 -0.000000 1.000000 -0.000000 -0.000000 1.000000 -0.000000 -0.000000 1.000000 -0.000000 -0.000000 1.000000 -0.000000 -0.000000 1.000000 -0.000000 -0.000000 1.000000 -0.000000 -0.000000 1.000000 -0.000000 -0.000000 1.000000 -0.000000 -0.000000 1.000000 -0.000000 -0.000000 1.000000 -0.000000 -0.000000 1.000000 -0.000000 -0.000000 1.000000 -0.000000 -0.000000 1.000000 -0.000000 -0.000000 1.000000 -0.000000 -0.000000 1.000000 -0.000000 -0.000000 1.000000 -0.000000 -0.000000 1.000000 -0.000000 -0.000000 1.000000 -0.000000 -0.000000 1.000000 -0.000000 -0.000000 1.000000 -0.000000 -0.000000 1.000000 -0.000000 -0.000000 1.000000 -0.000000 -0.000000 1.000000 -0.000000 -0.000000 1.000000 -0.000000 -0.000000 1.000000 -0.000000 -0.000000 1.000000 -0.000000 -0.000000 1.000000 -0.000000 -0.000000 1.000000 -0.000000 -0.000000 1.000000 -0.000000 -0.000000 1.000000 -0.000000 -0.000000 1.000000 -0.000000 -0.000000 1.000000 -0.000000 -0.000000 1.000000 -0.000000 -0.000000 1.000000 -0.000000 -0.000000 1.000000 -0.000000 -0.000000 1.000000 -0.000000 -0.000000 1.000000 -0.000000 -0.000000 1.000000 -0.000000 -0.000000 1.000000 -0.000000 -0.000000 1.000000 -0.000000 -0.000000 1.000000 -0.000000 -0.000000 1.000000 -0.000000 -0.000000 1.000000 -0.000000 -0.000000 1.000000 -0.000000 -0.000000 1.000000 -0.000000 -0.000000 1.000000 -0.000000 -0.000000 1.000000 -0.000000 -0.000000 1.000000 -0.000000 -0.000000 1.000000 -0.000000 -0.000000 1.000000 -0.000000 -0.000000 1.000000 -0.000000 -0.000000 1.000000 -0.000000 -0.000000 1.000000 -0.000000 -0.000000 1.000000 -0.000000 -0.000000 1.000000 -0.000000 -0.000000 1.000000 -0.000000 -0.000000 1.000000 -0.000000 -0.000000 1.000000 -0.000000 -0.000000 1.000000 -0.000000 -0.000000 1.000000 -0.000000 -0.000000 1.000000 -0.000000 -0.000000 1.000000 -0.000000 -0.000000 1.000000 -0.000000 -0.000000 1.000000 -0.000000 -0.000000 1.000000 -0.000000 -0.000000 1.000000 -0.000000 -0.000000 1.000000 -0.000000 -0.000000 1.000000 -0.000000 -0.000000 1.000000 -0.000000 -0.000000 1.000000 -0.000000 -0.000000 1.000000 -0.000000 -0.000000 1.000000 -0.000000 -0.000000 1.000000 -0.000000 -0.000000 1.000000 -0.000000 -0.000000 1.000000 -0.000000 -0.000000 1.000000 -0.000000 -0.000000 1.000000 -0.000000 -0.000000 1.000000</float_array>
          <technique_common>
            <accessor source="#gripper_clamp_right-mesh-normals-array" count="578" stride="3">
              <param name="X" type="float"/>
              <param name="Y" type="float"/>
              <param name="Z" type="float"/>
            </accessor>
          </technique_common>
        </source>
        <vertices id="gripper_clamp_right-mesh-vertices">
          <input semantic="POSITION" source="#gripper_clamp_right-mesh-positions"/>
        </vertices>
        <triangles material="Opaque_246_246_243_" count="502">
          <input semantic="VERTEX" source="#gripper_clamp_right-mesh-vertices" offset="0"/>
          <input semantic="NORMAL" source="#gripper_clamp_right-mesh-normals" offset="1"/>
          <p>0 0 1 1 3 2 3 2 1 1 2 3 4 4 5 5 38 6 38 6 5 5 36 7 38 6 36 7 37 8 6 9 2 10 5 5 5 5 2 10 22 11 5 5 22 11 24 12 24 12 22 11 23 13 6 9 3 14 2 10 7 15 8 16 2 10 2 10 8 16 10 17 2 10 10 17 12 18 12 18 10 17 11 19 8 16 9 20 10 17 13 21 14 22 12 18 12 18 14 22 2 10 15 23 16 24 14 22 14 22 16 24 2 10 17 25 18 26 16 24 16 24 18 26 2 10 19 27 20 28 18 26 18 26 20 28 2 10 21 29 22 11 20 28 20 28 22 11 2 10 25 30 26 31 24 12 24 12 26 31 5 5 27 32 28 33 26 31 26 31 28 33 5 5 29 34 30 35 28 33 28 33 30 35 5 5 31 36 32 37 30 35 30 35 32 37 5 5 33 38 34 39 32 37 32 37 34 39 5 5 35 40 36 7 34 39 34 39 36 7 5 5 1 41 0 42 77 43 77 43 0 42 118 44 77 43 118 44 119 45 0 42 39 46 118 44 118 44 39 46 117 47 117 47 39 46 116 48 116 48 39 46 115 49 115 49 39 46 114 50 114 50 39 46 40 51 114 50 40 51 41 52 41 52 42 53 114 50 114 50 42 53 113 54 113 54 42 53 112 55 112 55 42 53 100 56 112 55 100 56 64 57 64 57 100 56 101 58 64 57 101 58 78 59 43 60 94 61 42 53 42 53 94 61 95 62 42 53 95 62 96 63 44 64 48 65 43 60 43 60 48 65 49 66 43 60 49 66 50 67 48 65 44 64 47 68 47 68 44 64 45 69 47 68 45 69 46 70 43 60 50 67 90 71 90 71 50 67 51 72 90 71 51 72 52 73 90 71 52 73 89 74 89 74 52 73 53 75 89 74 53 75 88 76 88 76 53 75 54 77 88 76 54 77 87 78 87 78 54 77 55 79 87 78 55 79 86 80 86 80 55 79 85 81 85 81 55 79 56 82 85 81 56 82 84 83 84 83 56 82 57 84 84 83 57 84 83 85 83 85 57 84 58 86 83 85 58 86 82 87 82 87 58 86 81 88 81 88 58 86 59 89 81 88 59 89 80 90 80 90 59 89 60 91 80 90 60 91 79 92 79 92 60 91 61 93 79 92 61 93 78 59 78 59 61 93 62 94 78 59 62 94 63 95 63 95 64 57 78 59 65 96 106 97 64 57 64 57 106 97 107 98 64 57 107 98 108 99 66 100 71 101 65 96 65 96 71 101 72 102 65 96 72 102 102 103 102 103 72 102 73 104 102 103 73 104 74 105 71 101 66 100 70 106 70 106 66 100 67 107 70 106 67 107 69 108 69 108 67 107 68 109 102 103 74 105 125 110 125 110 74 105 75 111 125 110 75 111 124 112 124 112 75 111 76 113 124 112 76 113 123 114 123 114 76 113 77 43 123 114 77 43 122 115 122 115 77 43 121 116 121 116 77 43 120 117 120 117 77 43 119 45 90 71 91 118 43 60 43 60 91 118 92 119 43 60 92 119 93 120 93 120 94 61 43 60 96 63 97 121 42 53 42 53 97 121 98 122 42 53 98 122 99 123 99 123 100 56 42 53 102 103 103 124 65 96 65 96 103 124 104 125 65 96 104 125 105 126 105 126 106 97 65 96 108 99 109 127 64 57 64 57 109 127 110 128 64 57 110 128 111 129 111 129 112 55 64 57 6 130 126 131 0 132 0 132 126 131 127 133 0 132 127 133 39 134 0 132 3 135 6 130 129 136 79 137 128 138 128 138 79 137 78 139 128 138 78 139 151 140 151 140 78 139 101 141 151 140 101 141 150 142 150 142 101 141 100 143 150 142 100 143 149 144 149 144 100 143 99 145 149 144 99 145 148 146 148 146 99 145 98 147 148 146 98 147 147 148 147 148 98 147 97 149 147 148 97 149 146 150 146 150 97 149 96 151 146 150 96 151 145 152 145 152 96 151 95 153 145 152 95 153 144 154 144 154 95 153 94 155 144 154 94 155 143 156 143 156 94 155 93 157 143 156 93 157 142 158 142 158 93 157 92 159 142 158 92 159 141 160 141 160 92 159 91 161 141 160 91 161 140 162 140 162 91 161 90 163 140 162 90 163 139 164 139 164 90 163 89 165 139 164 89 165 138 166 138 166 89 165 88 167 138 166 88 167 137 168 137 168 88 167 87 169 137 168 87 169 136 170 136 170 87 169 86 171 136 170 86 171 135 172 135 172 86 171 85 173 135 172 85 173 134 174 134 174 85 173 84 175 134 174 84 175 133 176 133 176 84 175 83 177 133 176 83 177 132 178 132 178 83 177 82 179 132 178 82 179 131 180 131 180 82 179 81 181 131 180 81 181 130 182 130 182 81 181 80 183 130 182 80 183 129 136 129 136 80 183 79 137 153 184 103 185 152 186 152 186 103 185 102 187 152 186 102 187 175 188 175 188 102 187 125 189 175 188 125 189 174 190 174 190 125 189 124 191 174 190 124 191 173 192 173 192 124 191 123 193 173 192 123 193 172 194 172 194 123 193 122 195 172 194 122 195 171 196 171 196 122 195 121 197 171 196 121 197 170 198 170 198 121 197 120 199 170 198 120 199 169 200 169 200 120 199 119 201 169 200 119 201 168 202 168 202 119 201 118 203 168 202 118 203 167 204 167 204 118 203 117 205 167 204 117 205 166 206 166 206 117 205 116 207 166 206 116 207 165 208 165 208 116 207 115 209 165 208 115 209 164 210 164 210 115 209 114 211 164 210 114 211 163 212 163 212 114 211 113 213 163 212 113 213 162 214 162 214 113 213 112 215 162 214 112 215 161 216 161 216 112 215 111 217 161 216 111 217 160 218 160 218 111 217 110 219 160 218 110 219 159 220 159 220 110 219 109 221 159 220 109 221 158 222 158 222 109 221 108 223 158 222 108 223 157 224 157 224 108 223 107 225 157 224 107 225 156 226 156 226 107 225 106 227 156 226 106 227 155 228 155 228 106 227 105 229 155 228 105 229 154 230 154 230 105 229 104 231 154 230 104 231 153 184 153 184 104 231 103 185 176 232 177 233 38 234 38 234 177 233 4 235 178 236 176 237 37 238 37 238 176 237 38 239 179 240 178 241 36 242 36 242 178 241 37 243 180 244 179 245 35 246 35 246 179 245 36 247 181 248 180 249 34 250 34 250 180 249 35 251 182 252 181 253 33 254 33 254 181 253 34 255 183 256 182 257 32 258 32 258 182 257 33 259 184 260 183 261 31 262 31 262 183 261 32 263 185 264 184 265 30 266 30 266 184 265 31 267 186 268 185 269 29 270 29 270 185 269 30 271 187 272 186 273 28 274 28 274 186 273 29 275 188 276 187 277 27 278 27 278 187 277 28 279 189 280 188 281 26 282 26 282 188 281 27 283 190 284 189 285 25 286 25 286 189 285 26 287 191 288 190 289 24 290 24 290 190 289 25 291 192 292 191 293 23 294 23 294 191 293 24 295 193 296 192 297 22 298 22 298 192 297 23 299 194 300 193 301 21 302 21 302 193 301 22 303 195 304 194 305 20 306 20 306 194 305 21 307 196 308 195 309 19 310 19 310 195 309 20 311 197 312 196 313 18 314 18 314 196 313 19 315 198 316 197 317 17 318 17 318 197 317 18 319 199 320 198 321 16 322 16 322 198 321 17 323 200 324 199 325 15 326 15 326 199 325 16 327 201 328 200 329 14 330 14 330 200 329 15 331 202 332 201 333 13 334 13 334 201 333 14 335 203 336 202 337 12 338 12 338 202 337 13 339 204 340 203 341 11 342 11 342 203 341 12 343 205 344 204 345 10 346 10 346 204 345 11 347 206 348 205 349 9 350 9 350 205 349 10 351 207 352 206 353 8 354 8 354 206 353 9 355 208 356 207 357 7 358 7 358 207 357 8 359 209 360 208 361 1 362 1 362 208 361 7 363 1 362 7 363 2 364 210 365 209 366 77 367 77 367 209 366 1 368 65 369 211 370 66 371 66 371 211 370 212 372 66 371 212 372 213 373 66 371 213 373 67 374 67 374 213 373 214 375 67 374 214 375 68 376 68 376 214 375 215 377 68 376 215 377 69 378 69 378 215 377 216 379 69 378 216 379 70 380 70 380 216 379 217 381 70 380 217 381 71 382 71 382 217 381 218 383 71 382 218 383 72 384 72 384 218 383 219 385 72 384 219 385 73 386 73 386 219 385 220 387 73 386 220 387 74 388 74 388 220 387 221 389 74 388 221 389 75 390 75 390 221 389 222 391 75 390 222 391 76 392 76 392 222 391 77 393 77 393 222 391 210 394 223 395 211 370 64 396 64 396 211 370 65 369 43 397 224 398 44 399 44 399 224 398 225 400 44 399 225 400 45 401 45 401 225 400 226 402 45 401 226 402 46 403 46 403 226 402 227 404 46 403 227 404 47 405 47 405 227 404 228 406 47 405 228 406 48 407 48 407 228 406 229 408 48 407 229 408 49 409 49 409 229 408 230 410 49 409 230 410 50 411 50 411 230 410 231 412 50 411 231 412 51 413 51 413 231 412 232 414 51 413 232 414 52 415 52 415 232 414 233 416 52 415 233 416 53 417 53 417 233 416 234 418 53 417 234 418 54 419 54 419 234 418 235 420 54 419 235 420 55 421 55 421 235 420 236 422 55 421 236 422 56 423 56 423 236 422 237 424 56 423 237 424 57 425 57 425 237 424 238 426 57 425 238 426 58 427 58 427 238 426 239 428 58 427 239 428 59 429 59 429 239 428 240 430 59 429 240 430 60 431 60 431 240 430 241 432 60 431 241 432 61 433 61 433 241 432 242 434 61 433 242 434 62 435 62 435 242 434 243 436 62 435 243 436 63 437 63 437 243 436 244 438 63 437 244 438 64 396 64 396 244 438 223 395 245 439 224 398 42 440 42 440 224 398 43 397 39 441 127 442 40 443 40 443 127 442 246 444 40 443 246 444 41 445 41 445 246 444 247 446 41 445 247 446 42 440 42 440 247 446 245 439 248 447 126 448 5 449 5 449 126 448 6 450 177 451 248 452 4 453 4 453 248 452 5 454 210 455 169 456 209 457 209 457 169 456 168 458 209 457 168 458 167 459 222 460 174 461 210 455 210 455 174 461 173 462 210 455 173 462 172 463 174 461 222 460 175 464 175 464 222 460 221 465 175 464 221 465 152 466 152 466 221 465 220 467 152 466 220 467 211 468 211 468 220 467 219 469 211 468 219 469 218 470 218 470 217 471 211 468 211 468 217 471 212 472 212 472 217 471 216 473 212 472 216 473 213 474 213 474 216 473 215 475 213 474 215 475 214 476 223 477 156 478 211 468 211 468 156 478 155 479 211 468 155 479 154 480 244 481 151 482 223 477 223 477 151 482 245 483 223 477 245 483 163 484 163 484 245 483 247 485 163 484 247 485 246 486 244 481 243 487 151 482 151 482 243 487 128 488 128 488 243 487 242 489 128 488 242 489 241 490 128 488 241 490 129 491 129 491 241 490 240 492 129 491 240 492 130 493 130 493 240 492 131 494 131 494 240 492 239 495 131 494 239 495 132 496 132 496 239 495 238 497 132 496 238 497 133 498 133 498 238 497 134 499 134 499 238 497 237 500 134 499 237 500 135 501 135 501 237 500 236 502 135 501 236 502 136 503 136 503 236 502 137 504 137 504 236 502 235 505 137 504 235 505 138 506 138 506 235 505 139 507 139 507 235 505 234 508 139 507 234 508 140 509 140 509 234 508 233 510 140 509 233 510 232 511 140 509 232 511 224 512 224 512 232 511 231 513 224 512 231 513 230 514 230 514 229 515 224 512 224 512 229 515 225 516 225 516 229 515 228 517 225 516 228 517 226 518 226 518 228 517 227 519 245 483 144 520 224 512 224 512 144 520 143 521 224 512 143 521 142 522 246 486 127 523 163 484 163 484 127 523 164 524 164 524 127 523 165 525 165 525 127 523 166 526 166 526 127 523 167 459 167 459 127 523 209 457 127 523 126 527 209 457 209 457 126 527 248 528 209 457 248 528 193 529 193 529 248 528 191 530 193 529 191 530 192 531 177 532 176 533 248 528 248 528 176 533 179 534 248 528 179 534 181 535 181 535 179 534 180 536 176 533 178 537 179 534 182 538 183 539 181 535 181 535 183 539 248 528 184 540 185 541 183 539 183 539 185 541 248 528 186 542 187 543 185 541 185 541 187 543 248 528 188 544 189 545 187 543 187 543 189 545 248 528 190 546 191 530 189 545 189 545 191 530 248 528 194 547 195 548 193 529 193 529 195 548 209 457 196 549 197 550 195 548 195 548 197 550 209 457 198 551 199 552 197 550 197 550 199 552 209 457 200 553 201 554 199 552 199 552 201 554 209 457 202 555 203 556 201 554 201 554 203 556 209 457 204 557 205 558 203 556 203 556 205 558 209 457 206 559 207 560 205 558 205 558 207 560 209 457 207 560 208 561 209 457 172 463 171 562 210 455 210 455 171 562 170 563 210 455 170 563 169 456 163 484 162 564 223 477 223 477 162 564 161 565 223 477 161 565 160 566 160 566 159 567 223 477 223 477 159 567 158 568 223 477 158 568 157 569 157 569 156 478 223 477 154 480 153 570 211 468 211 468 153 570 152 466 151 482 150 571 245 483 245 483 150 571 149 572 245 483 149 572 148 573 148 573 147 574 245 483 245 483 147 574 146 575 245 483 146 575 145 576 145 576 144 520 245 483 142 522 141 577 224 512 224 512 141 577 140 509</p>
        </triangles>
      </mesh>
    </geometry>
  </library_geometries>
  <library_visual_scenes>
    <visual_scene id="Scene" name="Scene">
      <node id="gripper_clamp_right-node" name="gripper_clamp_right" type="NODE">
        <instance_geometry url="#gripper_clamp_right-mesh">
          <bind_material>
            <technique_common>
              <instance_material symbol="Opaque_246_246_243_" target="#Opaque_246_246_243_"/>
            </technique_common>
          </bind_material>
        </instance_geometry>
      </node>
    </visual_scene>
  </library_visual_scenes>
  <scene>
    <instance_visual_scene url="#Scene"/>
  </scene>
</COLLADA>
